<?xml version="1.0" encoding="utf-8"?>
<!-- Generator: Adobe Illustrator 20.1.0, SVG Export Plug-In . SVG Version: 6.00 Build 0)  -->
<svg version="1.2" baseProfile="tiny" id="Layer_1" xmlns="http://www.w3.org/2000/svg" xmlns:xlink="http://www.w3.org/1999/xlink"
	 x="0px" y="0px" viewBox="0 0 958 352" xml:space="preserve">
<g>
	<image opacity="0.15" width="958" height="352" xlink:href="913C8405A08FA387.png" >
	</image>
	<g>
		<path fill="#FFFFFF" d="M907.1,310.1h-861c-6.6,0-12-5.4-12-12v-255c0-6.6,5.4-12,12-12h861c6.6,0,12,5.4,12,12v255
			C919.1,304.7,913.7,310.1,907.1,310.1z"/>
	</g>
</g>
<image width="921" height="305" xlink:href="913C8405A08FA382.png"  transform="matrix(1 0 0 1 -1 18)">
</image>
<g>
	<path d="M335.3,111.9h2.1v12.6h-2.1V111.9z"/>
	<path d="M353.4,124.5h-1.8v-1.3c-0.8,0.9-1.9,1.4-3.2,1.4c-1,0-1.8-0.3-2.5-0.8c-0.7-0.6-1-1.3-1-2.3s0.3-1.6,1-2.1
		c0.7-0.5,1.6-0.7,2.8-0.7h2.6v-0.4c0-1.3-0.7-1.9-2.1-1.9c-0.9,0-1.8,0.3-2.8,1l-0.9-1.3c1.2-0.9,2.5-1.4,4-1.4
		c1.1,0,2,0.3,2.8,0.9c0.7,0.6,1.1,1.5,1.1,2.7V124.5z M351.3,120.9v-0.8h-2.3c-1.5,0-2.2,0.5-2.2,1.4c0,0.5,0.2,0.8,0.5,1.1
		c0.4,0.2,0.9,0.4,1.5,0.4s1.2-0.2,1.7-0.5S351.3,121.5,351.3,120.9z"/>
	<path d="M358.2,119.3v5.2h-2v-9.6h2v1.7c0.3-0.6,0.7-1,1.3-1.4s1.2-0.5,1.9-0.5c1.5,0,2.5,0.6,3.1,1.9c0.9-1.2,2.1-1.9,3.5-1.9
		c1.1,0,2,0.3,2.6,1c0.7,0.7,1,1.6,1,2.9v5.9h-2v-5.3c0-1.8-0.7-2.6-2.2-2.6c-0.7,0-1.3,0.2-1.8,0.7c-0.5,0.4-0.8,1.1-0.8,1.9v5.3
		h-2v-5.3c0-0.9-0.2-1.6-0.5-2c-0.3-0.4-0.8-0.6-1.5-0.6s-1.3,0.2-1.8,0.7C358.4,117.7,358.2,118.4,358.2,119.3z"/>
	<path d="M386.2,121.6c0,0.9-0.3,1.6-1,2.2c-0.7,0.5-1.5,0.8-2.5,0.8c-0.7,0-1.4-0.1-2.2-0.4s-1.4-0.6-2-1.1l1-1.6
		c1.1,0.8,2.2,1.3,3.2,1.3c0.5,0,0.8-0.1,1.1-0.3c0.3-0.2,0.4-0.5,0.4-0.8c0-0.5-0.6-0.9-1.9-1.3c-0.1,0-0.2-0.1-0.2-0.1
		c-2-0.5-3-1.4-3-2.7c0-0.9,0.3-1.6,1-2.1c0.7-0.5,1.6-0.8,2.7-0.8s2.1,0.3,3.1,1l-0.8,1.5c-0.8-0.5-1.6-0.8-2.5-0.8
		c-0.5,0-0.9,0.1-1.2,0.3c-0.3,0.2-0.5,0.4-0.5,0.8c0,0.3,0.2,0.5,0.5,0.7c0.2,0.1,0.5,0.2,0.9,0.3c0.4,0.1,0.7,0.2,1,0.3
		c0.3,0.1,0.6,0.2,0.9,0.3c0.3,0.1,0.6,0.3,0.9,0.5C385.9,120,386.2,120.7,386.2,121.6z"/>
	<path d="M397.4,120.6h-7.5c0,0.7,0.4,1.3,1,1.7c0.6,0.4,1.3,0.6,2,0.6c1.2,0,2.1-0.4,2.7-1.1l1.2,1.3c-1,1.1-2.4,1.6-4,1.6
		c-1.3,0-2.5-0.4-3.4-1.3s-1.4-2.1-1.4-3.6s0.5-2.7,1.4-3.6c1-0.9,2.1-1.3,3.4-1.3c1.3,0,2.4,0.4,3.3,1.2c0.9,0.8,1.4,1.9,1.4,3.2
		V120.6z M389.9,119h5.5c0-0.8-0.3-1.4-0.8-1.9c-0.5-0.4-1.1-0.6-1.9-0.6c-0.7,0-1.4,0.2-2,0.7C390.2,117.6,389.9,118.2,389.9,119z"
		/>
	<path d="M401.6,124.5h-2v-13.4h2V124.5z"/>
	<path d="M407,114.1v0.8h2.5v1.6H407v8h-2v-8h-1.2v-1.6h1.2v-0.7c0-1,0.3-1.8,0.9-2.4c0.6-0.6,1.3-0.9,2.2-0.9s1.6,0.3,2.3,1
		l-0.8,1.4c-0.4-0.4-0.8-0.6-1.2-0.6s-0.8,0.1-1,0.4C407.1,113.3,407,113.6,407,114.1z"/>
	<path d="M410.7,120v-1.9h6v1.9H410.7z"/>
	<path d="M421.8,116.5v4.9c0,0.5,0.1,0.8,0.4,1.1c0.2,0.3,0.6,0.4,1,0.4s0.8-0.2,1.2-0.6l0.8,1.4c-0.7,0.6-1.5,1-2.3,1
		s-1.6-0.3-2.2-0.9c-0.6-0.6-0.9-1.4-0.9-2.4v-4.8h-1.2v-1.6h1.2v-3h2v3h2.5v1.6H421.8z"/>
	<path d="M434.6,124.5h-1.8v-1.3c-0.8,0.9-1.9,1.4-3.2,1.4c-1,0-1.8-0.3-2.5-0.8c-0.7-0.6-1-1.3-1-2.3s0.3-1.6,1-2.1
		c0.7-0.5,1.6-0.7,2.8-0.7h2.6v-0.4c0-1.3-0.7-1.9-2.1-1.9c-0.9,0-1.8,0.3-2.8,1l-0.9-1.3c1.2-0.9,2.5-1.4,4-1.4
		c1.1,0,2,0.3,2.8,0.9c0.7,0.6,1.1,1.5,1.1,2.7V124.5z M432.6,120.9v-0.8h-2.3c-1.5,0-2.2,0.5-2.2,1.4c0,0.5,0.2,0.8,0.5,1.1
		c0.4,0.2,0.9,0.4,1.5,0.4s1.2-0.2,1.7-0.5S432.6,121.5,432.6,120.9z"/>
	<path d="M444.1,120.1v-5.2h2v9.6h-2v-1.7c-0.3,0.6-0.8,1.1-1.3,1.4c-0.6,0.3-1.2,0.5-1.8,0.5c-1.1,0-2-0.3-2.6-1
		c-0.7-0.7-1-1.6-1-2.9v-5.9h2v5.3c0,1.8,0.7,2.6,2.2,2.6c0.7,0,1.3-0.2,1.8-0.7C443.8,121.6,444.1,121,444.1,120.1z"/>
	<path d="M457.9,114.9v8.4c0,1.7-0.5,3-1.4,3.8s-2.1,1.3-3.5,1.3s-2.7-0.5-3.9-1.4l1-1.5c0.9,0.7,1.9,1.1,2.8,1.1
		c1,0,1.7-0.2,2.3-0.7c0.6-0.5,0.8-1.3,0.8-2.4v-1.2c-0.3,0.6-0.7,1-1.3,1.4s-1.2,0.5-1.9,0.5c-1.3,0-2.3-0.4-3.1-1.3
		c-0.8-0.9-1.2-2-1.2-3.3c0-1.3,0.4-2.4,1.2-3.3c0.8-0.9,1.9-1.3,3.1-1.3s2.3,0.5,3.1,1.6v-1.4H457.9z M450.4,119.3
		c0,0.8,0.2,1.5,0.7,2c0.5,0.6,1.1,0.9,2,0.9c0.8,0,1.5-0.3,2-0.8c0.5-0.6,0.8-1.2,0.8-2.1c0-0.8-0.3-1.5-0.8-2.1
		c-0.5-0.6-1.2-0.9-2-0.9s-1.5,0.3-2,0.9C450.7,117.8,450.4,118.5,450.4,119.3z"/>
	<path d="M462.8,119.3v5.2h-2v-13.3h2v5.5c0.3-0.6,0.7-1,1.3-1.4s1.2-0.5,1.9-0.5c1.1,0,2,0.3,2.6,1c0.7,0.7,1,1.6,1,2.9v5.9h-2
		v-5.3c0-1.8-0.7-2.6-2.2-2.6c-0.7,0-1.3,0.2-1.8,0.7C463.1,117.7,462.8,118.4,462.8,119.3z"/>
	<path d="M474.9,116.5v4.9c0,0.5,0.1,0.8,0.4,1.1s0.6,0.4,1,0.4c0.4,0,0.8-0.2,1.2-0.6l0.8,1.4c-0.7,0.6-1.5,1-2.3,1
		c-0.9,0-1.6-0.3-2.2-0.9c-0.6-0.6-0.9-1.4-0.9-2.4v-4.8h-1.2v-1.6h1.2v-3h2v3h2.5v1.6H474.9z"/>
	<path d="M490.9,124.5h-2.4l-5.1-12.6h2.4l3.9,9.4l3.9-9.4h2.4L490.9,124.5z"/>
	<path d="M497.6,113c-0.3-0.3-0.4-0.6-0.4-0.9s0.1-0.6,0.4-0.9s0.6-0.4,0.9-0.4c0.3,0,0.6,0.1,0.9,0.4s0.4,0.6,0.4,0.9
		s-0.1,0.6-0.4,0.9s-0.6,0.4-0.9,0.4C498.2,113.4,497.9,113.2,497.6,113z M499.5,124.5h-2v-9.6h2V124.5z"/>
	<path d="M509.2,121.6c0,0.9-0.3,1.6-1,2.2s-1.5,0.8-2.5,0.8c-0.7,0-1.4-0.1-2.2-0.4s-1.4-0.6-2-1.1l1-1.6c1.1,0.8,2.2,1.3,3.2,1.3
		c0.5,0,0.8-0.1,1.1-0.3s0.4-0.5,0.4-0.8c0-0.5-0.6-0.9-1.9-1.3c-0.1,0-0.2-0.1-0.2-0.1c-2-0.5-3-1.4-3-2.7c0-0.9,0.3-1.6,1-2.1
		c0.7-0.5,1.6-0.8,2.7-0.8c1.1,0,2.1,0.3,3.1,1l-0.8,1.5c-0.8-0.5-1.6-0.8-2.5-0.8c-0.5,0-0.9,0.1-1.2,0.3c-0.3,0.2-0.5,0.4-0.5,0.8
		c0,0.3,0.2,0.5,0.5,0.7c0.2,0.1,0.5,0.2,0.9,0.3c0.4,0.1,0.7,0.2,1,0.3c0.3,0.1,0.6,0.2,0.9,0.3c0.3,0.1,0.6,0.3,0.9,0.5
		C508.9,120,509.2,120.7,509.2,121.6z"/>
	<path d="M518.2,120.1v-5.2h2v9.6h-2v-1.7c-0.3,0.6-0.8,1.1-1.3,1.4c-0.6,0.3-1.2,0.5-1.8,0.5c-1.1,0-2-0.3-2.6-1
		c-0.7-0.7-1-1.6-1-2.9v-5.9h2v5.3c0,1.8,0.7,2.6,2.2,2.6c0.7,0,1.3-0.2,1.8-0.7C518,121.6,518.2,121,518.2,120.1z"/>
	<path d="M530.9,124.5h-1.8v-1.3c-0.8,0.9-1.9,1.4-3.2,1.4c-1,0-1.8-0.3-2.5-0.8c-0.7-0.6-1-1.3-1-2.3s0.3-1.6,1-2.1
		c0.7-0.5,1.6-0.7,2.8-0.7h2.6v-0.4c0-1.3-0.7-1.9-2.1-1.9c-0.9,0-1.8,0.3-2.8,1l-0.9-1.3c1.2-0.9,2.5-1.4,4-1.4
		c1.1,0,2,0.3,2.8,0.9c0.7,0.6,1.1,1.5,1.1,2.7V124.5z M528.9,120.9v-0.8h-2.3c-1.5,0-2.2,0.5-2.2,1.4c0,0.5,0.2,0.8,0.5,1.1
		c0.4,0.2,0.9,0.4,1.5,0.4s1.2-0.2,1.7-0.5C528.7,122,528.9,121.5,528.9,120.9z"/>
	<path d="M535.7,124.5h-2v-13.4h2V124.5z"/>
	<path d="M553.4,113.5c1.2,1.1,1.8,2.6,1.8,4.6c0,2-0.6,3.5-1.8,4.6c-1.2,1.1-3,1.7-5.4,1.7h-4.2v-12.6h4.3
		C550.4,111.9,552.2,112.4,553.4,113.5z M553.1,118.2c0-2.9-1.7-4.3-5-4.3H546v8.6h2.4c1.5,0,2.7-0.4,3.5-1.1
		C552.7,120.6,553.1,119.6,553.1,118.2z"/>
	<path d="M566.6,120.6h-7.5c0,0.7,0.4,1.3,1,1.7c0.6,0.4,1.3,0.6,2,0.6c1.2,0,2.1-0.4,2.7-1.1l1.2,1.3c-1,1.1-2.4,1.6-4,1.6
		c-1.3,0-2.5-0.4-3.4-1.3s-1.4-2.1-1.4-3.6s0.5-2.7,1.4-3.6c1-0.9,2.1-1.3,3.4-1.3s2.4,0.4,3.3,1.2c0.9,0.8,1.4,1.9,1.4,3.2V120.6z
		 M559.1,119h5.5c0-0.8-0.3-1.4-0.8-1.9c-0.5-0.4-1.1-0.6-1.9-0.6c-0.7,0-1.4,0.2-2,0.7C559.4,117.6,559.1,118.2,559.1,119z"/>
	<path d="M575.6,121.6c0,0.9-0.3,1.6-1,2.2s-1.5,0.8-2.5,0.8c-0.7,0-1.4-0.1-2.2-0.4s-1.4-0.6-2-1.1l1-1.6c1.1,0.8,2.2,1.3,3.2,1.3
		c0.5,0,0.8-0.1,1.1-0.3s0.4-0.5,0.4-0.8c0-0.5-0.6-0.9-1.9-1.3c-0.1,0-0.2-0.1-0.2-0.1c-2-0.5-3-1.4-3-2.7c0-0.9,0.3-1.6,1-2.1
		c0.7-0.5,1.6-0.8,2.7-0.8c1.1,0,2.1,0.3,3.1,1l-0.8,1.5c-0.8-0.5-1.6-0.8-2.5-0.8c-0.5,0-0.9,0.1-1.2,0.3c-0.3,0.2-0.5,0.4-0.5,0.8
		c0,0.3,0.2,0.5,0.5,0.7c0.2,0.1,0.5,0.2,0.9,0.3c0.4,0.1,0.7,0.2,1,0.3c0.3,0.1,0.6,0.2,0.9,0.3c0.3,0.1,0.6,0.3,0.9,0.5
		C575.3,120,575.6,120.7,575.6,121.6z"/>
	<path d="M578,113c-0.3-0.3-0.4-0.6-0.4-0.9s0.1-0.6,0.4-0.9s0.6-0.4,0.9-0.4c0.3,0,0.6,0.1,0.9,0.4s0.4,0.6,0.4,0.9
		s-0.1,0.6-0.4,0.9s-0.6,0.4-0.9,0.4C578.6,113.4,578.3,113.2,578,113z M579.9,124.5h-2v-9.6h2V124.5z"/>
	<path d="M591.7,114.9v8.4c0,1.7-0.5,3-1.4,3.8c-0.9,0.8-2.1,1.3-3.5,1.3c-1.4,0-2.7-0.5-3.9-1.4l1-1.5c0.9,0.7,1.9,1.1,2.8,1.1
		s1.7-0.2,2.3-0.7c0.6-0.5,0.8-1.3,0.8-2.4v-1.2c-0.3,0.6-0.7,1-1.3,1.4c-0.6,0.3-1.2,0.5-1.9,0.5c-1.3,0-2.3-0.4-3.1-1.3
		c-0.8-0.9-1.2-2-1.2-3.3c0-1.3,0.4-2.4,1.2-3.3c0.8-0.9,1.9-1.3,3.1-1.3c1.3,0,2.3,0.5,3.1,1.6v-1.4H591.7z M584.2,119.3
		c0,0.8,0.2,1.5,0.7,2c0.5,0.6,1.1,0.9,2,0.9c0.8,0,1.5-0.3,2-0.8c0.5-0.6,0.8-1.2,0.8-2.1c0-0.8-0.3-1.5-0.8-2.1
		c-0.5-0.6-1.2-0.9-2-0.9c-0.8,0-1.5,0.3-2,0.9C584.5,117.8,584.2,118.5,584.2,119.3z"/>
	<path d="M596.6,119.3v5.2h-2v-9.6h2v1.7c0.3-0.6,0.8-1,1.3-1.4c0.6-0.3,1.2-0.5,1.8-0.5c1.1,0,2,0.3,2.6,1c0.7,0.7,1,1.6,1,2.9v5.9
		h-2v-5.3c0-1.8-0.7-2.6-2.2-2.6c-0.7,0-1.3,0.2-1.8,0.7C596.9,117.7,596.6,118.4,596.6,119.3z"/>
	<path d="M615.1,120.6h-7.5c0,0.7,0.4,1.3,1,1.7c0.6,0.4,1.3,0.6,2,0.6c1.2,0,2.1-0.4,2.7-1.1l1.2,1.3c-1,1.1-2.4,1.6-4,1.6
		c-1.3,0-2.5-0.4-3.4-1.3s-1.4-2.1-1.4-3.6s0.5-2.7,1.4-3.6c1-0.9,2.1-1.3,3.4-1.3s2.4,0.4,3.3,1.2c0.9,0.8,1.4,1.9,1.4,3.2V120.6z
		 M607.6,119h5.5c0-0.8-0.3-1.4-0.8-1.9c-0.5-0.4-1.1-0.6-1.9-0.6c-0.7,0-1.4,0.2-2,0.7C607.9,117.6,607.6,118.2,607.6,119z"/>
	<path d="M622.4,116.8c-1,0-1.7,0.3-2.2,1c-0.5,0.6-0.8,1.5-0.8,2.6v4.1h-2v-9.6h2v1.9c0.3-0.6,0.8-1.1,1.3-1.5
		c0.6-0.4,1.1-0.6,1.8-0.6l0,2C622.4,116.8,622.4,116.8,622.4,116.8z"/>
	<path d="M637.2,124.5h-1.8v-1.3c-0.8,0.9-1.9,1.4-3.2,1.4c-1,0-1.8-0.3-2.5-0.8c-0.7-0.6-1-1.3-1-2.3s0.3-1.6,1-2.1
		c0.7-0.5,1.6-0.7,2.8-0.7h2.6v-0.4c0-1.3-0.7-1.9-2.1-1.9c-0.9,0-1.8,0.3-2.8,1l-0.9-1.3c1.2-0.9,2.5-1.4,4-1.4
		c1.1,0,2,0.3,2.8,0.9c0.7,0.6,1.1,1.5,1.1,2.7V124.5z M635.2,120.9v-0.8h-2.3c-1.5,0-2.2,0.5-2.2,1.4c0,0.5,0.2,0.8,0.5,1.1
		c0.4,0.2,0.9,0.4,1.5,0.4s1.2-0.2,1.7-0.5C634.9,122,635.2,121.5,635.2,120.9z"/>
	<path d="M642,119.3v5.2h-2v-9.6h2v1.7c0.3-0.6,0.8-1,1.3-1.4c0.6-0.3,1.2-0.5,1.8-0.5c1.1,0,2,0.3,2.6,1c0.7,0.7,1,1.6,1,2.9v5.9
		h-2v-5.3c0-1.8-0.7-2.6-2.2-2.6c-0.7,0-1.3,0.2-1.8,0.7C642.3,117.7,642,118.4,642,119.3z"/>
	<path d="M652.4,123.2c-0.9-0.9-1.4-2.1-1.4-3.6c0-1.5,0.5-2.7,1.4-3.6c0.9-0.9,2-1.3,3.3-1.3s2.3,0.5,3.1,1.6v-5.3h2v13.4h-2V123
		c-0.7,1.1-1.8,1.6-3.3,1.6C654.3,124.6,653.3,124.1,652.4,123.2z M653,119.7c0,0.9,0.3,1.7,0.9,2.2s1.3,0.9,2.1,0.9s1.5-0.3,2-0.9
		c0.6-0.6,0.8-1.3,0.8-2.2c0-0.9-0.3-1.7-0.8-2.3c-0.6-0.6-1.2-0.9-2-0.9s-1.5,0.3-2.1,0.9C653.3,118,653,118.8,653,119.7z"/>
	<path d="M671.8,121.6c0.6,0.7,1.4,1,2.3,1c1,0,1.8-0.3,2.3-1s0.9-1.6,0.9-2.7v-7h2.1v7.1c0,1.8-0.5,3.2-1.5,4.2s-2.3,1.5-3.8,1.5
		c-1.6,0-2.8-0.5-3.8-1.5s-1.5-2.4-1.5-4.2v-7.1h2.1v7C670.9,120,671.2,120.9,671.8,121.6z"/>
	<path d="M682.8,111.9h2.1v12.6h-2.1V111.9z"/>
	<path d="M702.8,113.5c1.2,1.1,1.8,2.6,1.8,4.6c0,2-0.6,3.5-1.8,4.6c-1.2,1.1-3,1.7-5.4,1.7h-4.2v-12.6h4.3
		C699.9,111.9,701.6,112.4,702.8,113.5z M702.5,118.2c0-2.9-1.7-4.3-5-4.3h-2.1v8.6h2.4c1.5,0,2.7-0.4,3.5-1.1
		C702.1,120.6,702.5,119.6,702.5,118.2z"/>
	<path d="M716,120.6h-7.5c0,0.7,0.4,1.3,1,1.7c0.6,0.4,1.3,0.6,2,0.6c1.2,0,2.1-0.4,2.7-1.1l1.2,1.3c-1,1.1-2.4,1.6-4,1.6
		c-1.3,0-2.5-0.4-3.4-1.3s-1.4-2.1-1.4-3.6s0.5-2.7,1.4-3.6c1-0.9,2.1-1.3,3.4-1.3s2.4,0.4,3.3,1.2c0.9,0.8,1.4,1.9,1.4,3.2V120.6z
		 M708.5,119h5.5c0-0.8-0.3-1.4-0.8-1.9c-0.5-0.4-1.1-0.6-1.9-0.6c-0.7,0-1.4,0.2-2,0.7C708.8,117.6,708.5,118.2,708.5,119z"/>
	<path d="M720.6,124.5l-3.9-9.6h2.1l2.9,7.2l2.9-7.2h2.1l-3.9,9.6H720.6z"/>
	<path d="M737.3,120.6h-7.5c0,0.7,0.4,1.3,1,1.7c0.6,0.4,1.3,0.6,2,0.6c1.2,0,2.1-0.4,2.7-1.1l1.2,1.3c-1,1.1-2.4,1.6-4,1.6
		c-1.3,0-2.5-0.4-3.4-1.3s-1.4-2.1-1.4-3.6s0.5-2.7,1.4-3.6c1-0.9,2.1-1.3,3.4-1.3s2.4,0.4,3.3,1.2c0.9,0.8,1.4,1.9,1.4,3.2V120.6z
		 M729.8,119h5.5c0-0.8-0.3-1.4-0.8-1.9c-0.5-0.4-1.1-0.6-1.9-0.6c-0.7,0-1.4,0.2-2,0.7C730.1,117.6,729.8,118.2,729.8,119z"/>
	<path d="M741.5,124.5h-2v-13.4h2V124.5z"/>
	<path d="M752.5,123.2c-1,1-2.2,1.4-3.6,1.4c-1.4,0-2.6-0.5-3.6-1.4s-1.4-2.1-1.4-3.5c0-1.4,0.5-2.5,1.4-3.5s2.2-1.4,3.6-1.4
		c1.4,0,2.6,0.5,3.6,1.4s1.4,2.1,1.4,3.5C753.9,121,753.4,122.2,752.5,123.2z M746.7,121.9c0.6,0.6,1.3,0.9,2.2,0.9s1.6-0.3,2.2-0.9
		c0.6-0.6,0.9-1.3,0.9-2.3c0-0.9-0.3-1.7-0.9-2.3c-0.6-0.6-1.3-0.9-2.2-0.9s-1.6,0.3-2.2,0.9c-0.6,0.6-0.9,1.3-0.9,2.3
		C745.8,120.6,746.1,121.3,746.7,121.9z"/>
	<path d="M761.3,114.7c1.3,0,2.4,0.4,3.3,1.3c0.9,0.9,1.4,2.1,1.4,3.5c0,1.5-0.5,2.7-1.4,3.6c-0.9,0.9-2,1.4-3.2,1.4
		s-2.3-0.5-3.2-1.6v4.9h-2v-13.1h2v1.7C759,115.3,760,114.7,761.3,114.7z M758.2,119.7c0,0.9,0.3,1.7,0.8,2.2s1.2,0.9,2,0.9
		s1.5-0.3,2.1-0.9s0.9-1.3,0.9-2.2c0-0.9-0.3-1.7-0.9-2.3s-1.3-0.9-2.1-0.9s-1.5,0.3-2,0.9S758.2,118.8,758.2,119.7z"/>
	<path d="M777.2,120.6h-7.5c0,0.7,0.4,1.3,1,1.7c0.6,0.4,1.3,0.6,2,0.6c1.2,0,2.1-0.4,2.7-1.1l1.2,1.3c-1,1.1-2.4,1.6-4,1.6
		c-1.3,0-2.5-0.4-3.4-1.3s-1.4-2.1-1.4-3.6s0.5-2.7,1.4-3.6c1-0.9,2.1-1.3,3.4-1.3s2.4,0.4,3.3,1.2c0.9,0.8,1.4,1.9,1.4,3.2V120.6z
		 M769.7,119h5.5c0-0.8-0.3-1.4-0.8-1.9c-0.5-0.4-1.1-0.6-1.9-0.6c-0.7,0-1.4,0.2-2,0.7C770,117.6,769.7,118.2,769.7,119z"/>
	<path d="M784.4,116.8c-1,0-1.7,0.3-2.2,1c-0.5,0.6-0.8,1.5-0.8,2.6v4.1h-2v-9.6h2v1.9c0.3-0.6,0.8-1.1,1.3-1.5
		c0.6-0.4,1.1-0.6,1.8-0.6l0,2C784.5,116.8,784.5,116.8,784.4,116.8z"/>
	<path d="M796,124.5h-2.3l-3.3-9.6h2.1l2.4,7.2l2.4-7.2h2.1l2.4,7.2l2.4-7.2h2.1l-3.3,9.6h-2.3l-2.3-6.6L796,124.5z"/>
	<path d="M808,113c-0.3-0.3-0.4-0.6-0.4-0.9s0.1-0.6,0.4-0.9s0.6-0.4,0.9-0.4c0.3,0,0.6,0.1,0.9,0.4s0.4,0.6,0.4,0.9
		s-0.1,0.6-0.4,0.9s-0.6,0.4-0.9,0.4C808.6,113.4,808.3,113.2,808,113z M809.9,124.5h-2v-9.6h2V124.5z"/>
	<path d="M815.3,116.5v4.9c0,0.5,0.1,0.8,0.4,1.1s0.6,0.4,1,0.4c0.4,0,0.8-0.2,1.2-0.6l0.8,1.4c-0.7,0.6-1.5,1-2.3,1
		c-0.9,0-1.6-0.3-2.2-0.9c-0.6-0.6-0.9-1.4-0.9-2.4v-4.8h-1.2v-1.6h1.2v-3h2v3h2.5v1.6H815.3z"/>
	<path d="M822.4,119.3v5.2h-2v-13.3h2v5.5c0.3-0.6,0.7-1,1.3-1.4s1.2-0.5,1.9-0.5c1.1,0,2,0.3,2.6,1c0.7,0.7,1,1.6,1,2.9v5.9h-2
		v-5.3c0-1.8-0.7-2.6-2.2-2.6c-0.7,0-1.3,0.2-1.8,0.7C822.6,117.7,822.4,118.4,822.4,119.3z"/>
	<path d="M838.9,119.3v5.2h-2v-9.6h2v1.7c0.3-0.6,0.7-1,1.3-1.4s1.2-0.5,1.9-0.5c1.5,0,2.5,0.6,3.1,1.9c0.9-1.2,2.1-1.9,3.5-1.9
		c1.1,0,2,0.3,2.6,1c0.7,0.7,1,1.6,1,2.9v5.9h-2v-5.3c0-1.8-0.7-2.6-2.2-2.6c-0.7,0-1.3,0.2-1.8,0.7c-0.5,0.4-0.8,1.1-0.8,1.9v5.3
		h-2v-5.3c0-0.9-0.2-1.6-0.5-2c-0.3-0.4-0.8-0.6-1.5-0.6c-0.7,0-1.3,0.2-1.8,0.7C839.2,117.7,838.9,118.4,838.9,119.3z"/>
	<path d="M863.2,123.2c-1,1-2.2,1.4-3.6,1.4c-1.4,0-2.6-0.5-3.6-1.4s-1.4-2.1-1.4-3.5c0-1.4,0.5-2.5,1.4-3.5s2.2-1.4,3.6-1.4
		c1.4,0,2.6,0.5,3.6,1.4s1.4,2.1,1.4,3.5C864.6,121,864.1,122.2,863.2,123.2z M857.4,121.9c0.6,0.6,1.3,0.9,2.2,0.9s1.6-0.3,2.2-0.9
		c0.6-0.6,0.9-1.3,0.9-2.3c0-0.9-0.3-1.7-0.9-2.3c-0.6-0.6-1.3-0.9-2.2-0.9s-1.6,0.3-2.2,0.9c-0.6,0.6-0.9,1.3-0.9,2.3
		C856.6,120.6,856.8,121.3,857.4,121.9z"/>
	<path d="M871.9,116.8c-1,0-1.7,0.3-2.2,1c-0.5,0.6-0.8,1.5-0.8,2.6v4.1h-2v-9.6h2v1.9c0.3-0.6,0.8-1.1,1.3-1.5
		c0.6-0.4,1.1-0.6,1.8-0.6l0,2C872,116.8,872,116.8,871.9,116.8z"/>
	<path d="M883,120.6h-7.5c0,0.7,0.4,1.3,1,1.7c0.6,0.4,1.3,0.6,2,0.6c1.2,0,2.1-0.4,2.7-1.1l1.2,1.3c-1,1.1-2.4,1.6-4,1.6
		c-1.3,0-2.5-0.4-3.4-1.3s-1.4-2.1-1.4-3.6s0.5-2.7,1.4-3.6c1-0.9,2.1-1.3,3.4-1.3s2.4,0.4,3.3,1.2c0.9,0.8,1.4,1.9,1.4,3.2V120.6z
		 M875.5,119h5.5c0-0.8-0.3-1.4-0.8-1.9c-0.5-0.4-1.1-0.6-1.9-0.6c-0.7,0-1.4,0.2-2,0.7C875.8,117.6,875.5,118.2,875.5,119z"/>
	<path d="M337.5,142.5v4.9c0,0.5,0.1,0.8,0.4,1.1c0.2,0.3,0.6,0.4,1,0.4s0.8-0.2,1.2-0.6l0.8,1.4c-0.7,0.6-1.5,1-2.3,1
		s-1.6-0.3-2.2-0.9c-0.6-0.6-0.9-1.4-0.9-2.4v-4.8h-1.2v-1.6h1.2v-3h2v3h2.5v1.6H337.5z"/>
	<path d="M344.6,145.3v5.2h-2v-13.3h2v5.5c0.3-0.6,0.7-1,1.3-1.4s1.2-0.5,1.9-0.5c1.1,0,2,0.3,2.6,1c0.7,0.7,1,1.6,1,2.9v5.9h-2
		v-5.3c0-1.8-0.7-2.6-2.2-2.6c-0.7,0-1.3,0.2-1.8,0.7C344.9,143.7,344.6,144.4,344.6,145.3z"/>
	<path d="M362,150.5h-1.8v-1.3c-0.8,0.9-1.9,1.4-3.2,1.4c-1,0-1.8-0.3-2.5-0.8c-0.7-0.6-1-1.3-1-2.3s0.3-1.6,1-2.1
		c0.7-0.5,1.6-0.7,2.8-0.7h2.6v-0.4c0-1.3-0.7-1.9-2.1-1.9c-0.9,0-1.8,0.3-2.8,1l-0.9-1.3c1.2-0.9,2.5-1.4,4-1.4
		c1.1,0,2,0.3,2.8,0.9c0.7,0.6,1.1,1.5,1.1,2.7V150.5z M359.9,146.9v-0.8h-2.3c-1.5,0-2.2,0.5-2.2,1.4c0,0.5,0.2,0.8,0.5,1.1
		c0.4,0.2,0.9,0.4,1.5,0.4s1.2-0.2,1.7-0.5S359.9,147.5,359.9,146.9z"/>
	<path d="M366.8,145.3v5.2h-2v-9.6h2v1.7c0.3-0.6,0.8-1,1.3-1.4s1.2-0.5,1.8-0.5c1.1,0,2,0.3,2.6,1c0.7,0.7,1,1.6,1,2.9v5.9h-2v-5.3
		c0-1.8-0.7-2.6-2.2-2.6c-0.7,0-1.3,0.2-1.8,0.7C367,143.7,366.8,144.4,366.8,145.3z"/>
	<path d="M382.6,138.6c0.8-0.6,1.8-1,3-1c1.2,0,2.2,0.3,3,1c0.8,0.6,1.2,1.4,1.2,2.4c0,1-0.5,1.8-1.4,2.6c1.2,0.8,1.8,1.8,1.8,3.2
		c0,1.1-0.4,2-1.3,2.7c-0.9,0.7-2,1.1-3.4,1.1c-1.4,0-2.5-0.4-3.4-1.1c-0.9-0.7-1.3-1.6-1.3-2.7c0-1.4,0.6-2.5,1.8-3.2
		c-0.9-0.7-1.4-1.6-1.4-2.6C381.4,140,381.8,139.2,382.6,138.6z M383.8,148.2c0.6,0.4,1.1,0.5,1.8,0.5c0.6,0,1.2-0.2,1.8-0.5
		c0.6-0.4,0.8-0.9,0.8-1.5c0-0.7-0.3-1.2-0.8-1.5c-0.5-0.4-1.1-0.5-1.8-0.5c-0.7,0-1.3,0.2-1.8,0.5c-0.5,0.4-0.8,0.9-0.8,1.5
		C383,147.4,383.3,147.9,383.8,148.2z M384,142.5c0.5,0.4,1,0.5,1.6,0.5c0.6,0,1.1-0.2,1.6-0.5c0.5-0.4,0.7-0.8,0.7-1.4
		s-0.2-1-0.7-1.3c-0.4-0.4-1-0.5-1.6-0.5c-0.6,0-1.1,0.2-1.6,0.5c-0.4,0.4-0.7,0.8-0.7,1.3S383.6,142.1,384,142.5z"/>
	<path d="M398.9,154.3c-0.9,0-1.7-0.3-2.4-1l0.9-1.6c0.4,0.4,0.9,0.6,1.3,0.6c0.4,0,0.8-0.2,1.1-0.5c0.3-0.3,0.4-0.7,0.4-1.1
		c0-0.2-1.3-3.4-3.9-9.8h2.2l2.9,7.1l2.9-7.1h2.2l-4.6,11.4c-0.3,0.6-0.7,1.1-1.2,1.5C400.1,154.1,399.5,154.3,398.9,154.3z"/>
	<path d="M417,146.6h-7.5c0,0.7,0.4,1.3,1,1.7c0.6,0.4,1.3,0.6,2,0.6c1.2,0,2.1-0.4,2.7-1.1l1.2,1.3c-1,1.1-2.4,1.6-4,1.6
		c-1.3,0-2.5-0.4-3.4-1.3s-1.4-2.1-1.4-3.6s0.5-2.7,1.4-3.6c1-0.9,2.1-1.3,3.4-1.3c1.3,0,2.4,0.4,3.3,1.2c0.9,0.8,1.4,1.9,1.4,3.2
		V146.6z M409.4,145h5.5c0-0.8-0.3-1.4-0.8-1.9c-0.5-0.4-1.1-0.6-1.9-0.6c-0.7,0-1.4,0.2-2,0.7C409.7,143.6,409.4,144.2,409.4,145z"
		/>
	<path d="M426.9,150.5h-1.8v-1.3c-0.8,0.9-1.9,1.4-3.2,1.4c-1,0-1.8-0.3-2.5-0.8c-0.7-0.6-1-1.3-1-2.3s0.3-1.6,1-2.1
		c0.7-0.5,1.6-0.7,2.8-0.7h2.6v-0.4c0-1.3-0.7-1.9-2.1-1.9c-0.9,0-1.8,0.3-2.8,1l-0.9-1.3c1.2-0.9,2.5-1.4,4-1.4
		c1.1,0,2,0.3,2.8,0.9c0.7,0.6,1.1,1.5,1.1,2.7V150.5z M424.9,146.9v-0.8h-2.3c-1.5,0-2.2,0.5-2.2,1.4c0,0.5,0.2,0.8,0.5,1.1
		c0.4,0.2,0.9,0.4,1.5,0.4s1.2-0.2,1.7-0.5S424.9,147.5,424.9,146.9z"/>
	<path d="M434.8,142.8c-1,0-1.7,0.3-2.2,1s-0.8,1.5-0.8,2.6v4.1h-2v-9.6h2v1.9c0.3-0.6,0.8-1.1,1.3-1.5c0.6-0.4,1.1-0.6,1.8-0.6l0,2
		C434.8,142.8,434.8,142.8,434.8,142.8z"/>
	<path d="M443.7,147.6c0,0.9-0.3,1.6-1,2.2c-0.7,0.5-1.5,0.8-2.5,0.8c-0.7,0-1.4-0.1-2.2-0.4s-1.4-0.6-2-1.1l1-1.6
		c1.1,0.8,2.2,1.3,3.2,1.3c0.5,0,0.8-0.1,1.1-0.3c0.3-0.2,0.4-0.5,0.4-0.8c0-0.5-0.6-0.9-1.9-1.3c-0.1,0-0.2-0.1-0.2-0.1
		c-2-0.5-3-1.4-3-2.7c0-0.9,0.3-1.6,1-2.1c0.7-0.5,1.6-0.8,2.7-0.8s2.1,0.3,3.1,1l-0.8,1.5c-0.8-0.5-1.6-0.8-2.5-0.8
		c-0.5,0-0.9,0.1-1.2,0.3c-0.3,0.2-0.5,0.4-0.5,0.8c0,0.3,0.2,0.5,0.5,0.7c0.2,0.1,0.5,0.2,0.9,0.3c0.4,0.1,0.7,0.2,1,0.3
		c0.3,0.1,0.6,0.2,0.9,0.3c0.3,0.1,0.6,0.3,0.9,0.5C443.4,146,443.7,146.7,443.7,147.6z"/>
	<path d="M458.9,149.2c-1,1-2.2,1.4-3.6,1.4s-2.6-0.5-3.6-1.4c-1-1-1.4-2.1-1.4-3.5c0-1.4,0.5-2.5,1.4-3.5c1-1,2.2-1.4,3.6-1.4
		s2.6,0.5,3.6,1.4s1.4,2.1,1.4,3.5C460.4,147,459.9,148.2,458.9,149.2z M453.2,147.9c0.6,0.6,1.3,0.9,2.2,0.9c0.9,0,1.6-0.3,2.2-0.9
		c0.6-0.6,0.9-1.3,0.9-2.3c0-0.9-0.3-1.7-0.9-2.3c-0.6-0.6-1.3-0.9-2.2-0.9c-0.9,0-1.6,0.3-2.2,0.9c-0.6,0.6-0.9,1.3-0.9,2.3
		C452.3,146.6,452.6,147.3,453.2,147.9z"/>
	<path d="M465,140.1v0.8h2.5v1.6H465v8h-2v-8h-1.2v-1.6h1.2v-0.7c0-1,0.3-1.8,0.9-2.4c0.6-0.6,1.3-0.9,2.2-0.9s1.6,0.3,2.3,1
		l-0.8,1.4c-0.4-0.4-0.8-0.6-1.2-0.6s-0.8,0.1-1,0.4S465,139.6,465,140.1z"/>
	<path d="M478.6,150.6c-1.3,0-2.5-0.5-3.4-1.4s-1.4-2.1-1.4-3.6c0-1.5,0.5-2.7,1.5-3.6c1-0.9,2.2-1.4,3.7-1.4c1.4,0,2.7,0.5,3.7,1.5
		l-1.2,1.5c-0.8-0.7-1.7-1.1-2.5-1.1s-1.6,0.3-2.2,0.8c-0.6,0.6-0.9,1.3-0.9,2.2s0.3,1.6,0.9,2.2c0.6,0.6,1.4,0.9,2.3,0.9
		c0.9,0,1.7-0.4,2.5-1.2l1.2,1.3C481.5,150,480.2,150.6,478.6,150.6z"/>
	<path d="M492.6,149.2c-1,1-2.2,1.4-3.6,1.4c-1.4,0-2.6-0.5-3.6-1.4s-1.4-2.1-1.4-3.5c0-1.4,0.5-2.5,1.4-3.5s2.2-1.4,3.6-1.4
		c1.4,0,2.6,0.5,3.6,1.4s1.4,2.1,1.4,3.5C494,147,493.5,148.2,492.6,149.2z M486.8,147.9c0.6,0.6,1.3,0.9,2.2,0.9s1.6-0.3,2.2-0.9
		c0.6-0.6,0.9-1.3,0.9-2.3c0-0.9-0.3-1.7-0.9-2.3c-0.6-0.6-1.3-0.9-2.2-0.9s-1.6,0.3-2.2,0.9c-0.6,0.6-0.9,1.3-0.9,2.3
		C485.9,146.6,486.2,147.3,486.8,147.9z"/>
	<path d="M498.3,145.3v5.2h-2v-9.6h2v1.7c0.3-0.6,0.8-1,1.3-1.4c0.6-0.3,1.2-0.5,1.8-0.5c1.1,0,2,0.3,2.6,1c0.7,0.7,1,1.6,1,2.9v5.9
		h-2v-5.3c0-1.8-0.7-2.6-2.2-2.6c-0.7,0-1.3,0.2-1.8,0.7C498.6,143.7,498.3,144.4,498.3,145.3z"/>
	<path d="M514.7,147.6c0,0.9-0.3,1.6-1,2.2s-1.5,0.8-2.5,0.8c-0.7,0-1.4-0.1-2.2-0.4s-1.4-0.6-2-1.1l1-1.6c1.1,0.8,2.2,1.3,3.2,1.3
		c0.5,0,0.8-0.1,1.1-0.3s0.4-0.5,0.4-0.8c0-0.5-0.6-0.9-1.9-1.3c-0.1,0-0.2-0.1-0.2-0.1c-2-0.5-3-1.4-3-2.7c0-0.9,0.3-1.6,1-2.1
		c0.7-0.5,1.6-0.8,2.7-0.8c1.1,0,2.1,0.3,3.1,1l-0.8,1.5c-0.8-0.5-1.6-0.8-2.5-0.8c-0.5,0-0.9,0.1-1.2,0.3c-0.3,0.2-0.5,0.4-0.5,0.8
		c0,0.3,0.2,0.5,0.5,0.7c0.2,0.1,0.5,0.2,0.9,0.3c0.4,0.1,0.7,0.2,1,0.3c0.3,0.1,0.6,0.2,0.9,0.3c0.3,0.1,0.6,0.3,0.9,0.5
		C514.4,146,514.7,146.7,514.7,147.6z"/>
	<path d="M519.5,142.5v4.9c0,0.5,0.1,0.8,0.4,1.1s0.6,0.4,1,0.4c0.4,0,0.8-0.2,1.2-0.6l0.8,1.4c-0.7,0.6-1.5,1-2.3,1
		c-0.9,0-1.6-0.3-2.2-0.9c-0.6-0.6-0.9-1.4-0.9-2.4v-4.8h-1.2v-1.6h1.2v-3h2v3h2.5v1.6H519.5z"/>
	<path d="M532.3,150.5h-1.8v-1.3c-0.8,0.9-1.9,1.4-3.2,1.4c-1,0-1.8-0.3-2.5-0.8c-0.7-0.6-1-1.3-1-2.3s0.3-1.6,1-2.1
		c0.7-0.5,1.6-0.7,2.8-0.7h2.6v-0.4c0-1.3-0.7-1.9-2.1-1.9c-0.9,0-1.8,0.3-2.8,1l-0.9-1.3c1.2-0.9,2.5-1.4,4-1.4
		c1.1,0,2,0.3,2.8,0.9c0.7,0.6,1.1,1.5,1.1,2.7V150.5z M530.3,146.9v-0.8H528c-1.5,0-2.2,0.5-2.2,1.4c0,0.5,0.2,0.8,0.5,1.1
		c0.4,0.2,0.9,0.4,1.5,0.4s1.2-0.2,1.7-0.5C530.1,148,530.3,147.5,530.3,146.9z"/>
	<path d="M537.1,145.3v5.2h-2v-9.6h2v1.7c0.3-0.6,0.8-1,1.3-1.4c0.6-0.3,1.2-0.5,1.8-0.5c1.1,0,2,0.3,2.6,1c0.7,0.7,1,1.6,1,2.9v5.9
		h-2v-5.3c0-1.8-0.7-2.6-2.2-2.6c-0.7,0-1.3,0.2-1.8,0.7C537.4,143.7,537.1,144.4,537.1,145.3z"/>
	<path d="M549.1,142.5v4.9c0,0.5,0.1,0.8,0.4,1.1s0.6,0.4,1,0.4c0.4,0,0.8-0.2,1.2-0.6l0.8,1.4c-0.7,0.6-1.5,1-2.3,1
		c-0.9,0-1.6-0.3-2.2-0.9c-0.6-0.6-0.9-1.4-0.9-2.4v-4.8h-1.2v-1.6h1.2v-3h2v3h2.5v1.6H549.1z"/>
	<path d="M561.1,145.3v5.2h-2v-13.3h2v5.5c0.3-0.6,0.7-1,1.3-1.4s1.2-0.5,1.9-0.5c1.1,0,2,0.3,2.6,1c0.7,0.7,1,1.6,1,2.9v5.9h-2
		v-5.3c0-1.8-0.7-2.6-2.2-2.6c-0.7,0-1.3,0.2-1.8,0.7C561.4,143.7,561.1,144.4,561.1,145.3z"/>
	<path d="M578.5,150.5h-1.8v-1.3c-0.8,0.9-1.9,1.4-3.2,1.4c-1,0-1.8-0.3-2.5-0.8c-0.7-0.6-1-1.3-1-2.3s0.3-1.6,1-2.1
		c0.7-0.5,1.6-0.7,2.8-0.7h2.6v-0.4c0-1.3-0.7-1.9-2.1-1.9c-0.9,0-1.8,0.3-2.8,1l-0.9-1.3c1.2-0.9,2.5-1.4,4-1.4
		c1.1,0,2,0.3,2.8,0.9c0.7,0.6,1.1,1.5,1.1,2.7V150.5z M576.5,146.9v-0.8h-2.3c-1.5,0-2.2,0.5-2.2,1.4c0,0.5,0.2,0.8,0.5,1.1
		c0.4,0.2,0.9,0.4,1.5,0.4s1.2-0.2,1.7-0.5C576.2,148,576.5,147.5,576.5,146.9z"/>
	<path d="M583.3,145.3v5.2h-2v-9.6h2v1.7c0.3-0.6,0.8-1,1.3-1.4c0.6-0.3,1.2-0.5,1.8-0.5c1.1,0,2,0.3,2.6,1c0.7,0.7,1,1.6,1,2.9v5.9
		h-2v-5.3c0-1.8-0.7-2.6-2.2-2.6c-0.7,0-1.3,0.2-1.8,0.7C583.5,143.7,583.3,144.4,583.3,145.3z"/>
	<path d="M593.6,149.2c-0.9-0.9-1.4-2.1-1.4-3.6c0-1.5,0.5-2.7,1.4-3.6c0.9-0.9,2-1.3,3.3-1.3s2.3,0.5,3.1,1.6v-5.3h2v13.4h-2V149
		c-0.7,1.1-1.8,1.6-3.3,1.6C595.6,150.6,594.5,150.1,593.6,149.2z M594.3,145.7c0,0.9,0.3,1.7,0.9,2.2s1.3,0.9,2.1,0.9
		s1.5-0.3,2-0.9c0.6-0.6,0.8-1.3,0.8-2.2c0-0.9-0.3-1.7-0.8-2.3c-0.6-0.6-1.2-0.9-2-0.9s-1.5,0.3-2.1,0.9
		C594.6,144,594.3,144.8,594.3,145.7z"/>
	<path d="M611.8,147.6c0,0.9-0.3,1.6-1,2.2s-1.5,0.8-2.5,0.8c-0.7,0-1.4-0.1-2.2-0.4s-1.4-0.6-2-1.1l1-1.6c1.1,0.8,2.2,1.3,3.2,1.3
		c0.5,0,0.8-0.1,1.1-0.3s0.4-0.5,0.4-0.8c0-0.5-0.6-0.9-1.9-1.3c-0.1,0-0.2-0.1-0.2-0.1c-2-0.5-3-1.4-3-2.7c0-0.9,0.3-1.6,1-2.1
		c0.7-0.5,1.6-0.8,2.7-0.8c1.1,0,2.1,0.3,3.1,1l-0.8,1.5c-0.8-0.5-1.6-0.8-2.5-0.8c-0.5,0-0.9,0.1-1.2,0.3c-0.3,0.2-0.5,0.4-0.5,0.8
		c0,0.3,0.2,0.5,0.5,0.7c0.2,0.1,0.5,0.2,0.9,0.3c0.4,0.1,0.7,0.2,1,0.3c0.3,0.1,0.6,0.2,0.9,0.3c0.3,0.1,0.6,0.3,0.9,0.5
		C611.5,146,611.8,146.7,611.8,147.6z"/>
	<path d="M613.9,146v-1.9h6v1.9H613.9z"/>
	<path d="M630.7,149.2c-1,1-2.2,1.4-3.6,1.4c-1.4,0-2.6-0.5-3.6-1.4s-1.4-2.1-1.4-3.5c0-1.4,0.5-2.5,1.4-3.5s2.2-1.4,3.6-1.4
		c1.4,0,2.6,0.5,3.6,1.4s1.4,2.1,1.4,3.5C632.1,147,631.6,148.2,630.7,149.2z M624.9,147.9c0.6,0.6,1.3,0.9,2.2,0.9s1.6-0.3,2.2-0.9
		c0.6-0.6,0.9-1.3,0.9-2.3c0-0.9-0.3-1.7-0.9-2.3c-0.6-0.6-1.3-0.9-2.2-0.9s-1.6,0.3-2.2,0.9c-0.6,0.6-0.9,1.3-0.9,2.3
		C624.1,146.6,624.3,147.3,624.9,147.9z"/>
	<path d="M636.4,145.3v5.2h-2v-9.6h2v1.7c0.3-0.6,0.8-1,1.3-1.4c0.6-0.3,1.2-0.5,1.8-0.5c1.1,0,2,0.3,2.6,1c0.7,0.7,1,1.6,1,2.9v5.9
		h-2v-5.3c0-1.8-0.7-2.6-2.2-2.6c-0.7,0-1.3,0.2-1.8,0.7C636.7,143.7,636.4,144.4,636.4,145.3z"/>
	<path d="M659,149.2c-1,1-2.2,1.4-3.6,1.4c-1.4,0-2.6-0.5-3.6-1.4s-1.4-2.1-1.4-3.5c0-1.4,0.5-2.5,1.4-3.5s2.2-1.4,3.6-1.4
		c1.4,0,2.6,0.5,3.6,1.4s1.4,2.1,1.4,3.5C660.4,147,659.9,148.2,659,149.2z M653.2,147.9c0.6,0.6,1.3,0.9,2.2,0.9s1.6-0.3,2.2-0.9
		c0.6-0.6,0.9-1.3,0.9-2.3c0-0.9-0.3-1.7-0.9-2.3c-0.6-0.6-1.3-0.9-2.2-0.9s-1.6,0.3-2.2,0.9c-0.6,0.6-0.9,1.3-0.9,2.3
		C652.4,146.6,652.6,147.3,653.2,147.9z"/>
	<path d="M664.7,145.3v5.2h-2v-9.6h2v1.7c0.3-0.6,0.8-1,1.3-1.4c0.6-0.3,1.2-0.5,1.8-0.5c1.1,0,2,0.3,2.6,1c0.7,0.7,1,1.6,1,2.9v5.9
		h-2v-5.3c0-1.8-0.7-2.6-2.2-2.6c-0.7,0-1.3,0.2-1.8,0.7C665,143.7,664.7,144.4,664.7,145.3z"/>
	<path d="M680,149.2c-0.9-0.9-1.4-2.1-1.4-3.6c0-1.5,0.5-2.7,1.4-3.6c0.9-0.9,2-1.3,3.3-1.3s2.3,0.5,3.1,1.6v-5.3h2v13.4h-2V149
		c-0.7,1.1-1.8,1.6-3.3,1.6C682,150.6,680.9,150.1,680,149.2z M680.7,145.7c0,0.9,0.3,1.7,0.9,2.2s1.3,0.9,2.1,0.9s1.5-0.3,2-0.9
		c0.6-0.6,0.8-1.3,0.8-2.2c0-0.9-0.3-1.7-0.8-2.3c-0.6-0.6-1.2-0.9-2-0.9s-1.5,0.3-2.1,0.9C681,144,680.7,144.8,680.7,145.7z"/>
	<path d="M691.5,139c-0.3-0.3-0.4-0.6-0.4-0.9s0.1-0.6,0.4-0.9s0.6-0.4,0.9-0.4c0.3,0,0.6,0.1,0.9,0.4s0.4,0.6,0.4,0.9
		s-0.1,0.6-0.4,0.9s-0.6,0.4-0.9,0.4C692,139.4,691.7,139.2,691.5,139z M693.4,150.5h-2v-9.6h2V150.5z"/>
	<path d="M698.8,140.1v0.8h2.5v1.6h-2.5v8h-2v-8h-1.2v-1.6h1.2v-0.7c0-1,0.3-1.8,0.9-2.4c0.6-0.6,1.3-0.9,2.2-0.9
		c0.9,0,1.6,0.3,2.3,1l-0.8,1.4c-0.4-0.4-0.8-0.6-1.2-0.6c-0.4,0-0.8,0.1-1,0.4S698.8,139.6,698.8,140.1z"/>
	<path d="M705.7,140.1v0.8h2.5v1.6h-2.5v8h-2v-8h-1.2v-1.6h1.2v-0.7c0-1,0.3-1.8,0.9-2.4c0.6-0.6,1.3-0.9,2.2-0.9
		c0.9,0,1.6,0.3,2.3,1l-0.8,1.4c-0.4-0.4-0.8-0.6-1.2-0.6c-0.4,0-0.8,0.1-1,0.4S705.7,139.6,705.7,140.1z"/>
	<path d="M719.1,146.6h-7.5c0,0.7,0.4,1.3,1,1.7c0.6,0.4,1.3,0.6,2,0.6c1.2,0,2.1-0.4,2.7-1.1l1.2,1.3c-1,1.1-2.4,1.6-4,1.6
		c-1.3,0-2.5-0.4-3.4-1.3s-1.4-2.1-1.4-3.6s0.5-2.7,1.4-3.6c1-0.9,2.1-1.3,3.4-1.3s2.4,0.4,3.3,1.2c0.9,0.8,1.4,1.9,1.4,3.2V146.6z
		 M711.6,145h5.5c0-0.8-0.3-1.4-0.8-1.9c-0.5-0.4-1.1-0.6-1.9-0.6c-0.7,0-1.4,0.2-2,0.7C711.9,143.6,711.6,144.2,711.6,145z"/>
	<path d="M726.3,142.8c-1,0-1.7,0.3-2.2,1c-0.5,0.6-0.8,1.5-0.8,2.6v4.1h-2v-9.6h2v1.9c0.3-0.6,0.8-1.1,1.3-1.5
		c0.6-0.4,1.1-0.6,1.8-0.6l0,2C726.4,142.8,726.4,142.8,726.3,142.8z"/>
	<path d="M737.4,146.6h-7.5c0,0.7,0.4,1.3,1,1.7c0.6,0.4,1.3,0.6,2,0.6c1.2,0,2.1-0.4,2.7-1.1l1.2,1.3c-1,1.1-2.4,1.6-4,1.6
		c-1.3,0-2.5-0.4-3.4-1.3s-1.4-2.1-1.4-3.6s0.5-2.7,1.4-3.6c1-0.9,2.1-1.3,3.4-1.3s2.4,0.4,3.3,1.2c0.9,0.8,1.4,1.9,1.4,3.2V146.6z
		 M729.9,145h5.5c0-0.8-0.3-1.4-0.8-1.9c-0.5-0.4-1.1-0.6-1.9-0.6c-0.7,0-1.4,0.2-2,0.7C730.2,143.6,729.9,144.2,729.9,145z"/>
	<path d="M741.6,145.3v5.2h-2v-9.6h2v1.7c0.3-0.6,0.8-1,1.3-1.4c0.6-0.3,1.2-0.5,1.8-0.5c1.1,0,2,0.3,2.6,1c0.7,0.7,1,1.6,1,2.9v5.9
		h-2v-5.3c0-1.8-0.7-2.6-2.2-2.6c-0.7,0-1.3,0.2-1.8,0.7C741.9,143.7,741.6,144.4,741.6,145.3z"/>
	<path d="M753.6,142.5v4.9c0,0.5,0.1,0.8,0.4,1.1s0.6,0.4,1,0.4c0.4,0,0.8-0.2,1.2-0.6l0.8,1.4c-0.7,0.6-1.5,1-2.3,1
		c-0.9,0-1.6-0.3-2.2-0.9c-0.6-0.6-0.9-1.4-0.9-2.4v-4.8h-1.2v-1.6h1.2v-3h2v3h2.5v1.6H753.6z"/>
	<path d="M765.6,150.5h-2v-13.4h2v7.8l3.9-4.1h2.6l-3.6,3.8l3.9,5.8h-2.4l-2.8-4.2l-1.5,1.5V150.5z"/>
	<path d="M774.1,139c-0.3-0.3-0.4-0.6-0.4-0.9s0.1-0.6,0.4-0.9s0.6-0.4,0.9-0.4c0.3,0,0.6,0.1,0.9,0.4s0.4,0.6,0.4,0.9
		s-0.1,0.6-0.4,0.9s-0.6,0.4-0.9,0.4C774.7,139.4,774.4,139.2,774.1,139z M776,150.5h-2v-9.6h2V150.5z"/>
	<path d="M780.9,145.3v5.2h-2v-9.6h2v1.7c0.3-0.6,0.8-1,1.3-1.4c0.6-0.3,1.2-0.5,1.8-0.5c1.1,0,2,0.3,2.6,1c0.7,0.7,1,1.6,1,2.9v5.9
		h-2v-5.3c0-1.8-0.7-2.6-2.2-2.6c-0.7,0-1.3,0.2-1.8,0.7C781.2,143.7,780.9,144.4,780.9,145.3z"/>
	<path d="M791.3,149.2c-0.9-0.9-1.4-2.1-1.4-3.6c0-1.5,0.5-2.7,1.4-3.6c0.9-0.9,2-1.3,3.3-1.3s2.3,0.5,3.1,1.6v-5.3h2v13.4h-2V149
		c-0.7,1.1-1.8,1.6-3.3,1.6C793.3,150.6,792.2,150.1,791.3,149.2z M792,145.7c0,0.9,0.3,1.7,0.9,2.2s1.3,0.9,2.1,0.9s1.5-0.3,2-0.9
		c0.6-0.6,0.8-1.3,0.8-2.2c0-0.9-0.3-1.7-0.8-2.3c-0.6-0.6-1.2-0.9-2-0.9s-1.5,0.3-2.1,0.9C792.3,144,792,144.8,792,145.7z"/>
	<path d="M815.6,149.2c-1,1-2.2,1.4-3.6,1.4c-1.4,0-2.6-0.5-3.6-1.4s-1.4-2.1-1.4-3.5c0-1.4,0.5-2.5,1.4-3.5s2.2-1.4,3.6-1.4
		c1.4,0,2.6,0.5,3.6,1.4s1.4,2.1,1.4,3.5C817,147,816.6,148.2,815.6,149.2z M809.8,147.9c0.6,0.6,1.3,0.9,2.2,0.9s1.6-0.3,2.2-0.9
		c0.6-0.6,0.9-1.3,0.9-2.3c0-0.9-0.3-1.7-0.9-2.3c-0.6-0.6-1.3-0.9-2.2-0.9s-1.6,0.3-2.2,0.9c-0.6,0.6-0.9,1.3-0.9,2.3
		C809,146.6,809.3,147.3,809.8,147.9z"/>
	<path d="M821.7,140.1v0.8h2.5v1.6h-2.5v8h-2v-8h-1.2v-1.6h1.2v-0.7c0-1,0.3-1.8,0.9-2.4c0.6-0.6,1.3-0.9,2.2-0.9
		c0.9,0,1.6,0.3,2.3,1l-0.8,1.4c-0.4-0.4-0.8-0.6-1.2-0.6c-0.4,0-0.8,0.1-1,0.4S821.7,139.6,821.7,140.1z"/>
	<path d="M836.2,140.7c1.3,0,2.4,0.4,3.3,1.3c0.9,0.9,1.4,2.1,1.4,3.5c0,1.5-0.5,2.7-1.4,3.6c-0.9,0.9-2,1.4-3.2,1.4
		s-2.3-0.5-3.2-1.6v4.9h-2v-13.1h2v1.7C833.9,141.3,834.9,140.7,836.2,140.7z M833,145.7c0,0.9,0.3,1.7,0.8,2.2s1.2,0.9,2,0.9
		s1.5-0.3,2.1-0.9s0.9-1.3,0.9-2.2c0-0.9-0.3-1.7-0.9-2.3s-1.3-0.9-2.1-0.9s-1.5,0.3-2,0.9S833,144.8,833,145.7z"/>
	<path d="M848.2,142.8c-1,0-1.7,0.3-2.2,1c-0.5,0.6-0.8,1.5-0.8,2.6v4.1h-2v-9.6h2v1.9c0.3-0.6,0.8-1.1,1.3-1.5
		c0.6-0.4,1.1-0.6,1.8-0.6l0,2C848.2,142.8,848.2,142.8,848.2,142.8z"/>
	<path d="M858.1,149.2c-1,1-2.2,1.4-3.6,1.4c-1.4,0-2.6-0.5-3.6-1.4s-1.4-2.1-1.4-3.5c0-1.4,0.5-2.5,1.4-3.5s2.2-1.4,3.6-1.4
		c1.4,0,2.6,0.5,3.6,1.4s1.4,2.1,1.4,3.5C859.6,147,859.1,148.2,858.1,149.2z M852.4,147.9c0.6,0.6,1.3,0.9,2.2,0.9s1.6-0.3,2.2-0.9
		c0.6-0.6,0.9-1.3,0.9-2.3c0-0.9-0.3-1.7-0.9-2.3c-0.6-0.6-1.3-0.9-2.2-0.9s-1.6,0.3-2.2,0.9c-0.6,0.6-0.9,1.3-0.9,2.3
		C851.5,146.6,851.8,147.3,852.4,147.9z"/>
	<path d="M861.9,150.9v-10h2V151c0,1-0.3,1.8-0.9,2.4c-0.6,0.6-1.3,0.9-2.2,0.9c-0.9,0-1.6-0.3-2.3-1l0.9-1.5
		c0.4,0.4,0.8,0.6,1.2,0.6c0.4,0,0.7-0.1,0.9-0.4S861.9,151.4,861.9,150.9z M861.9,139c-0.3-0.3-0.4-0.6-0.4-0.9s0.1-0.6,0.4-0.9
		s0.6-0.4,0.9-0.4c0.3,0,0.6,0.1,0.9,0.4s0.4,0.6,0.4,0.9s-0.1,0.6-0.4,0.9s-0.6,0.4-0.9,0.4C862.5,139.4,862.2,139.2,861.9,139z"/>
	<path d="M866.6,146v-1.9h6v1.9H866.6z"/>
	<path d="M344,172.6h-7.5c0,0.7,0.4,1.3,1,1.7c0.6,0.4,1.3,0.6,2,0.6c1.2,0,2.1-0.4,2.7-1.1l1.2,1.3c-1,1.1-2.4,1.6-4,1.6
		c-1.3,0-2.5-0.4-3.4-1.3s-1.4-2.1-1.4-3.6s0.5-2.7,1.4-3.6c1-0.9,2.1-1.3,3.4-1.3c1.3,0,2.4,0.4,3.3,1.2c0.9,0.8,1.4,1.9,1.4,3.2
		V172.6z M336.5,171h5.5c0-0.8-0.3-1.4-0.8-1.9c-0.5-0.4-1.1-0.6-1.9-0.6c-0.7,0-1.4,0.2-2,0.7C336.8,169.6,336.5,170.2,336.5,171z"
		/>
	<path d="M350.4,176.6c-1.3,0-2.5-0.5-3.4-1.4c-1-0.9-1.4-2.1-1.4-3.6c0-1.5,0.5-2.7,1.5-3.6c1-0.9,2.2-1.4,3.7-1.4s2.7,0.5,3.7,1.5
		l-1.2,1.5c-0.8-0.7-1.7-1.1-2.5-1.1c-0.8,0-1.6,0.3-2.2,0.8c-0.6,0.6-0.9,1.3-0.9,2.2s0.3,1.6,0.9,2.2c0.6,0.6,1.4,0.9,2.3,0.9
		s1.7-0.4,2.5-1.2l1.2,1.3C353.3,176,352,176.6,350.4,176.6z"/>
	<path d="M359,168.5v4.9c0,0.5,0.1,0.8,0.4,1.1c0.2,0.3,0.6,0.4,1,0.4s0.8-0.2,1.2-0.6l0.8,1.4c-0.7,0.6-1.5,1-2.3,1
		s-1.6-0.3-2.2-0.9c-0.6-0.6-0.9-1.4-0.9-2.4v-4.8h-1.2v-1.6h1.2v-3h2v3h2.5v1.6H359z"/>
	<path d="M370.9,173.6c0,0.9-0.3,1.6-1,2.2c-0.7,0.5-1.5,0.8-2.5,0.8c-0.7,0-1.4-0.1-2.2-0.4s-1.4-0.6-2-1.1l1-1.6
		c1.1,0.8,2.2,1.3,3.2,1.3c0.5,0,0.8-0.1,1.1-0.3c0.3-0.2,0.4-0.5,0.4-0.8c0-0.5-0.6-0.9-1.9-1.3c-0.1,0-0.2-0.1-0.2-0.1
		c-2-0.5-3-1.4-3-2.7c0-0.9,0.3-1.6,1-2.1c0.7-0.5,1.6-0.8,2.7-0.8s2.1,0.3,3.1,1l-0.8,1.5c-0.8-0.5-1.6-0.8-2.5-0.8
		c-0.5,0-0.9,0.1-1.2,0.3c-0.3,0.2-0.5,0.4-0.5,0.8c0,0.3,0.2,0.5,0.5,0.7c0.2,0.1,0.5,0.2,0.9,0.3c0.4,0.1,0.7,0.2,1,0.3
		c0.3,0.1,0.6,0.2,0.9,0.3c0.3,0.1,0.6,0.3,0.9,0.5C370.6,172,370.9,172.7,370.9,173.6z"/>
	<path d="M373.3,176.2c-0.3-0.3-0.4-0.6-0.4-1c0-0.4,0.1-0.7,0.4-0.9c0.3-0.3,0.6-0.4,0.9-0.4c0.4,0,0.7,0.1,1,0.4
		c0.3,0.3,0.4,0.6,0.4,0.9c0,0.4-0.1,0.7-0.4,1c-0.3,0.3-0.6,0.4-1,0.4C373.9,176.6,373.6,176.5,373.3,176.2z"/>
	<path d="M383.4,163.9h2.1v12.6h-2.1V163.9z"/>
	<path d="M388.6,165.9c-0.3-0.2-0.5-0.5-0.5-0.9s0.1-0.7,0.3-0.9c0.2-0.2,0.5-0.3,0.8-0.3c0.3,0,0.6,0.1,0.8,0.3s0.3,0.5,0.3,0.8
		c0,0.3-0.1,0.7-0.3,1l-1.1,1.5h-1.1L388.6,165.9z"/>
	<path d="M395.2,176.5l-3.9-9.6h2.1l2.9,7.2l2.9-7.2h2.1l-3.9,9.6H395.2z"/>
	<path d="M411.9,172.6h-7.5c0,0.7,0.4,1.3,1,1.7c0.6,0.4,1.3,0.6,2,0.6c1.2,0,2.1-0.4,2.7-1.1l1.2,1.3c-1,1.1-2.4,1.6-4,1.6
		c-1.3,0-2.5-0.4-3.4-1.3s-1.4-2.1-1.4-3.6s0.5-2.7,1.4-3.6c1-0.9,2.1-1.3,3.4-1.3c1.3,0,2.4,0.4,3.3,1.2c0.9,0.8,1.4,1.9,1.4,3.2
		V172.6z M404.4,171h5.5c0-0.8-0.3-1.4-0.8-1.9c-0.5-0.4-1.1-0.6-1.9-0.6c-0.7,0-1.4,0.2-2,0.7C404.7,169.6,404.4,170.2,404.4,171z"
		/>
	<path d="M421.5,166.1v0.8h2.5v1.6h-2.5v8h-2v-8h-1.2v-1.6h1.2v-0.7c0-1,0.3-1.8,0.9-2.4c0.6-0.6,1.3-0.9,2.2-0.9s1.6,0.3,2.3,1
		l-0.8,1.4c-0.4-0.4-0.8-0.6-1.2-0.6s-0.8,0.1-1,0.4C421.6,165.3,421.5,165.6,421.5,166.1z"/>
	<path d="M433.7,175.2c-1,1-2.2,1.4-3.6,1.4s-2.6-0.5-3.6-1.4c-1-1-1.4-2.1-1.4-3.5c0-1.4,0.5-2.5,1.4-3.5c1-1,2.2-1.4,3.6-1.4
		s2.6,0.5,3.6,1.4s1.4,2.1,1.4,3.5C435.2,173,434.7,174.2,433.7,175.2z M428,173.9c0.6,0.6,1.3,0.9,2.2,0.9c0.9,0,1.6-0.3,2.2-0.9
		c0.6-0.6,0.9-1.3,0.9-2.3c0-0.9-0.3-1.7-0.9-2.3c-0.6-0.6-1.3-0.9-2.2-0.9c-0.9,0-1.6,0.3-2.2,0.9c-0.6,0.6-0.9,1.3-0.9,2.3
		C427.1,172.6,427.4,173.3,428,173.9z"/>
	<path d="M442.5,168.8c-1,0-1.7,0.3-2.2,1s-0.8,1.5-0.8,2.6v4.1h-2v-9.6h2v1.9c0.3-0.6,0.8-1.1,1.3-1.5c0.6-0.4,1.1-0.6,1.8-0.6l0,2
		C442.6,168.8,442.5,168.8,442.5,168.8z"/>
	<path d="M446.6,171.3v5.2h-2v-9.6h2v1.7c0.3-0.6,0.7-1,1.3-1.4s1.2-0.5,1.9-0.5c1.5,0,2.5,0.6,3.1,1.9c0.9-1.2,2.1-1.9,3.5-1.9
		c1.1,0,2,0.3,2.6,1c0.7,0.7,1,1.6,1,2.9v5.9h-2v-5.3c0-1.8-0.7-2.6-2.2-2.6c-0.7,0-1.3,0.2-1.8,0.7c-0.5,0.4-0.8,1.1-0.8,1.9v5.3
		h-2v-5.3c0-0.9-0.2-1.6-0.5-2c-0.3-0.4-0.8-0.6-1.5-0.6s-1.3,0.2-1.8,0.7C446.9,169.7,446.6,170.4,446.6,171.3z"/>
	<path d="M471.8,172.6h-7.5c0,0.7,0.4,1.3,1,1.7c0.6,0.4,1.3,0.6,2,0.6c1.2,0,2.1-0.4,2.7-1.1l1.2,1.3c-1,1.1-2.4,1.6-4,1.6
		c-1.3,0-2.5-0.4-3.4-1.3s-1.4-2.1-1.4-3.6s0.5-2.7,1.4-3.6c1-0.9,2.1-1.3,3.4-1.3s2.4,0.4,3.3,1.2c0.9,0.8,1.4,1.9,1.4,3.2V172.6z
		 M464.3,171h5.5c0-0.8-0.3-1.4-0.8-1.9c-0.5-0.4-1.1-0.6-1.9-0.6c-0.7,0-1.4,0.2-2,0.7C464.6,169.6,464.3,170.2,464.3,171z"/>
	<path d="M476,176.5h-2v-13.4h2V176.5z"/>
	<path d="M480.1,180.3c-0.9,0-1.7-0.3-2.4-1l0.9-1.6c0.4,0.4,0.9,0.6,1.3,0.6s0.8-0.2,1.1-0.5c0.3-0.3,0.4-0.7,0.4-1.1
		c0-0.2-1.3-3.4-3.9-9.8h2.2l2.9,7.1l2.9-7.1h2.2l-4.6,11.4c-0.3,0.6-0.7,1.1-1.2,1.5C481.3,180.1,480.8,180.3,480.1,180.3z"/>
	<path d="M498.7,176.5h-2.3l-3.3-9.6h2.1l2.4,7.2l2.4-7.2h2.1l2.4,7.2l2.4-7.2h2.1l-3.3,9.6h-2.3l-2.3-6.6L498.7,176.5z"/>
	<path d="M518.5,175.2c-1,1-2.2,1.4-3.6,1.4c-1.4,0-2.6-0.5-3.6-1.4s-1.4-2.1-1.4-3.5c0-1.4,0.5-2.5,1.4-3.5s2.2-1.4,3.6-1.4
		c1.4,0,2.6,0.5,3.6,1.4s1.4,2.1,1.4,3.5C519.9,173,519.5,174.2,518.5,175.2z M512.7,173.9c0.6,0.6,1.3,0.9,2.2,0.9s1.6-0.3,2.2-0.9
		c0.6-0.6,0.9-1.3,0.9-2.3c0-0.9-0.3-1.7-0.9-2.3c-0.6-0.6-1.3-0.9-2.2-0.9s-1.6,0.3-2.2,0.9c-0.6,0.6-0.9,1.3-0.9,2.3
		C511.9,172.6,512.2,173.3,512.7,173.9z"/>
	<path d="M527.2,168.8c-1,0-1.7,0.3-2.2,1c-0.5,0.6-0.8,1.5-0.8,2.6v4.1h-2v-9.6h2v1.9c0.3-0.6,0.8-1.1,1.3-1.5
		c0.6-0.4,1.1-0.6,1.8-0.6l0,2C527.3,168.8,527.3,168.8,527.2,168.8z"/>
	<path d="M531.4,176.5h-2v-13.4h2v7.8l3.9-4.1h2.6l-3.6,3.8l3.9,5.8h-2.4l-2.8-4.2l-1.5,1.5V176.5z"/>
	<path d="M548.7,172.6h-7.5c0,0.7,0.4,1.3,1,1.7c0.6,0.4,1.3,0.6,2,0.6c1.2,0,2.1-0.4,2.7-1.1l1.2,1.3c-1,1.1-2.4,1.6-4,1.6
		c-1.3,0-2.5-0.4-3.4-1.3s-1.4-2.1-1.4-3.6s0.5-2.7,1.4-3.6c1-0.9,2.1-1.3,3.4-1.3s2.4,0.4,3.3,1.2c0.9,0.8,1.4,1.9,1.4,3.2V172.6z
		 M541.2,171h5.5c0-0.8-0.3-1.4-0.8-1.9c-0.5-0.4-1.1-0.6-1.9-0.6c-0.7,0-1.4,0.2-2,0.7C541.5,169.6,541.2,170.2,541.2,171z"/>
	<path d="M551.7,175.2c-0.9-0.9-1.4-2.1-1.4-3.6c0-1.5,0.5-2.7,1.4-3.6c0.9-0.9,2-1.3,3.3-1.3s2.3,0.5,3.1,1.6v-5.3h2v13.4h-2V175
		c-0.7,1.1-1.8,1.6-3.3,1.6C553.6,176.6,552.6,176.1,551.7,175.2z M552.3,171.7c0,0.9,0.3,1.7,0.9,2.2s1.3,0.9,2.1,0.9
		s1.5-0.3,2-0.9c0.6-0.6,0.8-1.3,0.8-2.2c0-0.9-0.3-1.7-0.8-2.3c-0.6-0.6-1.2-0.9-2-0.9s-1.5,0.3-2.1,0.9
		C552.6,170,552.3,170.8,552.3,171.7z"/>
	<path d="M573,168.8c-1,0-1.7,0.3-2.2,1c-0.5,0.6-0.8,1.5-0.8,2.6v4.1h-2v-9.6h2v1.9c0.3-0.6,0.8-1.1,1.3-1.5
		c0.6-0.4,1.1-0.6,1.8-0.6l0,2C573.1,168.8,573,168.8,573,168.8z"/>
	<path d="M584,172.6h-7.5c0,0.7,0.4,1.3,1,1.7c0.6,0.4,1.3,0.6,2,0.6c1.2,0,2.1-0.4,2.7-1.1l1.2,1.3c-1,1.1-2.4,1.6-4,1.6
		c-1.3,0-2.5-0.4-3.4-1.3s-1.4-2.1-1.4-3.6s0.5-2.7,1.4-3.6c1-0.9,2.1-1.3,3.4-1.3s2.4,0.4,3.3,1.2c0.9,0.8,1.4,1.9,1.4,3.2V172.6z
		 M576.5,171h5.5c0-0.8-0.3-1.4-0.8-1.9c-0.5-0.4-1.1-0.6-1.9-0.6c-0.7,0-1.4,0.2-2,0.7C576.8,169.6,576.5,170.2,576.5,171z"/>
	<path d="M588.3,171.3v5.2h-2v-9.6h2v1.7c0.3-0.6,0.7-1,1.3-1.4s1.2-0.5,1.9-0.5c1.5,0,2.5,0.6,3.1,1.9c0.9-1.2,2.1-1.9,3.5-1.9
		c1.1,0,2,0.3,2.6,1c0.7,0.7,1,1.6,1,2.9v5.9h-2v-5.3c0-1.8-0.7-2.6-2.2-2.6c-0.7,0-1.3,0.2-1.8,0.7c-0.5,0.4-0.8,1.1-0.8,1.9v5.3
		h-2v-5.3c0-0.9-0.2-1.6-0.5-2c-0.3-0.4-0.8-0.6-1.5-0.6c-0.7,0-1.3,0.2-1.8,0.7C588.5,169.7,588.3,170.4,588.3,171.3z"/>
	<path d="M612.5,175.2c-1,1-2.2,1.4-3.6,1.4c-1.4,0-2.6-0.5-3.6-1.4s-1.4-2.1-1.4-3.5c0-1.4,0.5-2.5,1.4-3.5s2.2-1.4,3.6-1.4
		c1.4,0,2.6,0.5,3.6,1.4s1.4,2.1,1.4,3.5C613.9,173,613.5,174.2,612.5,175.2z M606.7,173.9c0.6,0.6,1.3,0.9,2.2,0.9s1.6-0.3,2.2-0.9
		c0.6-0.6,0.9-1.3,0.9-2.3c0-0.9-0.3-1.7-0.9-2.3c-0.6-0.6-1.3-0.9-2.2-0.9s-1.6,0.3-2.2,0.9c-0.6,0.6-0.9,1.3-0.9,2.3
		C605.9,172.6,606.2,173.3,606.7,173.9z"/>
	<path d="M618.6,168.5v4.9c0,0.5,0.1,0.8,0.4,1.1s0.6,0.4,1,0.4c0.4,0,0.8-0.2,1.2-0.6l0.8,1.4c-0.7,0.6-1.5,1-2.3,1
		c-0.9,0-1.6-0.3-2.2-0.9c-0.6-0.6-0.9-1.4-0.9-2.4v-4.8h-1.2v-1.6h1.2v-3h2v3h2.5v1.6H618.6z"/>
	<path d="M632.5,172.6H625c0,0.7,0.4,1.3,1,1.7c0.6,0.4,1.3,0.6,2,0.6c1.2,0,2.1-0.4,2.7-1.1l1.2,1.3c-1,1.1-2.4,1.6-4,1.6
		c-1.3,0-2.5-0.4-3.4-1.3s-1.4-2.1-1.4-3.6s0.5-2.7,1.4-3.6c1-0.9,2.1-1.3,3.4-1.3s2.4,0.4,3.3,1.2c0.9,0.8,1.4,1.9,1.4,3.2V172.6z
		 M625,171h5.5c0-0.8-0.3-1.4-0.8-1.9c-0.5-0.4-1.1-0.6-1.9-0.6c-0.7,0-1.4,0.2-2,0.7C625.3,169.6,625,170.2,625,171z"/>
	<path d="M636.7,176.5h-2v-13.4h2V176.5z"/>
	<path d="M640.9,180.3c-0.9,0-1.7-0.3-2.4-1l0.9-1.6c0.4,0.4,0.9,0.6,1.3,0.6s0.8-0.2,1.1-0.5c0.3-0.3,0.4-0.7,0.4-1.1
		c0-0.2-1.3-3.4-3.9-9.8h2.2l2.9,7.1l2.9-7.1h2.2l-4.6,11.4c-0.3,0.6-0.7,1.1-1.2,1.5C642.1,180.1,641.5,180.3,640.9,180.3z"/>
	<path d="M657.4,166.1v0.8h2.5v1.6h-2.5v8h-2v-8h-1.2v-1.6h1.2v-0.7c0-1,0.3-1.8,0.9-2.4c0.6-0.6,1.3-0.9,2.2-0.9
		c0.9,0,1.6,0.3,2.3,1l-0.8,1.4c-0.4-0.4-0.8-0.6-1.2-0.6c-0.4,0-0.8,0.1-1,0.4S657.4,165.6,657.4,166.1z"/>
	<path d="M669.7,175.2c-1,1-2.2,1.4-3.6,1.4c-1.4,0-2.6-0.5-3.6-1.4s-1.4-2.1-1.4-3.5c0-1.4,0.5-2.5,1.4-3.5s2.2-1.4,3.6-1.4
		c1.4,0,2.6,0.5,3.6,1.4s1.4,2.1,1.4,3.5C671.1,173,670.6,174.2,669.7,175.2z M663.9,173.9c0.6,0.6,1.3,0.9,2.2,0.9s1.6-0.3,2.2-0.9
		c0.6-0.6,0.9-1.3,0.9-2.3c0-0.9-0.3-1.7-0.9-2.3c-0.6-0.6-1.3-0.9-2.2-0.9s-1.6,0.3-2.2,0.9c-0.6,0.6-0.9,1.3-0.9,2.3
		C663,172.6,663.3,173.3,663.9,173.9z"/>
	<path d="M678.4,168.8c-1,0-1.7,0.3-2.2,1c-0.5,0.6-0.8,1.5-0.8,2.6v4.1h-2v-9.6h2v1.9c0.3-0.6,0.8-1.1,1.3-1.5
		c0.6-0.4,1.1-0.6,1.8-0.6l0,2C678.5,168.8,678.4,168.8,678.4,168.8z"/>
	<path d="M687.5,171.3v5.2h-2v-9.6h2v1.7c0.3-0.6,0.7-1,1.3-1.4s1.2-0.5,1.9-0.5c1.5,0,2.5,0.6,3.1,1.9c0.9-1.2,2.1-1.9,3.5-1.9
		c1.1,0,2,0.3,2.6,1c0.7,0.7,1,1.6,1,2.9v5.9h-2v-5.3c0-1.8-0.7-2.6-2.2-2.6c-0.7,0-1.3,0.2-1.8,0.7c-0.5,0.4-0.8,1.1-0.8,1.9v5.3
		h-2v-5.3c0-0.9-0.2-1.6-0.5-2c-0.3-0.4-0.8-0.6-1.5-0.6c-0.7,0-1.3,0.2-1.8,0.7C687.7,169.7,687.5,170.4,687.5,171.3z"/>
	<path d="M711.5,176.5h-1.8v-1.3c-0.8,0.9-1.9,1.4-3.2,1.4c-1,0-1.8-0.3-2.5-0.8c-0.7-0.6-1-1.3-1-2.3s0.3-1.6,1-2.1
		c0.7-0.5,1.6-0.7,2.8-0.7h2.6v-0.4c0-1.3-0.7-1.9-2.1-1.9c-0.9,0-1.8,0.3-2.8,1l-0.9-1.3c1.2-0.9,2.5-1.4,4-1.4
		c1.1,0,2,0.3,2.8,0.9c0.7,0.6,1.1,1.5,1.1,2.7V176.5z M709.5,172.9v-0.8h-2.3c-1.5,0-2.2,0.5-2.2,1.4c0,0.5,0.2,0.8,0.5,1.1
		c0.4,0.2,0.9,0.4,1.5,0.4s1.2-0.2,1.7-0.5C709.2,174,709.5,173.5,709.5,172.9z"/>
	<path d="M716.3,171.3v5.2h-2v-9.6h2v1.7c0.3-0.6,0.8-1,1.3-1.4c0.6-0.3,1.2-0.5,1.8-0.5c1.1,0,2,0.3,2.6,1c0.7,0.7,1,1.6,1,2.9v5.9
		h-2v-5.3c0-1.8-0.7-2.6-2.2-2.6c-0.7,0-1.3,0.2-1.8,0.7C716.5,169.7,716.3,170.4,716.3,171.3z"/>
	<path d="M727,180.3c-0.9,0-1.7-0.3-2.4-1l0.9-1.6c0.4,0.4,0.9,0.6,1.3,0.6s0.8-0.2,1.1-0.5c0.3-0.3,0.4-0.7,0.4-1.1
		c0-0.2-1.3-3.4-3.9-9.8h2.2l2.9,7.1l2.9-7.1h2.2l-4.6,11.4c-0.3,0.6-0.7,1.1-1.2,1.5C728.2,180.1,727.6,180.3,727,180.3z"/>
	<path d="M741.8,175.2c-0.9-0.9-1.4-2.1-1.4-3.6c0-1.5,0.5-2.7,1.4-3.6c0.9-0.9,2-1.3,3.3-1.3s2.3,0.5,3.1,1.6v-5.3h2v13.4h-2V175
		c-0.7,1.1-1.8,1.6-3.3,1.6C743.7,176.6,742.7,176.1,741.8,175.2z M742.4,171.7c0,0.9,0.3,1.7,0.9,2.2s1.3,0.9,2.1,0.9
		s1.5-0.3,2-0.9c0.6-0.6,0.8-1.3,0.8-2.2c0-0.9-0.3-1.7-0.8-2.3c-0.6-0.6-1.2-0.9-2-0.9s-1.5,0.3-2.1,0.9
		C742.7,170,742.4,170.8,742.4,171.7z"/>
	<path d="M753.3,165c-0.3-0.3-0.4-0.6-0.4-0.9s0.1-0.6,0.4-0.9s0.6-0.4,0.9-0.4c0.3,0,0.6,0.1,0.9,0.4s0.4,0.6,0.4,0.9
		s-0.1,0.6-0.4,0.9s-0.6,0.4-0.9,0.4C753.8,165.4,753.5,165.2,753.3,165z M755.2,176.5h-2v-9.6h2V176.5z"/>
	<path d="M766.9,166.9v8.4c0,1.7-0.5,3-1.4,3.8c-0.9,0.8-2.1,1.3-3.5,1.3c-1.4,0-2.7-0.5-3.9-1.4l1-1.5c0.9,0.7,1.9,1.1,2.8,1.1
		s1.7-0.2,2.3-0.7c0.6-0.5,0.8-1.3,0.8-2.4v-1.2c-0.3,0.6-0.7,1-1.3,1.4c-0.6,0.3-1.2,0.5-1.9,0.5c-1.3,0-2.3-0.4-3.1-1.3
		c-0.8-0.9-1.2-2-1.2-3.3c0-1.3,0.4-2.4,1.2-3.3c0.8-0.9,1.9-1.3,3.1-1.3c1.3,0,2.3,0.5,3.1,1.6v-1.4H766.9z M759.5,171.3
		c0,0.8,0.2,1.5,0.7,2c0.5,0.6,1.1,0.9,2,0.9c0.8,0,1.5-0.3,2-0.8c0.5-0.6,0.8-1.2,0.8-2.1c0-0.8-0.3-1.5-0.8-2.1
		c-0.5-0.6-1.2-0.9-2-0.9c-0.8,0-1.5,0.3-2,0.9C759.7,169.8,759.5,170.5,759.5,171.3z"/>
	<path d="M770,165c-0.3-0.3-0.4-0.6-0.4-0.9s0.1-0.6,0.4-0.9s0.6-0.4,0.9-0.4c0.3,0,0.6,0.1,0.9,0.4s0.4,0.6,0.4,0.9
		s-0.1,0.6-0.4,0.9s-0.6,0.4-0.9,0.4C770.5,165.4,770.2,165.2,770,165z M771.9,176.5h-2v-9.6h2V176.5z"/>
	<path d="M777.3,168.5v4.9c0,0.5,0.1,0.8,0.4,1.1s0.6,0.4,1,0.4c0.4,0,0.8-0.2,1.2-0.6l0.8,1.4c-0.7,0.6-1.5,1-2.3,1
		c-0.9,0-1.6-0.3-2.2-0.9c-0.6-0.6-0.9-1.4-0.9-2.4v-4.8H774v-1.6h1.2v-3h2v3h2.5v1.6H777.3z"/>
	<path d="M790.1,176.5h-1.8v-1.3c-0.8,0.9-1.9,1.4-3.2,1.4c-1,0-1.8-0.3-2.5-0.8c-0.7-0.6-1-1.3-1-2.3s0.3-1.6,1-2.1
		c0.7-0.5,1.6-0.7,2.8-0.7h2.6v-0.4c0-1.3-0.7-1.9-2.1-1.9c-0.9,0-1.8,0.3-2.8,1l-0.9-1.3c1.2-0.9,2.5-1.4,4-1.4
		c1.1,0,2,0.3,2.8,0.9c0.7,0.6,1.1,1.5,1.1,2.7V176.5z M788,172.9v-0.8h-2.3c-1.5,0-2.2,0.5-2.2,1.4c0,0.5,0.2,0.8,0.5,1.1
		c0.4,0.2,0.9,0.4,1.5,0.4s1.2-0.2,1.7-0.5C787.8,174,788,173.5,788,172.9z"/>
	<path d="M794.9,176.5h-2v-13.4h2V176.5z"/>
	<path d="M810.5,176.5h-1.8v-1.3c-0.8,0.9-1.9,1.4-3.2,1.4c-1,0-1.8-0.3-2.5-0.8c-0.7-0.6-1-1.3-1-2.3s0.3-1.6,1-2.1
		c0.7-0.5,1.6-0.7,2.8-0.7h2.6v-0.4c0-1.3-0.7-1.9-2.1-1.9c-0.9,0-1.8,0.3-2.8,1l-0.9-1.3c1.2-0.9,2.5-1.4,4-1.4
		c1.1,0,2,0.3,2.8,0.9c0.7,0.6,1.1,1.5,1.1,2.7V176.5z M808.5,172.9v-0.8h-2.3c-1.5,0-2.2,0.5-2.2,1.4c0,0.5,0.2,0.8,0.5,1.1
		c0.4,0.2,0.9,0.4,1.5,0.4s1.2-0.2,1.7-0.5C808.2,174,808.5,173.5,808.5,172.9z"/>
	<path d="M822.1,166.9v8.4c0,1.7-0.5,3-1.4,3.8c-0.9,0.8-2.1,1.3-3.5,1.3c-1.4,0-2.7-0.5-3.9-1.4l1-1.5c0.9,0.7,1.9,1.1,2.8,1.1
		s1.7-0.2,2.3-0.7c0.6-0.5,0.8-1.3,0.8-2.4v-1.2c-0.3,0.6-0.7,1-1.3,1.4c-0.6,0.3-1.2,0.5-1.9,0.5c-1.3,0-2.3-0.4-3.1-1.3
		c-0.8-0.9-1.2-2-1.2-3.3c0-1.3,0.4-2.4,1.2-3.3c0.8-0.9,1.9-1.3,3.1-1.3c1.3,0,2.3,0.5,3.1,1.6v-1.4H822.1z M814.7,171.3
		c0,0.8,0.2,1.5,0.7,2c0.5,0.6,1.1,0.9,2,0.9c0.8,0,1.5-0.3,2-0.8c0.5-0.6,0.8-1.2,0.8-2.1c0-0.8-0.3-1.5-0.8-2.1
		c-0.5-0.6-1.2-0.9-2-0.9c-0.8,0-1.5,0.3-2,0.9C814.9,169.8,814.7,170.5,814.7,171.3z"/>
	<path d="M834,172.6h-7.5c0,0.7,0.4,1.3,1,1.7c0.6,0.4,1.3,0.6,2,0.6c1.2,0,2.1-0.4,2.7-1.1l1.2,1.3c-1,1.1-2.4,1.6-4,1.6
		c-1.3,0-2.5-0.4-3.4-1.3s-1.4-2.1-1.4-3.6s0.5-2.7,1.4-3.6c1-0.9,2.1-1.3,3.4-1.3s2.4,0.4,3.3,1.2c0.9,0.8,1.4,1.9,1.4,3.2V172.6z
		 M826.5,171h5.5c0-0.8-0.3-1.4-0.8-1.9c-0.5-0.4-1.1-0.6-1.9-0.6c-0.7,0-1.4,0.2-2,0.7C826.8,169.6,826.5,170.2,826.5,171z"/>
	<path d="M838.2,171.3v5.2h-2v-9.6h2v1.7c0.3-0.6,0.8-1,1.3-1.4c0.6-0.3,1.2-0.5,1.8-0.5c1.1,0,2,0.3,2.6,1c0.7,0.7,1,1.6,1,2.9v5.9
		h-2v-5.3c0-1.8-0.7-2.6-2.2-2.6c-0.7,0-1.3,0.2-1.8,0.7C838.5,169.7,838.2,170.4,838.2,171.3z"/>
	<path d="M852.1,176.6c-1.3,0-2.5-0.5-3.4-1.4s-1.4-2.1-1.4-3.6c0-1.5,0.5-2.7,1.5-3.6c1-0.9,2.2-1.4,3.7-1.4c1.4,0,2.7,0.5,3.7,1.5
		l-1.2,1.5c-0.8-0.7-1.7-1.1-2.5-1.1s-1.6,0.3-2.2,0.8c-0.6,0.6-0.9,1.3-0.9,2.2s0.3,1.6,0.9,2.2c0.6,0.6,1.4,0.9,2.3,0.9
		c0.9,0,1.7-0.4,2.5-1.2l1.2,1.3C854.9,176,853.6,176.6,852.1,176.6z"/>
	<path d="M858.3,165c-0.3-0.3-0.4-0.6-0.4-0.9s0.1-0.6,0.4-0.9s0.6-0.4,0.9-0.4c0.3,0,0.6,0.1,0.9,0.4s0.4,0.6,0.4,0.9
		s-0.1,0.6-0.4,0.9s-0.6,0.4-0.9,0.4C858.9,165.4,858.6,165.2,858.3,165z M860.2,176.5h-2v-9.6h2V176.5z"/>
	<path d="M872,172.6h-7.5c0,0.7,0.4,1.3,1,1.7c0.6,0.4,1.3,0.6,2,0.6c1.2,0,2.1-0.4,2.7-1.1l1.2,1.3c-1,1.1-2.4,1.6-4,1.6
		c-1.3,0-2.5-0.4-3.4-1.3s-1.4-2.1-1.4-3.6s0.5-2.7,1.4-3.6c1-0.9,2.1-1.3,3.4-1.3s2.4,0.4,3.3,1.2c0.9,0.8,1.4,1.9,1.4,3.2V172.6z
		 M864.5,171h5.5c0-0.8-0.3-1.4-0.8-1.9c-0.5-0.4-1.1-0.6-1.9-0.6c-0.7,0-1.4,0.2-2,0.7C864.8,169.6,864.5,170.2,864.5,171z"/>
	<path d="M881.1,173.6c0,0.9-0.3,1.6-1,2.2s-1.5,0.8-2.5,0.8c-0.7,0-1.4-0.1-2.2-0.4s-1.4-0.6-2-1.1l1-1.6c1.1,0.8,2.2,1.3,3.2,1.3
		c0.5,0,0.8-0.1,1.1-0.3s0.4-0.5,0.4-0.8c0-0.5-0.6-0.9-1.9-1.3c-0.1,0-0.2-0.1-0.2-0.1c-2-0.5-3-1.4-3-2.7c0-0.9,0.3-1.6,1-2.1
		c0.7-0.5,1.6-0.8,2.7-0.8c1.1,0,2.1,0.3,3.1,1l-0.8,1.5c-0.8-0.5-1.6-0.8-2.5-0.8c-0.5,0-0.9,0.1-1.2,0.3c-0.3,0.2-0.5,0.4-0.5,0.8
		c0,0.3,0.2,0.5,0.5,0.7c0.2,0.1,0.5,0.2,0.9,0.3c0.4,0.1,0.7,0.2,1,0.3c0.3,0.1,0.6,0.2,0.9,0.3c0.3,0.1,0.6,0.3,0.9,0.5
		C880.7,172,881.1,172.7,881.1,173.6z"/>
	<path d="M342.8,202.5H341v-1.3c-0.8,0.9-1.9,1.4-3.2,1.4c-1,0-1.8-0.3-2.5-0.8c-0.7-0.6-1-1.3-1-2.3s0.3-1.6,1-2.1
		c0.7-0.5,1.6-0.7,2.8-0.7h2.6v-0.4c0-1.3-0.7-1.9-2.1-1.9c-0.9,0-1.8,0.3-2.8,1l-0.9-1.3c1.2-0.9,2.5-1.4,4-1.4
		c1.1,0,2,0.3,2.8,0.9c0.7,0.6,1.1,1.5,1.1,2.7V202.5z M340.8,198.9v-0.8h-2.3c-1.5,0-2.2,0.5-2.2,1.4c0,0.5,0.2,0.8,0.5,1.1
		c0.4,0.2,0.9,0.4,1.5,0.4s1.2-0.2,1.7-0.5S340.8,199.5,340.8,198.9z"/>
	<path d="M350.6,194.8c-1,0-1.7,0.3-2.2,1s-0.8,1.5-0.8,2.6v4.1h-2v-9.6h2v1.9c0.3-0.6,0.8-1.1,1.3-1.5c0.6-0.4,1.1-0.6,1.8-0.6l0,2
		C350.7,194.8,350.7,194.8,350.6,194.8z"/>
	<path d="M360.6,201.2c-1,1-2.2,1.4-3.6,1.4s-2.6-0.5-3.6-1.4c-1-1-1.4-2.1-1.4-3.5c0-1.4,0.5-2.5,1.4-3.5c1-1,2.2-1.4,3.6-1.4
		s2.6,0.5,3.6,1.4s1.4,2.1,1.4,3.5C362,199,361.6,200.2,360.6,201.2z M354.8,199.9c0.6,0.6,1.3,0.9,2.2,0.9c0.9,0,1.6-0.3,2.2-0.9
		c0.6-0.6,0.9-1.3,0.9-2.3c0-0.9-0.3-1.7-0.9-2.3c-0.6-0.6-1.3-0.9-2.2-0.9c-0.9,0-1.6,0.3-2.2,0.9c-0.6,0.6-0.9,1.3-0.9,2.3
		C354,198.6,354.3,199.3,354.8,199.9z"/>
	<path d="M371,198.1v-5.2h2v9.6h-2v-1.7c-0.3,0.6-0.8,1.1-1.3,1.4c-0.6,0.3-1.2,0.5-1.8,0.5c-1.1,0-2-0.3-2.6-1
		c-0.7-0.7-1-1.6-1-2.9v-5.9h2v5.3c0,1.8,0.7,2.6,2.2,2.6c0.7,0,1.3-0.2,1.8-0.7C370.8,199.6,371,199,371,198.1z"/>
	<path d="M378,197.3v5.2h-2v-9.6h2v1.7c0.3-0.6,0.8-1,1.3-1.4s1.2-0.5,1.8-0.5c1.1,0,2,0.3,2.6,1c0.7,0.7,1,1.6,1,2.9v5.9h-2v-5.3
		c0-1.8-0.7-2.6-2.2-2.6c-0.7,0-1.3,0.2-1.8,0.7C378.2,195.7,378,196.4,378,197.3z"/>
	<path d="M388.3,201.2c-0.9-0.9-1.3-2.1-1.3-3.6c0-1.5,0.5-2.7,1.4-3.6c0.9-0.9,2-1.3,3.3-1.3c1.3,0,2.3,0.5,3.1,1.6v-5.3h2v13.4h-2
		V201c-0.7,1.1-1.8,1.6-3.3,1.6C390.3,202.6,389.2,202.1,388.3,201.2z M389,197.7c0,0.9,0.3,1.7,0.9,2.2c0.6,0.6,1.3,0.9,2.1,0.9
		s1.5-0.3,2-0.9c0.6-0.6,0.8-1.3,0.8-2.2c0-0.9-0.3-1.7-0.8-2.3c-0.6-0.6-1.2-0.9-2-0.9c-0.8,0-1.5,0.3-2.1,0.9
		C389.3,196,389,196.8,389,197.7z"/>
	<path d="M407.1,194.5v4.9c0,0.5,0.1,0.8,0.4,1.1c0.2,0.3,0.6,0.4,1,0.4s0.8-0.2,1.2-0.6l0.8,1.4c-0.7,0.6-1.5,1-2.3,1
		s-1.6-0.3-2.2-0.9c-0.6-0.6-0.9-1.4-0.9-2.4v-4.8h-1.2v-1.6h1.2v-3h2v3h2.5v1.6H407.1z"/>
	<path d="M414.1,197.3v5.2h-2v-13.3h2v5.5c0.3-0.6,0.7-1,1.3-1.4s1.2-0.5,1.9-0.5c1.1,0,2,0.3,2.6,1c0.7,0.7,1,1.6,1,2.9v5.9h-2
		v-5.3c0-1.8-0.7-2.6-2.2-2.6c-0.7,0-1.3,0.2-1.8,0.7C414.4,195.7,414.1,196.4,414.1,197.3z"/>
	<path d="M432.7,198.6h-7.5c0,0.7,0.4,1.3,1,1.7c0.6,0.4,1.3,0.6,2,0.6c1.2,0,2.1-0.4,2.7-1.1l1.2,1.3c-1,1.1-2.4,1.6-4,1.6
		c-1.3,0-2.5-0.4-3.4-1.3s-1.4-2.1-1.4-3.6s0.5-2.7,1.4-3.6c1-0.9,2.1-1.3,3.4-1.3c1.3,0,2.4,0.4,3.3,1.2c0.9,0.8,1.4,1.9,1.4,3.2
		V198.6z M425.2,197h5.5c0-0.8-0.3-1.4-0.8-1.9c-0.5-0.4-1.1-0.6-1.9-0.6c-0.7,0-1.4,0.2-2,0.7C425.5,195.6,425.2,196.2,425.2,197z"
		/>
	<path d="M444.3,202.5H442l-3.3-9.6h2.1l2.4,7.2l2.4-7.2h2.1l2.4,7.2l2.4-7.2h2.1l-3.3,9.6h-2.3l-2.3-6.6L444.3,202.5z"/>
	<path d="M464.1,201.2c-1,1-2.2,1.4-3.6,1.4s-2.6-0.5-3.6-1.4c-1-1-1.4-2.1-1.4-3.5c0-1.4,0.5-2.5,1.4-3.5c1-1,2.2-1.4,3.6-1.4
		s2.6,0.5,3.6,1.4s1.4,2.1,1.4,3.5C465.6,199,465.1,200.2,464.1,201.2z M458.3,199.9c0.6,0.6,1.3,0.9,2.2,0.9c0.9,0,1.6-0.3,2.2-0.9
		c0.6-0.6,0.9-1.3,0.9-2.3c0-0.9-0.3-1.7-0.9-2.3c-0.6-0.6-1.3-0.9-2.2-0.9c-0.9,0-1.6,0.3-2.2,0.9c-0.6,0.6-0.9,1.3-0.9,2.3
		C457.5,198.6,457.8,199.3,458.3,199.9z"/>
	<path d="M472.9,194.8c-1,0-1.7,0.3-2.2,1c-0.5,0.6-0.8,1.5-0.8,2.6v4.1h-2v-9.6h2v1.9c0.3-0.6,0.8-1.1,1.3-1.5
		c0.6-0.4,1.1-0.6,1.8-0.6l0,2C472.9,194.8,472.9,194.8,472.9,194.8z"/>
	<path d="M477,202.5h-2v-13.4h2V202.5z"/>
	<path d="M480.7,201.2c-0.9-0.9-1.4-2.1-1.4-3.6c0-1.5,0.5-2.7,1.4-3.6c0.9-0.9,2-1.3,3.3-1.3s2.3,0.5,3.1,1.6v-5.3h2v13.4h-2V201
		c-0.7,1.1-1.8,1.6-3.3,1.6C482.6,202.6,481.6,202.1,480.7,201.2z M481.3,197.7c0,0.9,0.3,1.7,0.9,2.2s1.3,0.9,2.1,0.9
		s1.5-0.3,2-0.9c0.6-0.6,0.8-1.3,0.8-2.2c0-0.9-0.3-1.7-0.8-2.3c-0.6-0.6-1.2-0.9-2-0.9s-1.5,0.3-2.1,0.9
		C481.6,196,481.3,196.8,481.3,197.7z"/>
	<path d="M491.7,201.3c0-0.4,0.1-0.7,0.4-1c0.3-0.3,0.6-0.4,0.9-0.4c0.4,0,0.7,0.1,0.9,0.4c0.3,0.3,0.4,0.6,0.4,0.9
		s-0.2,0.8-0.5,1.3l-1.1,1.8h-1l0.7-1.9C492,202.2,491.7,201.9,491.7,201.3z"/>
	<path d="M509.8,202.5h-1.8v-1.3c-0.8,0.9-1.9,1.4-3.2,1.4c-1,0-1.8-0.3-2.5-0.8c-0.7-0.6-1-1.3-1-2.3s0.3-1.6,1-2.1
		c0.7-0.5,1.6-0.7,2.8-0.7h2.6v-0.4c0-1.3-0.7-1.9-2.1-1.9c-0.9,0-1.8,0.3-2.8,1l-0.9-1.3c1.2-0.9,2.5-1.4,4-1.4
		c1.1,0,2,0.3,2.8,0.9c0.7,0.6,1.1,1.5,1.1,2.7V202.5z M507.7,198.9v-0.8h-2.3c-1.5,0-2.2,0.5-2.2,1.4c0,0.5,0.2,0.8,0.5,1.1
		c0.4,0.2,0.9,0.4,1.5,0.4s1.2-0.2,1.7-0.5C507.5,200,507.7,199.5,507.7,198.9z"/>
	<path d="M514.6,197.3v5.2h-2v-9.6h2v1.7c0.3-0.6,0.8-1,1.3-1.4c0.6-0.3,1.2-0.5,1.8-0.5c1.1,0,2,0.3,2.6,1c0.7,0.7,1,1.6,1,2.9v5.9
		h-2v-5.3c0-1.8-0.7-2.6-2.2-2.6c-0.7,0-1.3,0.2-1.8,0.7C514.8,195.7,514.6,196.4,514.6,197.3z"/>
	<path d="M524.9,201.2c-0.9-0.9-1.4-2.1-1.4-3.6c0-1.5,0.5-2.7,1.4-3.6c0.9-0.9,2-1.3,3.3-1.3s2.3,0.5,3.1,1.6v-5.3h2v13.4h-2V201
		c-0.7,1.1-1.8,1.6-3.3,1.6C526.9,202.6,525.8,202.1,524.9,201.2z M525.6,197.7c0,0.9,0.3,1.7,0.9,2.2s1.3,0.9,2.1,0.9
		s1.5-0.3,2-0.9c0.6-0.6,0.8-1.3,0.8-2.2c0-0.9-0.3-1.7-0.8-2.3c-0.6-0.6-1.2-0.9-2-0.9s-1.5,0.3-2.1,0.9
		C525.9,196,525.6,196.8,525.6,197.7z"/>
	<path d="M543.2,197.3v5.2h-2v-9.6h2v1.7c0.3-0.6,0.8-1,1.3-1.4c0.6-0.3,1.2-0.5,1.8-0.5c1.1,0,2,0.3,2.6,1c0.7,0.7,1,1.6,1,2.9v5.9
		h-2v-5.3c0-1.8-0.7-2.6-2.2-2.6c-0.7,0-1.3,0.2-1.8,0.7C543.5,195.7,543.2,196.4,543.2,197.3z"/>
	<path d="M560.9,201.2c-1,1-2.2,1.4-3.6,1.4c-1.4,0-2.6-0.5-3.6-1.4s-1.4-2.1-1.4-3.5c0-1.4,0.5-2.5,1.4-3.5s2.2-1.4,3.6-1.4
		c1.4,0,2.6,0.5,3.6,1.4s1.4,2.1,1.4,3.5C562.3,199,561.8,200.2,560.9,201.2z M555.1,199.9c0.6,0.6,1.3,0.9,2.2,0.9s1.6-0.3,2.2-0.9
		c0.6-0.6,0.9-1.3,0.9-2.3c0-0.9-0.3-1.7-0.9-2.3c-0.6-0.6-1.3-0.9-2.2-0.9s-1.6,0.3-2.2,0.9c-0.6,0.6-0.9,1.3-0.9,2.3
		C554.2,198.6,554.5,199.3,555.1,199.9z"/>
	<path d="M568.9,202.5h-2.3l-3.3-9.6h2.1l2.4,7.2l2.4-7.2h2.1l2.4,7.2l2.4-7.2h2.1l-3.3,9.6h-2.3l-2.3-6.6L568.9,202.5z"/>
	<path d="M586.1,189.9h2.1v12.6h-2.1V189.9z"/>
	<path d="M591.3,191.9c-0.3-0.2-0.5-0.5-0.5-0.9s0.1-0.7,0.3-0.9c0.2-0.2,0.5-0.3,0.8-0.3s0.6,0.1,0.8,0.3c0.2,0.2,0.3,0.5,0.3,0.8
		c0,0.3-0.1,0.7-0.3,1l-1.1,1.5h-1.1L591.3,191.9z"/>
	<path d="M597.3,197.3v5.2h-2v-9.6h2v1.7c0.3-0.6,0.7-1,1.3-1.4s1.2-0.5,1.9-0.5c1.5,0,2.5,0.6,3.1,1.9c0.9-1.2,2.1-1.9,3.5-1.9
		c1.1,0,2,0.3,2.6,1c0.7,0.7,1,1.6,1,2.9v5.9h-2v-5.3c0-1.8-0.7-2.6-2.2-2.6c-0.7,0-1.3,0.2-1.8,0.7c-0.5,0.4-0.8,1.1-0.8,1.9v5.3
		h-2v-5.3c0-0.9-0.2-1.6-0.5-2c-0.3-0.4-0.8-0.6-1.5-0.6c-0.7,0-1.3,0.2-1.8,0.7C597.6,195.7,597.3,196.4,597.3,197.3z"/>
	<path d="M623.6,192.7c1.3,0,2.4,0.4,3.3,1.3c0.9,0.9,1.4,2.1,1.4,3.5c0,1.5-0.5,2.7-1.4,3.6c-0.9,0.9-2,1.4-3.2,1.4
		s-2.3-0.5-3.2-1.6v1.4h-2v-13.4h2v5.5C621.3,193.3,622.4,192.7,623.6,192.7z M620.5,197.7c0,0.9,0.3,1.7,0.8,2.2s1.2,0.9,2,0.9
		s1.5-0.3,2.1-0.9s0.9-1.3,0.9-2.2c0-0.9-0.3-1.7-0.9-2.3s-1.3-0.9-2.1-0.9s-1.5,0.3-2,0.9S620.5,196.8,620.5,197.7z"/>
	<path d="M638.4,202.5h-1.8v-1.3c-0.8,0.9-1.9,1.4-3.2,1.4c-1,0-1.8-0.3-2.5-0.8c-0.7-0.6-1-1.3-1-2.3s0.3-1.6,1-2.1
		c0.7-0.5,1.6-0.7,2.8-0.7h2.6v-0.4c0-1.3-0.7-1.9-2.1-1.9c-0.9,0-1.8,0.3-2.8,1l-0.9-1.3c1.2-0.9,2.5-1.4,4-1.4
		c1.1,0,2,0.3,2.8,0.9c0.7,0.6,1.1,1.5,1.1,2.7V202.5z M636.4,198.9v-0.8h-2.3c-1.5,0-2.2,0.5-2.2,1.4c0,0.5,0.2,0.8,0.5,1.1
		c0.4,0.2,0.9,0.4,1.5,0.4s1.2-0.2,1.7-0.5C636.1,200,636.4,199.5,636.4,198.9z"/>
	<path d="M648,199.6c0,0.9-0.3,1.6-1,2.2s-1.5,0.8-2.5,0.8c-0.7,0-1.4-0.1-2.2-0.4s-1.4-0.6-2-1.1l1-1.6c1.1,0.8,2.2,1.3,3.2,1.3
		c0.5,0,0.8-0.1,1.1-0.3s0.4-0.5,0.4-0.8c0-0.5-0.6-0.9-1.9-1.3c-0.1,0-0.2-0.1-0.2-0.1c-2-0.5-3-1.4-3-2.7c0-0.9,0.3-1.6,1-2.1
		c0.7-0.5,1.6-0.8,2.7-0.8c1.1,0,2.1,0.3,3.1,1l-0.8,1.5c-0.8-0.5-1.6-0.8-2.5-0.8c-0.5,0-0.9,0.1-1.2,0.3c-0.3,0.2-0.5,0.4-0.5,0.8
		c0,0.3,0.2,0.5,0.5,0.7c0.2,0.1,0.5,0.2,0.9,0.3c0.4,0.1,0.7,0.2,1,0.3c0.3,0.1,0.6,0.2,0.9,0.3c0.3,0.1,0.6,0.3,0.9,0.5
		C647.7,198,648,198.7,648,199.6z"/>
	<path d="M659.2,198.6h-7.5c0,0.7,0.4,1.3,1,1.7c0.6,0.4,1.3,0.6,2,0.6c1.2,0,2.1-0.4,2.7-1.1l1.2,1.3c-1,1.1-2.4,1.6-4,1.6
		c-1.3,0-2.5-0.4-3.4-1.3s-1.4-2.1-1.4-3.6s0.5-2.7,1.4-3.6c1-0.9,2.1-1.3,3.4-1.3s2.4,0.4,3.3,1.2c0.9,0.8,1.4,1.9,1.4,3.2V198.6z
		 M651.7,197h5.5c0-0.8-0.3-1.4-0.8-1.9c-0.5-0.4-1.1-0.6-1.9-0.6c-0.7,0-1.4,0.2-2,0.7C652,195.6,651.7,196.2,651.7,197z"/>
	<path d="M662.1,201.2c-0.9-0.9-1.4-2.1-1.4-3.6c0-1.5,0.5-2.7,1.4-3.6c0.9-0.9,2-1.3,3.3-1.3s2.3,0.5,3.1,1.6v-5.3h2v13.4h-2V201
		c-0.7,1.1-1.8,1.6-3.3,1.6C664.1,202.6,663,202.1,662.1,201.2z M662.8,197.7c0,0.9,0.3,1.7,0.9,2.2s1.3,0.9,2.1,0.9s1.5-0.3,2-0.9
		c0.6-0.6,0.8-1.3,0.8-2.2c0-0.9-0.3-1.7-0.8-2.3c-0.6-0.6-1.2-0.9-2-0.9s-1.5,0.3-2.1,0.9C663.1,196,662.8,196.8,662.8,197.7z"/>
	<path d="M678.6,191c-0.3-0.3-0.4-0.6-0.4-0.9s0.1-0.6,0.4-0.9s0.6-0.4,0.9-0.4c0.3,0,0.6,0.1,0.9,0.4s0.4,0.6,0.4,0.9
		s-0.1,0.6-0.4,0.9s-0.6,0.4-0.9,0.4C679.1,191.4,678.8,191.2,678.6,191z M680.5,202.5h-2v-9.6h2V202.5z"/>
	<path d="M685.4,197.3v5.2h-2v-9.6h2v1.7c0.3-0.6,0.8-1,1.3-1.4c0.6-0.3,1.2-0.5,1.8-0.5c1.1,0,2,0.3,2.6,1c0.7,0.7,1,1.6,1,2.9v5.9
		h-2v-5.3c0-1.8-0.7-2.6-2.2-2.6c-0.7,0-1.3,0.2-1.8,0.7C685.6,195.7,685.4,196.4,685.4,197.3z"/>
	<path d="M704,191.5c-0.6,0-1.1,0.1-1.5,0.4c-0.4,0.3-0.6,0.6-0.6,1.1c0,0.5,0.2,0.9,0.6,1.2c0.4,0.3,1.2,0.6,2.5,0.9
		s2.3,0.8,2.9,1.3c0.7,0.6,1,1.4,1,2.5c0,1.1-0.4,2-1.2,2.7c-0.8,0.7-1.9,1-3.3,1c-2,0-3.7-0.7-5.2-2l1.3-1.6c1.3,1.1,2.6,1.7,4,1.7
		c0.7,0,1.2-0.1,1.6-0.4c0.4-0.3,0.6-0.7,0.6-1.2c0-0.5-0.2-0.9-0.6-1.1s-1-0.5-2-0.7s-1.6-0.4-2.1-0.6c-0.5-0.2-0.9-0.4-1.3-0.7
		c-0.7-0.6-1.1-1.4-1.1-2.6s0.4-2.1,1.3-2.7c0.8-0.6,1.9-0.9,3.1-0.9c0.8,0,1.6,0.1,2.4,0.4c0.8,0.3,1.5,0.6,2.1,1.1l-1.1,1.6
		c-0.4-0.3-0.9-0.6-1.5-0.8C705.3,191.6,704.6,191.5,704,191.5z"/>
	<path d="M720.2,198.6h-7.5c0,0.7,0.4,1.3,1,1.7c0.6,0.4,1.3,0.6,2,0.6c1.2,0,2.1-0.4,2.7-1.1l1.2,1.3c-1,1.1-2.4,1.6-4,1.6
		c-1.3,0-2.5-0.4-3.4-1.3s-1.4-2.1-1.4-3.6s0.5-2.7,1.4-3.6c1-0.9,2.1-1.3,3.4-1.3s2.4,0.4,3.3,1.2c0.9,0.8,1.4,1.9,1.4,3.2V198.6z
		 M712.7,197h5.5c0-0.8-0.3-1.4-0.8-1.9c-0.5-0.4-1.1-0.6-1.9-0.6c-0.7,0-1.4,0.2-2,0.7C713,195.6,712.7,196.2,712.7,197z"/>
	<path d="M730.1,202.5h-1.8v-1.3c-0.8,0.9-1.9,1.4-3.2,1.4c-1,0-1.8-0.3-2.5-0.8c-0.7-0.6-1-1.3-1-2.3s0.3-1.6,1-2.1
		c0.7-0.5,1.6-0.7,2.8-0.7h2.6v-0.4c0-1.3-0.7-1.9-2.1-1.9c-0.9,0-1.8,0.3-2.8,1l-0.9-1.3c1.2-0.9,2.5-1.4,4-1.4
		c1.1,0,2,0.3,2.8,0.9c0.7,0.6,1.1,1.5,1.1,2.7V202.5z M728.1,198.9v-0.8h-2.3c-1.5,0-2.2,0.5-2.2,1.4c0,0.5,0.2,0.8,0.5,1.1
		c0.4,0.2,0.9,0.4,1.5,0.4s1.2-0.2,1.7-0.5C727.9,200,728.1,199.5,728.1,198.9z"/>
	<path d="M735.3,194.5v4.9c0,0.5,0.1,0.8,0.4,1.1s0.6,0.4,1,0.4c0.4,0,0.8-0.2,1.2-0.6l0.8,1.4c-0.7,0.6-1.5,1-2.3,1
		c-0.9,0-1.6-0.3-2.2-0.9c-0.6-0.6-0.9-1.4-0.9-2.4v-4.8h-1.2v-1.6h1.2v-3h2v3h2.5v1.6H735.3z"/>
	<path d="M742.9,194.5v4.9c0,0.5,0.1,0.8,0.4,1.1s0.6,0.4,1,0.4c0.4,0,0.8-0.2,1.2-0.6l0.8,1.4c-0.7,0.6-1.5,1-2.3,1
		c-0.9,0-1.6-0.3-2.2-0.9c-0.6-0.6-0.9-1.4-0.9-2.4v-4.8h-1.2v-1.6h1.2v-3h2v3h2.5v1.6H742.9z"/>
	<path d="M749.9,202.5h-2v-13.4h2V202.5z"/>
	<path d="M761.7,198.6h-7.5c0,0.7,0.4,1.3,1,1.7c0.6,0.4,1.3,0.6,2,0.6c1.2,0,2.1-0.4,2.7-1.1l1.2,1.3c-1,1.1-2.4,1.6-4,1.6
		c-1.3,0-2.5-0.4-3.4-1.3s-1.4-2.1-1.4-3.6s0.5-2.7,1.4-3.6c1-0.9,2.1-1.3,3.4-1.3s2.4,0.4,3.3,1.2c0.9,0.8,1.4,1.9,1.4,3.2V198.6z
		 M754.2,197h5.5c0-0.8-0.3-1.4-0.8-1.9c-0.5-0.4-1.1-0.6-1.9-0.6c-0.7,0-1.4,0.2-2,0.7C754.5,195.6,754.2,196.2,754.2,197z"/>
	<path d="M763.7,201.3c0-0.4,0.1-0.7,0.4-1c0.3-0.3,0.6-0.4,0.9-0.4c0.4,0,0.7,0.1,0.9,0.4c0.3,0.3,0.4,0.6,0.4,0.9
		s-0.2,0.8-0.5,1.3l-1.1,1.8h-1l0.7-1.9C763.9,202.2,763.7,201.9,763.7,201.3z"/>
	<path d="M778.2,198.9l2.8-9.1h1.9l2.8,9.1l3.2-9.1h2.3l-4.4,12.6h-2.1l-2.6-8.6h-0.1l-2.6,8.6h-2.1l-4.4-12.6h2.3L778.2,198.9z"/>
	<path d="M794.3,199.6l-1.3,2.9h-2.3l5.5-12.6h2.3l5.5,12.6h-2.3l-1.3-2.9H794.3z M799.7,197.6l-2.3-5.2l-2.3,5.2H799.7z"/>
	<path d="M815,202.5h-2.3l-3.3-9.6h2.1l2.4,7.2l2.4-7.2h2.1l2.4,7.2l2.4-7.2h2.1l-3.3,9.6h-2.3l-2.3-6.6L815,202.5z"/>
	<path d="M834.8,201.2c-1,1-2.2,1.4-3.6,1.4c-1.4,0-2.6-0.5-3.6-1.4s-1.4-2.1-1.4-3.5c0-1.4,0.5-2.5,1.4-3.5s2.2-1.4,3.6-1.4
		c1.4,0,2.6,0.5,3.6,1.4s1.4,2.1,1.4,3.5C836.2,199,835.8,200.2,834.8,201.2z M829,199.9c0.6,0.6,1.3,0.9,2.2,0.9s1.6-0.3,2.2-0.9
		c0.6-0.6,0.9-1.3,0.9-2.3c0-0.9-0.3-1.7-0.9-2.3c-0.6-0.6-1.3-0.9-2.2-0.9s-1.6,0.3-2.2,0.9c-0.6,0.6-0.9,1.3-0.9,2.3
		C828.2,198.6,828.5,199.3,829,199.9z"/>
	<path d="M843.5,194.8c-1,0-1.7,0.3-2.2,1c-0.5,0.6-0.8,1.5-0.8,2.6v4.1h-2v-9.6h2v1.9c0.3-0.6,0.8-1.1,1.3-1.5
		c0.6-0.4,1.1-0.6,1.8-0.6l0,2C843.6,194.8,843.6,194.8,843.5,194.8z"/>
	<path d="M847.7,202.5h-2v-13.4h2v7.8l3.9-4.1h2.6l-3.6,3.8l3.9,5.8H852l-2.8-4.2l-1.5,1.5V202.5z"/>
	<path d="M856.3,191c-0.3-0.3-0.4-0.6-0.4-0.9s0.1-0.6,0.4-0.9s0.6-0.4,0.9-0.4c0.3,0,0.6,0.1,0.9,0.4s0.4,0.6,0.4,0.9
		s-0.1,0.6-0.4,0.9s-0.6,0.4-0.9,0.4C856.8,191.4,856.5,191.2,856.3,191z M858.1,202.5h-2v-9.6h2V202.5z"/>
	<path d="M863.1,197.3v5.2h-2v-9.6h2v1.7c0.3-0.6,0.8-1,1.3-1.4c0.6-0.3,1.2-0.5,1.8-0.5c1.1,0,2,0.3,2.6,1c0.7,0.7,1,1.6,1,2.9v5.9
		h-2v-5.3c0-1.8-0.7-2.6-2.2-2.6c-0.7,0-1.3,0.2-1.8,0.7C863.3,195.7,863.1,196.4,863.1,197.3z"/>
	<path d="M881.5,192.9v8.4c0,1.7-0.5,3-1.4,3.8c-0.9,0.8-2.1,1.3-3.5,1.3c-1.4,0-2.7-0.5-3.9-1.4l1-1.5c0.9,0.7,1.9,1.1,2.8,1.1
		s1.7-0.2,2.3-0.7c0.6-0.5,0.8-1.3,0.8-2.4v-1.2c-0.3,0.6-0.7,1-1.3,1.4c-0.6,0.3-1.2,0.5-1.9,0.5c-1.3,0-2.3-0.4-3.1-1.3
		c-0.8-0.9-1.2-2-1.2-3.3c0-1.3,0.4-2.4,1.2-3.3c0.8-0.9,1.9-1.3,3.1-1.3c1.3,0,2.3,0.5,3.1,1.6v-1.4H881.5z M874.1,197.3
		c0,0.8,0.2,1.5,0.7,2c0.5,0.6,1.1,0.9,2,0.9c0.8,0,1.5-0.3,2-0.8c0.5-0.6,0.8-1.2,0.8-2.1c0-0.8-0.3-1.5-0.8-2.1
		c-0.5-0.6-1.2-0.9-2-0.9c-0.8,0-1.5,0.3-2,0.9C874.3,195.8,874.1,196.5,874.1,197.3z"/>
	<path d="M337.5,218.1v0.8h2.5v1.6h-2.5v8h-2v-8h-1.2v-1.6h1.2v-0.7c0-1,0.3-1.8,0.9-2.4c0.6-0.6,1.3-0.9,2.2-0.9s1.6,0.3,2.3,1
		l-0.8,1.4c-0.4-0.4-0.8-0.6-1.2-0.6s-0.8,0.1-1,0.4C337.7,217.3,337.5,217.6,337.5,218.1z"/>
	<path d="M349.8,227.2c-1,1-2.2,1.4-3.6,1.4s-2.6-0.5-3.6-1.4c-1-1-1.4-2.1-1.4-3.5c0-1.4,0.5-2.5,1.4-3.5c1-1,2.2-1.4,3.6-1.4
		s2.6,0.5,3.6,1.4s1.4,2.1,1.4,3.5C351.2,225,350.7,226.2,349.8,227.2z M344,225.9c0.6,0.6,1.3,0.9,2.2,0.9c0.9,0,1.6-0.3,2.2-0.9
		c0.6-0.6,0.9-1.3,0.9-2.3c0-0.9-0.3-1.7-0.9-2.3c-0.6-0.6-1.3-0.9-2.2-0.9c-0.9,0-1.6,0.3-2.2,0.9c-0.6,0.6-0.9,1.3-0.9,2.3
		C343.2,224.6,343.4,225.3,344,225.9z"/>
	<path d="M358.5,220.8c-1,0-1.7,0.3-2.2,1s-0.8,1.5-0.8,2.6v4.1h-2v-9.6h2v1.9c0.3-0.6,0.8-1.1,1.3-1.5c0.6-0.4,1.1-0.6,1.8-0.6l0,2
		C358.6,220.8,358.6,220.8,358.5,220.8z"/>
	<path d="M373.3,228.5h-1.8v-1.3c-0.8,0.9-1.9,1.4-3.2,1.4c-1,0-1.8-0.3-2.5-0.8c-0.7-0.6-1-1.3-1-2.3s0.3-1.6,1-2.1
		c0.7-0.5,1.6-0.7,2.8-0.7h2.6v-0.4c0-1.3-0.7-1.9-2.1-1.9c-0.9,0-1.8,0.3-2.8,1l-0.9-1.3c1.2-0.9,2.5-1.4,4-1.4
		c1.1,0,2,0.3,2.8,0.9c0.7,0.6,1.1,1.5,1.1,2.7V228.5z M371.3,224.9v-0.8h-2.3c-1.5,0-2.2,0.5-2.2,1.4c0,0.5,0.2,0.8,0.5,1.1
		c0.4,0.2,0.9,0.4,1.5,0.4s1.2-0.2,1.7-0.5S371.3,225.5,371.3,224.9z"/>
	<path d="M383.1,228.5h-2v-13.4h2V228.5z"/>
	<path d="M394.9,224.6h-7.5c0,0.7,0.4,1.3,1,1.7c0.6,0.4,1.3,0.6,2,0.6c1.2,0,2.1-0.4,2.7-1.1l1.2,1.3c-1,1.1-2.4,1.6-4,1.6
		c-1.3,0-2.5-0.4-3.4-1.3s-1.4-2.1-1.4-3.6s0.5-2.7,1.4-3.6c1-0.9,2.1-1.3,3.4-1.3c1.3,0,2.4,0.4,3.3,1.2c0.9,0.8,1.4,1.9,1.4,3.2
		V224.6z M387.4,223h5.5c0-0.8-0.3-1.4-0.8-1.9c-0.5-0.4-1.1-0.6-1.9-0.6c-0.7,0-1.4,0.2-2,0.7C387.7,221.6,387.4,222.2,387.4,223z"
		/>
	<path d="M404.9,228.5h-1.8v-1.3c-0.8,0.9-1.9,1.4-3.2,1.4c-1,0-1.8-0.3-2.5-0.8c-0.7-0.6-1-1.3-1-2.3s0.3-1.6,1-2.1
		c0.7-0.5,1.6-0.7,2.8-0.7h2.6v-0.4c0-1.3-0.7-1.9-2.1-1.9c-0.9,0-1.8,0.3-2.8,1l-0.9-1.3c1.2-0.9,2.5-1.4,4-1.4
		c1.1,0,2,0.3,2.8,0.9c0.7,0.6,1.1,1.5,1.1,2.7V228.5z M402.9,224.9v-0.8h-2.3c-1.5,0-2.2,0.5-2.2,1.4c0,0.5,0.2,0.8,0.5,1.1
		c0.4,0.2,0.9,0.4,1.5,0.4s1.2-0.2,1.7-0.5S402.9,225.5,402.9,224.9z"/>
	<path d="M408.4,227.2c-0.9-0.9-1.3-2.1-1.3-3.6c0-1.5,0.5-2.7,1.4-3.6c0.9-0.9,2-1.3,3.3-1.3c1.3,0,2.3,0.5,3.1,1.6v-5.3h2v13.4h-2
		V227c-0.7,1.1-1.8,1.6-3.3,1.6C410.4,228.6,409.3,228.1,408.4,227.2z M409.1,223.7c0,0.9,0.3,1.7,0.9,2.2c0.6,0.6,1.3,0.9,2.1,0.9
		s1.5-0.3,2-0.9c0.6-0.6,0.8-1.3,0.8-2.2c0-0.9-0.3-1.7-0.8-2.3c-0.6-0.6-1.2-0.9-2-0.9c-0.8,0-1.5,0.3-2.1,0.9
		C409.4,222,409.1,222.8,409.1,223.7z"/>
	<path d="M433.6,218.9v8.4c0,1.7-0.5,3-1.4,3.8s-2.1,1.3-3.5,1.3s-2.7-0.5-3.9-1.4l1-1.5c0.9,0.7,1.9,1.1,2.8,1.1
		c1,0,1.7-0.2,2.3-0.7c0.6-0.5,0.8-1.3,0.8-2.4v-1.2c-0.3,0.6-0.7,1-1.3,1.4s-1.2,0.5-1.9,0.5c-1.3,0-2.3-0.4-3.1-1.3
		c-0.8-0.9-1.2-2-1.2-3.3c0-1.3,0.4-2.4,1.2-3.3c0.8-0.9,1.9-1.3,3.1-1.3s2.3,0.5,3.1,1.6v-1.4H433.6z M426.1,223.3
		c0,0.8,0.2,1.5,0.7,2c0.5,0.6,1.1,0.9,2,0.9c0.8,0,1.5-0.3,2-0.8c0.5-0.6,0.8-1.2,0.8-2.1c0-0.8-0.3-1.5-0.8-2.1
		c-0.5-0.6-1.2-0.9-2-0.9s-1.5,0.3-2,0.9C426.4,221.8,426.1,222.5,426.1,223.3z"/>
	<path d="M445.4,224.6h-7.5c0,0.7,0.4,1.3,1,1.7c0.6,0.4,1.3,0.6,2,0.6c1.2,0,2.1-0.4,2.7-1.1l1.2,1.3c-1,1.1-2.4,1.6-4,1.6
		c-1.3,0-2.5-0.4-3.4-1.3s-1.4-2.1-1.4-3.6s0.5-2.7,1.4-3.6c1-0.9,2.1-1.3,3.4-1.3c1.3,0,2.4,0.4,3.3,1.2c0.9,0.8,1.4,1.9,1.4,3.2
		V224.6z M437.9,223h5.5c0-0.8-0.3-1.4-0.8-1.9c-0.5-0.4-1.1-0.6-1.9-0.6c-0.7,0-1.4,0.2-2,0.7C438.2,221.6,437.9,222.2,437.9,223z"
		/>
	<path d="M449.6,223.3v5.2h-2v-9.6h2v1.7c0.3-0.6,0.8-1,1.3-1.4s1.2-0.5,1.8-0.5c1.1,0,2,0.3,2.6,1c0.7,0.7,1,1.6,1,2.9v5.9h-2v-5.3
		c0-1.8-0.7-2.6-2.2-2.6c-0.7,0-1.3,0.2-1.8,0.7C449.9,221.7,449.6,222.4,449.6,223.3z"/>
	<path d="M468.2,224.6h-7.5c0,0.7,0.4,1.3,1,1.7c0.6,0.4,1.3,0.6,2,0.6c1.2,0,2.1-0.4,2.7-1.1l1.2,1.3c-1,1.1-2.4,1.6-4,1.6
		c-1.3,0-2.5-0.4-3.4-1.3s-1.4-2.1-1.4-3.6s0.5-2.7,1.4-3.6c1-0.9,2.1-1.3,3.4-1.3c1.3,0,2.4,0.4,3.3,1.2c0.9,0.8,1.4,1.9,1.4,3.2
		V224.6z M460.7,223h5.5c0-0.8-0.3-1.4-0.8-1.9c-0.5-0.4-1.1-0.6-1.9-0.6c-0.7,0-1.4,0.2-2,0.7C461,221.6,460.7,222.2,460.7,223z"/>
	<path d="M475.4,220.8c-1,0-1.7,0.3-2.2,1c-0.5,0.6-0.8,1.5-0.8,2.6v4.1h-2v-9.6h2v1.9c0.3-0.6,0.8-1.1,1.3-1.5
		c0.6-0.4,1.1-0.6,1.8-0.6l0,2C475.5,220.8,475.4,220.8,475.4,220.8z"/>
	<path d="M485.2,228.5h-1.8v-1.3c-0.8,0.9-1.9,1.4-3.2,1.4c-1,0-1.8-0.3-2.5-0.8c-0.7-0.6-1-1.3-1-2.3s0.3-1.6,1-2.1
		c0.7-0.5,1.6-0.7,2.8-0.7h2.6v-0.4c0-1.3-0.7-1.9-2.1-1.9c-0.9,0-1.8,0.3-2.8,1l-0.9-1.3c1.2-0.9,2.5-1.4,4-1.4
		c1.1,0,2,0.3,2.8,0.9c0.7,0.6,1.1,1.5,1.1,2.7V228.5z M483.2,224.9v-0.8h-2.3c-1.5,0-2.2,0.5-2.2,1.4c0,0.5,0.2,0.8,0.5,1.1
		c0.4,0.2,0.9,0.4,1.5,0.4s1.2-0.2,1.7-0.5C482.9,226,483.2,225.5,483.2,224.9z"/>
	<path d="M490.4,220.5v4.9c0,0.5,0.1,0.8,0.4,1.1s0.6,0.4,1,0.4c0.4,0,0.8-0.2,1.2-0.6l0.8,1.4c-0.7,0.6-1.5,1-2.3,1
		c-0.9,0-1.6-0.3-2.2-0.9c-0.6-0.6-0.9-1.4-0.9-2.4v-4.8h-1.2v-1.6h1.2v-3h2v3h2.5v1.6H490.4z"/>
	<path d="M495.5,217c-0.3-0.3-0.4-0.6-0.4-0.9s0.1-0.6,0.4-0.9s0.6-0.4,0.9-0.4c0.3,0,0.6,0.1,0.9,0.4s0.4,0.6,0.4,0.9
		s-0.1,0.6-0.4,0.9s-0.6,0.4-0.9,0.4C496.1,217.4,495.8,217.2,495.5,217z M497.4,228.5h-2v-9.6h2V228.5z"/>
	<path d="M508.4,227.2c-1,1-2.2,1.4-3.6,1.4c-1.4,0-2.6-0.5-3.6-1.4s-1.4-2.1-1.4-3.5c0-1.4,0.5-2.5,1.4-3.5s2.2-1.4,3.6-1.4
		c1.4,0,2.6,0.5,3.6,1.4s1.4,2.1,1.4,3.5C509.8,225,509.3,226.2,508.4,227.2z M502.6,225.9c0.6,0.6,1.3,0.9,2.2,0.9s1.6-0.3,2.2-0.9
		c0.6-0.6,0.9-1.3,0.9-2.3c0-0.9-0.3-1.7-0.9-2.3c-0.6-0.6-1.3-0.9-2.2-0.9s-1.6,0.3-2.2,0.9c-0.6,0.6-0.9,1.3-0.9,2.3
		C501.7,224.6,502,225.3,502.6,225.9z"/>
	<path d="M514.1,223.3v5.2h-2v-9.6h2v1.7c0.3-0.6,0.8-1,1.3-1.4c0.6-0.3,1.2-0.5,1.8-0.5c1.1,0,2,0.3,2.6,1c0.7,0.7,1,1.6,1,2.9v5.9
		h-2v-5.3c0-1.8-0.7-2.6-2.2-2.6c-0.7,0-1.3,0.2-1.8,0.7C514.4,221.7,514.1,222.4,514.1,223.3z"/>
	<path d="M532.9,228.6c-1.3,0-2.5-0.5-3.4-1.4s-1.4-2.1-1.4-3.6c0-1.5,0.5-2.7,1.5-3.6c1-0.9,2.2-1.4,3.7-1.4c1.4,0,2.7,0.5,3.7,1.5
		l-1.2,1.5c-0.8-0.7-1.7-1.1-2.5-1.1s-1.6,0.3-2.2,0.8c-0.6,0.6-0.9,1.3-0.9,2.2s0.3,1.6,0.9,2.2c0.6,0.6,1.4,0.9,2.3,0.9
		c0.9,0,1.7-0.4,2.5-1.2l1.2,1.3C535.8,228,534.4,228.6,532.9,228.6z"/>
	<path d="M546.8,227.2c-1,1-2.2,1.4-3.6,1.4c-1.4,0-2.6-0.5-3.6-1.4s-1.4-2.1-1.4-3.5c0-1.4,0.5-2.5,1.4-3.5s2.2-1.4,3.6-1.4
		c1.4,0,2.6,0.5,3.6,1.4s1.4,2.1,1.4,3.5C548.3,225,547.8,226.2,546.8,227.2z M541.1,225.9c0.6,0.6,1.3,0.9,2.2,0.9s1.6-0.3,2.2-0.9
		c0.6-0.6,0.9-1.3,0.9-2.3c0-0.9-0.3-1.7-0.9-2.3c-0.6-0.6-1.3-0.9-2.2-0.9s-1.6,0.3-2.2,0.9c-0.6,0.6-0.9,1.3-0.9,2.3
		C540.2,224.6,540.5,225.3,541.1,225.9z"/>
	<path d="M552.6,223.3v5.2h-2v-9.6h2v1.7c0.3-0.6,0.7-1,1.3-1.4s1.2-0.5,1.9-0.5c1.5,0,2.5,0.6,3.1,1.9c0.9-1.2,2.1-1.9,3.5-1.9
		c1.1,0,2,0.3,2.6,1c0.7,0.7,1,1.6,1,2.9v5.9h-2v-5.3c0-1.8-0.7-2.6-2.2-2.6c-0.7,0-1.3,0.2-1.8,0.7c-0.5,0.4-0.8,1.1-0.8,1.9v5.3
		h-2v-5.3c0-0.9-0.2-1.6-0.5-2c-0.3-0.4-0.8-0.6-1.5-0.6c-0.7,0-1.3,0.2-1.8,0.7C552.8,221.7,552.6,222.4,552.6,223.3z"/>
	<path d="M573.9,218.7c1.3,0,2.4,0.4,3.3,1.3c0.9,0.9,1.4,2.1,1.4,3.5c0,1.5-0.5,2.7-1.4,3.6c-0.9,0.9-2,1.4-3.2,1.4
		s-2.3-0.5-3.2-1.6v4.9h-2v-13.1h2v1.7C571.6,219.3,572.6,218.7,573.9,218.7z M570.8,223.7c0,0.9,0.3,1.7,0.8,2.2s1.2,0.9,2,0.9
		s1.5-0.3,2.1-0.9s0.9-1.3,0.9-2.2c0-0.9-0.3-1.7-0.9-2.3s-1.3-0.9-2.1-0.9s-1.5,0.3-2,0.9S570.8,222.8,570.8,223.7z"/>
	<path d="M588.7,228.5h-1.8v-1.3c-0.8,0.9-1.9,1.4-3.2,1.4c-1,0-1.8-0.3-2.5-0.8c-0.7-0.6-1-1.3-1-2.3s0.3-1.6,1-2.1
		c0.7-0.5,1.6-0.7,2.8-0.7h2.6v-0.4c0-1.3-0.7-1.9-2.1-1.9c-0.9,0-1.8,0.3-2.8,1l-0.9-1.3c1.2-0.9,2.5-1.4,4-1.4
		c1.1,0,2,0.3,2.8,0.9c0.7,0.6,1.1,1.5,1.1,2.7V228.5z M586.6,224.9v-0.8h-2.3c-1.5,0-2.2,0.5-2.2,1.4c0,0.5,0.2,0.8,0.5,1.1
		c0.4,0.2,0.9,0.4,1.5,0.4s1.2-0.2,1.7-0.5C586.4,226,586.6,225.5,586.6,224.9z"/>
	<path d="M593.5,223.3v5.2h-2v-9.6h2v1.7c0.3-0.6,0.8-1,1.3-1.4c0.6-0.3,1.2-0.5,1.8-0.5c1.1,0,2,0.3,2.6,1c0.7,0.7,1,1.6,1,2.9v5.9
		h-2v-5.3c0-1.8-0.7-2.6-2.2-2.6c-0.7,0-1.3,0.2-1.8,0.7C593.7,221.7,593.5,222.4,593.5,223.3z"/>
	<path d="M604.2,232.3c-0.9,0-1.7-0.3-2.4-1l0.9-1.6c0.4,0.4,0.9,0.6,1.3,0.6s0.8-0.2,1.1-0.5c0.3-0.3,0.4-0.7,0.4-1.1
		c0-0.2-1.3-3.4-3.9-9.8h2.2l2.9,7.1l2.9-7.1h2.2l-4.6,11.4c-0.3,0.6-0.7,1.1-1.2,1.5C605.4,232.1,604.8,232.3,604.2,232.3z"/>
	<path d="M622.5,228.6c-1.3,0-2.5-0.5-3.4-1.4s-1.4-2.1-1.4-3.6c0-1.5,0.5-2.7,1.5-3.6c1-0.9,2.2-1.4,3.7-1.4c1.4,0,2.7,0.5,3.7,1.5
		l-1.2,1.5c-0.8-0.7-1.7-1.1-2.5-1.1s-1.6,0.3-2.2,0.8c-0.6,0.6-0.9,1.3-0.9,2.2s0.3,1.6,0.9,2.2c0.6,0.6,1.4,0.9,2.3,0.9
		c0.9,0,1.7-0.4,2.5-1.2l1.2,1.3C625.3,228,624,228.6,622.5,228.6z"/>
	<path d="M636.3,228.5h-1.8v-1.3c-0.8,0.9-1.9,1.4-3.2,1.4c-1,0-1.8-0.3-2.5-0.8c-0.7-0.6-1-1.3-1-2.3s0.3-1.6,1-2.1
		c0.7-0.5,1.6-0.7,2.8-0.7h2.6v-0.4c0-1.3-0.7-1.9-2.1-1.9c-0.9,0-1.8,0.3-2.8,1l-0.9-1.3c1.2-0.9,2.5-1.4,4-1.4
		c1.1,0,2,0.3,2.8,0.9c0.7,0.6,1.1,1.5,1.1,2.7V228.5z M634.3,224.9v-0.8H632c-1.5,0-2.2,0.5-2.2,1.4c0,0.5,0.2,0.8,0.5,1.1
		c0.4,0.2,0.9,0.4,1.5,0.4s1.2-0.2,1.7-0.5C634,226,634.3,225.5,634.3,224.9z"/>
	<path d="M641.1,228.5h-2v-13.4h2V228.5z"/>
	<path d="M646,228.5h-2v-13.4h2V228.5z"/>
	<path d="M657.9,224.6h-7.5c0,0.7,0.4,1.3,1,1.7c0.6,0.4,1.3,0.6,2,0.6c1.2,0,2.1-0.4,2.7-1.1l1.2,1.3c-1,1.1-2.4,1.6-4,1.6
		c-1.3,0-2.5-0.4-3.4-1.3s-1.4-2.1-1.4-3.6s0.5-2.7,1.4-3.6c1-0.9,2.1-1.3,3.4-1.3s2.4,0.4,3.3,1.2c0.9,0.8,1.4,1.9,1.4,3.2V224.6z
		 M650.4,223h5.5c0-0.8-0.3-1.4-0.8-1.9c-0.5-0.4-1.1-0.6-1.9-0.6c-0.7,0-1.4,0.2-2,0.7C650.7,221.6,650.4,222.2,650.4,223z"/>
	<path d="M660.8,227.2c-0.9-0.9-1.4-2.1-1.4-3.6c0-1.5,0.5-2.7,1.4-3.6c0.9-0.9,2-1.3,3.3-1.3s2.3,0.5,3.1,1.6v-5.3h2v13.4h-2V227
		c-0.7,1.1-1.8,1.6-3.3,1.6C662.8,228.6,661.7,228.1,660.8,227.2z M661.5,223.7c0,0.9,0.3,1.7,0.9,2.2s1.3,0.9,2.1,0.9
		s1.5-0.3,2-0.9c0.6-0.6,0.8-1.3,0.8-2.2c0-0.9-0.3-1.7-0.8-2.3c-0.6-0.6-1.2-0.9-2-0.9s-1.5,0.3-2.1,0.9
		C661.8,222,661.5,222.8,661.5,223.7z"/>
	<path d="M679.5,217.9v3.5h5.6v2h-5.6v5.2h-2.1v-12.6h8.4l0,2H679.5z"/>
	<path d="M694.5,224.1v-5.2h2v9.6h-2v-1.7c-0.3,0.6-0.8,1.1-1.3,1.4c-0.6,0.3-1.2,0.5-1.8,0.5c-1.1,0-2-0.3-2.6-1
		c-0.7-0.7-1-1.6-1-2.9v-5.9h2v5.3c0,1.8,0.7,2.6,2.2,2.6c0.7,0,1.3-0.2,1.8-0.7C694.2,225.6,694.5,225,694.5,224.1z"/>
	<path d="M701.4,228.5h-2v-13.4h2V228.5z"/>
	<path d="M706.3,228.5h-2v-13.4h2V228.5z"/>
	<path d="M720,228.5h-5.5v-12.6h4.9c0.9,0,1.6,0.1,2.2,0.3s1.1,0.5,1.4,0.8c0.6,0.6,0.9,1.4,0.9,2.2c0,1-0.3,1.7-0.9,2.2
		c-0.2,0.2-0.4,0.3-0.5,0.3c-0.1,0-0.2,0.1-0.4,0.2c0.8,0.2,1.4,0.5,1.9,1.1c0.5,0.5,0.7,1.2,0.7,2c0,0.9-0.3,1.7-0.9,2.3
		C722.9,228.1,721.7,228.5,720,228.5z M716.6,221.1h2.7c1.5,0,2.3-0.5,2.3-1.6c0-0.6-0.2-1-0.6-1.3c-0.4-0.3-0.9-0.4-1.7-0.4h-2.7
		V221.1z M716.6,226.5h3.3c0.8,0,1.4-0.1,1.8-0.4c0.4-0.2,0.6-0.7,0.6-1.4c0-1.1-0.9-1.7-2.7-1.7h-3.1V226.5z"/>
	<path d="M735.8,224.6h-7.5c0,0.7,0.4,1.3,1,1.7c0.6,0.4,1.3,0.6,2,0.6c1.2,0,2.1-0.4,2.7-1.1l1.2,1.3c-1,1.1-2.4,1.6-4,1.6
		c-1.3,0-2.5-0.4-3.4-1.3s-1.4-2.1-1.4-3.6s0.5-2.7,1.4-3.6c1-0.9,2.1-1.3,3.4-1.3s2.4,0.4,3.3,1.2c0.9,0.8,1.4,1.9,1.4,3.2V224.6z
		 M728.3,223h5.5c0-0.8-0.3-1.4-0.8-1.9c-0.5-0.4-1.1-0.6-1.9-0.6c-0.7,0-1.4,0.2-2,0.7C728.6,221.6,728.3,222.2,728.3,223z"/>
	<path d="M745.8,228.5h-1.8v-1.3c-0.8,0.9-1.9,1.4-3.2,1.4c-1,0-1.8-0.3-2.5-0.8c-0.7-0.6-1-1.3-1-2.3s0.3-1.6,1-2.1
		c0.7-0.5,1.6-0.7,2.8-0.7h2.6v-0.4c0-1.3-0.7-1.9-2.1-1.9c-0.9,0-1.8,0.3-2.8,1l-0.9-1.3c1.2-0.9,2.5-1.4,4-1.4
		c1.1,0,2,0.3,2.8,0.9c0.7,0.6,1.1,1.5,1.1,2.7V228.5z M743.8,224.9v-0.8h-2.3c-1.5,0-2.2,0.5-2.2,1.4c0,0.5,0.2,0.8,0.5,1.1
		c0.4,0.2,0.9,0.4,1.5,0.4s1.2-0.2,1.7-0.5C743.5,226,743.8,225.5,743.8,224.9z"/>
	<path d="M750.6,228.5h-2v-13.4h2v7.8l3.9-4.1h2.6l-3.6,3.8l3.9,5.8h-2.4l-2.8-4.2l-1.5,1.5V228.5z"/>
	<path d="M767.9,224.6h-7.5c0,0.7,0.4,1.3,1,1.7c0.6,0.4,1.3,0.6,2,0.6c1.2,0,2.1-0.4,2.7-1.1l1.2,1.3c-1,1.1-2.4,1.6-4,1.6
		c-1.3,0-2.5-0.4-3.4-1.3s-1.4-2.1-1.4-3.6s0.5-2.7,1.4-3.6c1-0.9,2.1-1.3,3.4-1.3s2.4,0.4,3.3,1.2c0.9,0.8,1.4,1.9,1.4,3.2V224.6z
		 M760.4,223h5.5c0-0.8-0.3-1.4-0.8-1.9c-0.5-0.4-1.1-0.6-1.9-0.6c-0.7,0-1.4,0.2-2,0.7C760.7,221.6,760.4,222.2,760.4,223z"/>
	<path d="M775.2,220.8c-1,0-1.7,0.3-2.2,1c-0.5,0.6-0.8,1.5-0.8,2.6v4.1h-2v-9.6h2v1.9c0.3-0.6,0.8-1.1,1.3-1.5
		c0.6-0.4,1.1-0.6,1.8-0.6l0,2C775.3,220.8,775.2,220.8,775.2,220.8z"/>
	<path d="M777,227.3c0-0.4,0.1-0.7,0.4-1c0.3-0.3,0.6-0.4,0.9-0.4c0.4,0,0.7,0.1,0.9,0.4c0.3,0.3,0.4,0.6,0.4,0.9s-0.2,0.8-0.5,1.3
		l-1.1,1.8h-1l0.7-1.9C777.3,228.2,777,227.9,777,227.3z"/>
	<path d="M791.8,228.5h-2.3l-3.3-9.6h2.1l2.4,7.2l2.4-7.2h2.1l2.4,7.2l2.4-7.2h2.1l-3.3,9.6h-2.3l-2.3-6.6L791.8,228.5z"/>
	<path d="M805.7,223.3v5.2h-2v-13.3h2v5.5c0.3-0.6,0.7-1,1.3-1.4s1.2-0.5,1.9-0.5c1.1,0,2,0.3,2.6,1c0.7,0.7,1,1.6,1,2.9v5.9h-2
		v-5.3c0-1.8-0.7-2.6-2.2-2.6c-0.7,0-1.3,0.2-1.8,0.7C806,221.7,805.7,222.4,805.7,223.3z"/>
	<path d="M824.3,224.6h-7.5c0,0.7,0.4,1.3,1,1.7c0.6,0.4,1.3,0.6,2,0.6c1.2,0,2.1-0.4,2.7-1.1l1.2,1.3c-1,1.1-2.4,1.6-4,1.6
		c-1.3,0-2.5-0.4-3.4-1.3s-1.4-2.1-1.4-3.6s0.5-2.7,1.4-3.6c1-0.9,2.1-1.3,3.4-1.3s2.4,0.4,3.3,1.2c0.9,0.8,1.4,1.9,1.4,3.2V224.6z
		 M816.7,223h5.5c0-0.8-0.3-1.4-0.8-1.9c-0.5-0.4-1.1-0.6-1.9-0.6c-0.7,0-1.4,0.2-2,0.7C817,221.6,816.7,222.2,816.7,223z"/>
	<path d="M831.5,220.8c-1,0-1.7,0.3-2.2,1c-0.5,0.6-0.8,1.5-0.8,2.6v4.1h-2v-9.6h2v1.9c0.3-0.6,0.8-1.1,1.3-1.5
		c0.6-0.4,1.1-0.6,1.8-0.6l0,2C831.6,220.8,831.5,220.8,831.5,220.8z"/>
	<path d="M842.5,224.6H835c0,0.7,0.4,1.3,1,1.7c0.6,0.4,1.3,0.6,2,0.6c1.2,0,2.1-0.4,2.7-1.1l1.2,1.3c-1,1.1-2.4,1.6-4,1.6
		c-1.3,0-2.5-0.4-3.4-1.3s-1.4-2.1-1.4-3.6s0.5-2.7,1.4-3.6c1-0.9,2.1-1.3,3.4-1.3s2.4,0.4,3.3,1.2c0.9,0.8,1.4,1.9,1.4,3.2V224.6z
		 M835,223h5.5c0-0.8-0.3-1.4-0.8-1.9c-0.5-0.4-1.1-0.6-1.9-0.6c-0.7,0-1.4,0.2-2,0.7C835.3,221.6,835,222.2,835,223z"/>
	<path d="M850,215.9h2.1v12.6H850V215.9z"/>
	<path d="M855.1,217.9c-0.3-0.2-0.5-0.5-0.5-0.9s0.1-0.7,0.3-0.9c0.2-0.2,0.5-0.3,0.8-0.3s0.6,0.1,0.8,0.3c0.2,0.2,0.3,0.5,0.3,0.8
		c0,0.3-0.1,0.7-0.3,1l-1.1,1.5h-1.1L855.1,217.9z"/>
	<path d="M861.2,223.3v5.2h-2v-9.6h2v1.7c0.3-0.6,0.7-1,1.3-1.4s1.2-0.5,1.9-0.5c1.5,0,2.5,0.6,3.1,1.9c0.9-1.2,2.1-1.9,3.5-1.9
		c1.1,0,2,0.3,2.6,1c0.7,0.7,1,1.6,1,2.9v5.9h-2v-5.3c0-1.8-0.7-2.6-2.2-2.6c-0.7,0-1.3,0.2-1.8,0.7c-0.5,0.4-0.8,1.1-0.8,1.9v5.3
		h-2v-5.3c0-0.9-0.2-1.6-0.5-2c-0.3-0.4-0.8-0.6-1.5-0.6c-0.7,0-1.3,0.2-1.8,0.7C861.5,221.7,861.2,222.4,861.2,223.3z"/>
	<path d="M344,250.6h-7.5c0,0.7,0.4,1.3,1,1.7c0.6,0.4,1.3,0.6,2,0.6c1.2,0,2.1-0.4,2.7-1.1l1.2,1.3c-1,1.1-2.4,1.6-4,1.6
		c-1.3,0-2.5-0.4-3.4-1.3s-1.4-2.1-1.4-3.6s0.5-2.7,1.4-3.6c1-0.9,2.1-1.3,3.4-1.3c1.3,0,2.4,0.4,3.3,1.2c0.9,0.8,1.4,1.9,1.4,3.2
		V250.6z M336.5,249h5.5c0-0.8-0.3-1.4-0.8-1.9c-0.5-0.4-1.1-0.6-1.9-0.6c-0.7,0-1.4,0.2-2,0.7C336.8,247.6,336.5,248.2,336.5,249z"
		/>
	<path d="M347.5,244.9l2.1,3.2l2.1-3.2h2.4l-3.3,4.7l3.5,4.9h-2.5l-2.3-3.2l-2.2,3.2h-2.4l3.4-4.9l-3.2-4.7H347.5z"/>
	<path d="M361.2,244.7c1.3,0,2.4,0.4,3.3,1.3c0.9,0.9,1.4,2.1,1.4,3.5c0,1.5-0.5,2.7-1.4,3.6c-0.9,0.9-2,1.4-3.2,1.4
		s-2.3-0.5-3.2-1.6v4.9h-2v-13.1h2v1.7C358.8,245.3,359.9,244.7,361.2,244.7z M358,249.7c0,0.9,0.3,1.7,0.8,2.2
		c0.6,0.6,1.2,0.9,2,0.9s1.5-0.3,2.1-0.9c0.6-0.6,0.9-1.3,0.9-2.2c0-0.9-0.3-1.7-0.9-2.3c-0.6-0.6-1.3-0.9-2.1-0.9
		c-0.8,0-1.5,0.3-2,0.9C358.3,248,358,248.8,358,249.7z"/>
	<path d="M370.1,254.5h-2v-13.4h2V254.5z"/>
	<path d="M381.1,253.2c-1,1-2.2,1.4-3.6,1.4s-2.6-0.5-3.6-1.4c-1-1-1.4-2.1-1.4-3.5c0-1.4,0.5-2.5,1.4-3.5c1-1,2.2-1.4,3.6-1.4
		s2.6,0.5,3.6,1.4s1.4,2.1,1.4,3.5C382.5,251,382,252.2,381.1,253.2z M375.3,251.9c0.6,0.6,1.3,0.9,2.2,0.9c0.9,0,1.6-0.3,2.2-0.9
		c0.6-0.6,0.9-1.3,0.9-2.3c0-0.9-0.3-1.7-0.9-2.3c-0.6-0.6-1.3-0.9-2.2-0.9c-0.9,0-1.6,0.3-2.2,0.9c-0.6,0.6-0.9,1.3-0.9,2.3
		C374.4,250.6,374.7,251.3,375.3,251.9z"/>
	<path d="M389.8,246.8c-1,0-1.7,0.3-2.2,1s-0.8,1.5-0.8,2.6v4.1h-2v-9.6h2v1.9c0.3-0.6,0.8-1.1,1.3-1.5c0.6-0.4,1.1-0.6,1.8-0.6l0,2
		C389.9,246.8,389.8,246.8,389.8,246.8z"/>
	<path d="M392.1,243c-0.3-0.3-0.4-0.6-0.4-0.9s0.1-0.6,0.4-0.9s0.6-0.4,0.9-0.4s0.6,0.1,0.9,0.4c0.3,0.3,0.4,0.6,0.4,0.9
		s-0.1,0.6-0.4,0.9c-0.3,0.3-0.6,0.4-0.9,0.4S392.3,243.2,392.1,243z M394,254.5h-2v-9.6h2V254.5z"/>
	<path d="M398.9,249.3v5.2h-2v-9.6h2v1.7c0.3-0.6,0.8-1,1.3-1.4s1.2-0.5,1.8-0.5c1.1,0,2,0.3,2.6,1c0.7,0.7,1,1.6,1,2.9v5.9h-2v-5.3
		c0-1.8-0.7-2.6-2.2-2.6c-0.7,0-1.3,0.2-1.8,0.7C399.1,247.7,398.9,248.4,398.9,249.3z"/>
	<path d="M417.4,244.9v8.4c0,1.7-0.5,3-1.4,3.8s-2.1,1.3-3.5,1.3s-2.7-0.5-3.9-1.4l1-1.5c0.9,0.7,1.9,1.1,2.8,1.1
		c1,0,1.7-0.2,2.3-0.7c0.6-0.5,0.8-1.3,0.8-2.4v-1.2c-0.3,0.6-0.7,1-1.3,1.4s-1.2,0.5-1.9,0.5c-1.3,0-2.3-0.4-3.1-1.3
		c-0.8-0.9-1.2-2-1.2-3.3c0-1.3,0.4-2.4,1.2-3.3c0.8-0.9,1.9-1.3,3.1-1.3s2.3,0.5,3.1,1.6v-1.4H417.4z M409.9,249.3
		c0,0.8,0.2,1.5,0.7,2c0.5,0.6,1.1,0.9,2,0.9c0.8,0,1.5-0.3,2-0.8c0.5-0.6,0.8-1.2,0.8-2.1c0-0.8-0.3-1.5-0.8-2.1
		c-0.5-0.6-1.2-0.9-2-0.9s-1.5,0.3-2,0.9C410.1,247.8,409.9,248.5,409.9,249.3z"/>
	<path d="M429.7,254.5h-2.3l-3.3-9.6h2.1l2.4,7.2l2.4-7.2h2.1l2.4,7.2l2.4-7.2h2.1l-3.3,9.6h-2.3l-2.3-6.6L429.7,254.5z"/>
	<path d="M443.6,249.3v5.2h-2v-13.3h2v5.5c0.3-0.6,0.7-1,1.3-1.4s1.2-0.5,1.9-0.5c1.1,0,2,0.3,2.6,1c0.7,0.7,1,1.6,1,2.9v5.9h-2
		v-5.3c0-1.8-0.7-2.6-2.2-2.6c-0.7,0-1.3,0.2-1.8,0.7C443.9,247.7,443.6,248.4,443.6,249.3z"/>
	<path d="M461,254.5h-1.8v-1.3c-0.8,0.9-1.9,1.4-3.2,1.4c-1,0-1.8-0.3-2.5-0.8c-0.7-0.6-1-1.3-1-2.3s0.3-1.6,1-2.1
		c0.7-0.5,1.6-0.7,2.8-0.7h2.6v-0.4c0-1.3-0.7-1.9-2.1-1.9c-0.9,0-1.8,0.3-2.8,1l-0.9-1.3c1.2-0.9,2.5-1.4,4-1.4
		c1.1,0,2,0.3,2.8,0.9c0.7,0.6,1.1,1.5,1.1,2.7V254.5z M459,250.9v-0.8h-2.3c-1.5,0-2.2,0.5-2.2,1.4c0,0.5,0.2,0.8,0.5,1.1
		c0.4,0.2,0.9,0.4,1.5,0.4s1.2-0.2,1.7-0.5S459,251.5,459,250.9z"/>
	<path d="M466.2,246.5v4.9c0,0.5,0.1,0.8,0.4,1.1s0.6,0.4,1,0.4c0.4,0,0.8-0.2,1.2-0.6l0.8,1.4c-0.7,0.6-1.5,1-2.3,1
		c-0.9,0-1.6-0.3-2.2-0.9c-0.6-0.6-0.9-1.4-0.9-2.4v-4.8H463v-1.6h1.2v-3h2v3h2.5v1.6H466.2z"/>
	<path d="M476.3,243c-0.3-0.3-0.4-0.6-0.4-0.9s0.1-0.6,0.4-0.9s0.6-0.4,0.9-0.4c0.3,0,0.6,0.1,0.9,0.4s0.4,0.6,0.4,0.9
		s-0.1,0.6-0.4,0.9s-0.6,0.4-0.9,0.4C476.8,243.4,476.5,243.2,476.3,243z M478.2,254.5h-2v-9.6h2V254.5z"/>
	<path d="M483.6,246.5v4.9c0,0.5,0.1,0.8,0.4,1.1s0.6,0.4,1,0.4c0.4,0,0.8-0.2,1.2-0.6l0.8,1.4c-0.7,0.6-1.5,1-2.3,1
		c-0.9,0-1.6-0.3-2.2-0.9c-0.6-0.6-0.9-1.4-0.9-2.4v-4.8h-1.2v-1.6h1.2v-3h2v3h2.5v1.6H483.6z"/>
	<path d="M496,246.5v4.9c0,0.5,0.1,0.8,0.4,1.1s0.6,0.4,1,0.4c0.4,0,0.8-0.2,1.2-0.6l0.8,1.4c-0.7,0.6-1.5,1-2.3,1
		c-0.9,0-1.6-0.3-2.2-0.9c-0.6-0.6-0.9-1.4-0.9-2.4v-4.8h-1.2v-1.6h1.2v-3h2v3h2.5v1.6H496z"/>
	<path d="M508.8,254.5H507v-1.3c-0.8,0.9-1.9,1.4-3.2,1.4c-1,0-1.8-0.3-2.5-0.8c-0.7-0.6-1-1.3-1-2.3s0.3-1.6,1-2.1
		c0.7-0.5,1.6-0.7,2.8-0.7h2.6v-0.4c0-1.3-0.7-1.9-2.1-1.9c-0.9,0-1.8,0.3-2.8,1l-0.9-1.3c1.2-0.9,2.5-1.4,4-1.4
		c1.1,0,2,0.3,2.8,0.9c0.7,0.6,1.1,1.5,1.1,2.7V254.5z M506.8,250.9v-0.8h-2.3c-1.5,0-2.2,0.5-2.2,1.4c0,0.5,0.2,0.8,0.5,1.1
		c0.4,0.2,0.9,0.4,1.5,0.4s1.2-0.2,1.7-0.5C506.6,252,506.8,251.5,506.8,250.9z"/>
	<path d="M513.6,254.5h-2v-13.4h2v7.8l3.9-4.1h2.6l-3.6,3.8l3.9,5.8H518l-2.8-4.2l-1.5,1.5V254.5z"/>
	<path d="M531,250.6h-7.5c0,0.7,0.4,1.3,1,1.7c0.6,0.4,1.3,0.6,2,0.6c1.2,0,2.1-0.4,2.7-1.1l1.2,1.3c-1,1.1-2.4,1.6-4,1.6
		c-1.3,0-2.5-0.4-3.4-1.3s-1.4-2.1-1.4-3.6s0.5-2.7,1.4-3.6c1-0.9,2.1-1.3,3.4-1.3s2.4,0.4,3.3,1.2c0.9,0.8,1.4,1.9,1.4,3.2V250.6z
		 M523.5,249h5.5c0-0.8-0.3-1.4-0.8-1.9c-0.5-0.4-1.1-0.6-1.9-0.6c-0.7,0-1.4,0.2-2,0.7C523.8,247.6,523.5,248.2,523.5,249z"/>
	<path d="M540,251.6c0,0.9-0.3,1.6-1,2.2s-1.5,0.8-2.5,0.8c-0.7,0-1.4-0.1-2.2-0.4s-1.4-0.6-2-1.1l1-1.6c1.1,0.8,2.2,1.3,3.2,1.3
		c0.5,0,0.8-0.1,1.1-0.3s0.4-0.5,0.4-0.8c0-0.5-0.6-0.9-1.9-1.3c-0.1,0-0.2-0.1-0.2-0.1c-2-0.5-3-1.4-3-2.7c0-0.9,0.3-1.6,1-2.1
		c0.7-0.5,1.6-0.8,2.7-0.8c1.1,0,2.1,0.3,3.1,1l-0.8,1.5c-0.8-0.5-1.6-0.8-2.5-0.8c-0.5,0-0.9,0.1-1.2,0.3c-0.3,0.2-0.5,0.4-0.5,0.8
		c0,0.3,0.2,0.5,0.5,0.7c0.2,0.1,0.5,0.2,0.9,0.3c0.4,0.1,0.7,0.2,1,0.3c0.3,0.1,0.6,0.2,0.9,0.3c0.3,0.1,0.6,0.3,0.9,0.5
		C539.7,250,540,250.7,540,251.6z"/>
	<path d="M549.7,246.5v4.9c0,0.5,0.1,0.8,0.4,1.1s0.6,0.4,1,0.4c0.4,0,0.8-0.2,1.2-0.6l0.8,1.4c-0.7,0.6-1.5,1-2.3,1
		c-0.9,0-1.6-0.3-2.2-0.9c-0.6-0.6-0.9-1.4-0.9-2.4v-4.8h-1.2v-1.6h1.2v-3h2v3h2.5v1.6H549.7z"/>
	<path d="M562.7,253.2c-1,1-2.2,1.4-3.6,1.4c-1.4,0-2.6-0.5-3.6-1.4s-1.4-2.1-1.4-3.5c0-1.4,0.5-2.5,1.4-3.5s2.2-1.4,3.6-1.4
		c1.4,0,2.6,0.5,3.6,1.4s1.4,2.1,1.4,3.5C564.2,251,563.7,252.2,562.7,253.2z M556.9,251.9c0.6,0.6,1.3,0.9,2.2,0.9s1.6-0.3,2.2-0.9
		c0.6-0.6,0.9-1.3,0.9-2.3c0-0.9-0.3-1.7-0.9-2.3c-0.6-0.6-1.3-0.9-2.2-0.9s-1.6,0.3-2.2,0.9c-0.6,0.6-0.9,1.3-0.9,2.3
		C556.1,250.6,556.4,251.3,556.9,251.9z"/>
	<path d="M579.1,254.5h-1.8v-1.3c-0.8,0.9-1.9,1.4-3.2,1.4c-1,0-1.8-0.3-2.5-0.8c-0.7-0.6-1-1.3-1-2.3s0.3-1.6,1-2.1
		c0.7-0.5,1.6-0.7,2.8-0.7h2.6v-0.4c0-1.3-0.7-1.9-2.1-1.9c-0.9,0-1.8,0.3-2.8,1l-0.9-1.3c1.2-0.9,2.5-1.4,4-1.4
		c1.1,0,2,0.3,2.8,0.9c0.7,0.6,1.1,1.5,1.1,2.7V254.5z M577.1,250.9v-0.8h-2.3c-1.5,0-2.2,0.5-2.2,1.4c0,0.5,0.2,0.8,0.5,1.1
		c0.4,0.2,0.9,0.4,1.5,0.4s1.2-0.2,1.7-0.5C576.9,252,577.1,251.5,577.1,250.9z"/>
	<path d="M586.2,254.6c-1.3,0-2.5-0.5-3.4-1.4s-1.4-2.1-1.4-3.6c0-1.5,0.5-2.7,1.5-3.6c1-0.9,2.2-1.4,3.7-1.4c1.4,0,2.7,0.5,3.7,1.5
		l-1.2,1.5c-0.8-0.7-1.7-1.1-2.5-1.1s-1.6,0.3-2.2,0.8c-0.6,0.6-0.9,1.3-0.9,2.2s0.3,1.6,0.9,2.2c0.6,0.6,1.4,0.9,2.3,0.9
		c0.9,0,1.7-0.4,2.5-1.2l1.2,1.3C589.1,254,587.7,254.6,586.2,254.6z"/>
	<path d="M594.8,246.5v4.9c0,0.5,0.1,0.8,0.4,1.1s0.6,0.4,1,0.4c0.4,0,0.8-0.2,1.2-0.6l0.8,1.4c-0.7,0.6-1.5,1-2.3,1
		c-0.9,0-1.6-0.3-2.2-0.9c-0.6-0.6-0.9-1.4-0.9-2.4v-4.8h-1.2v-1.6h1.2v-3h2v3h2.5v1.6H594.8z"/>
	<path d="M606.5,250.1v-5.2h2v9.6h-2v-1.7c-0.3,0.6-0.8,1.1-1.3,1.4c-0.6,0.3-1.2,0.5-1.8,0.5c-1.1,0-2-0.3-2.6-1
		c-0.7-0.7-1-1.6-1-2.9v-5.9h2v5.3c0,1.8,0.7,2.6,2.2,2.6c0.7,0,1.3-0.2,1.8-0.7C606.3,251.6,606.5,251,606.5,250.1z"/>
	<path d="M619.2,254.5h-1.8v-1.3c-0.8,0.9-1.9,1.4-3.2,1.4c-1,0-1.8-0.3-2.5-0.8c-0.7-0.6-1-1.3-1-2.3s0.3-1.6,1-2.1
		c0.7-0.5,1.6-0.7,2.8-0.7h2.6v-0.4c0-1.3-0.7-1.9-2.1-1.9c-0.9,0-1.8,0.3-2.8,1l-0.9-1.3c1.2-0.9,2.5-1.4,4-1.4
		c1.1,0,2,0.3,2.8,0.9c0.7,0.6,1.1,1.5,1.1,2.7V254.5z M617.2,250.9v-0.8h-2.3c-1.5,0-2.2,0.5-2.2,1.4c0,0.5,0.2,0.8,0.5,1.1
		c0.4,0.2,0.9,0.4,1.5,0.4s1.2-0.2,1.7-0.5C617,252,617.2,251.5,617.2,250.9z"/>
	<path d="M624,254.5h-2v-13.4h2V254.5z"/>
	<path d="M629,254.5h-2v-13.4h2V254.5z"/>
	<path d="M633.1,258.3c-0.9,0-1.7-0.3-2.4-1l0.9-1.6c0.4,0.4,0.9,0.6,1.3,0.6s0.8-0.2,1.1-0.5c0.3-0.3,0.4-0.7,0.4-1.1
		c0-0.2-1.3-3.4-3.9-9.8h2.2l2.9,7.1l2.9-7.1h2.2l-4.6,11.4c-0.3,0.6-0.7,1.1-1.2,1.5C634.3,258.1,633.7,258.3,633.1,258.3z"/>
	<path d="M649.2,249.3v5.2h-2v-9.6h2v1.7c0.3-0.6,0.7-1,1.3-1.4s1.2-0.5,1.9-0.5c1.5,0,2.5,0.6,3.1,1.9c0.9-1.2,2.1-1.9,3.5-1.9
		c1.1,0,2,0.3,2.6,1c0.7,0.7,1,1.6,1,2.9v5.9h-2v-5.3c0-1.8-0.7-2.6-2.2-2.6c-0.7,0-1.3,0.2-1.8,0.7c-0.5,0.4-0.8,1.1-0.8,1.9v5.3
		h-2v-5.3c0-0.9-0.2-1.6-0.5-2c-0.3-0.4-0.8-0.6-1.5-0.6c-0.7,0-1.3,0.2-1.8,0.7C649.4,247.7,649.2,248.4,649.2,249.3z"/>
	<path d="M673.2,254.5h-1.8v-1.3c-0.8,0.9-1.9,1.4-3.2,1.4c-1,0-1.8-0.3-2.5-0.8c-0.7-0.6-1-1.3-1-2.3s0.3-1.6,1-2.1
		c0.7-0.5,1.6-0.7,2.8-0.7h2.6v-0.4c0-1.3-0.7-1.9-2.1-1.9c-0.9,0-1.8,0.3-2.8,1l-0.9-1.3c1.2-0.9,2.5-1.4,4-1.4
		c1.1,0,2,0.3,2.8,0.9c0.7,0.6,1.1,1.5,1.1,2.7V254.5z M671.1,250.9v-0.8h-2.3c-1.5,0-2.2,0.5-2.2,1.4c0,0.5,0.2,0.8,0.5,1.1
		c0.4,0.2,0.9,0.4,1.5,0.4s1.2-0.2,1.7-0.5C670.9,252,671.1,251.5,671.1,250.9z"/>
	<path d="M676.1,243c-0.3-0.3-0.4-0.6-0.4-0.9s0.1-0.6,0.4-0.9s0.6-0.4,0.9-0.4c0.3,0,0.6,0.1,0.9,0.4s0.4,0.6,0.4,0.9
		s-0.1,0.6-0.4,0.9s-0.6,0.4-0.9,0.4C676.6,243.4,676.3,243.2,676.1,243z M678,254.5h-2v-9.6h2V254.5z"/>
	<path d="M682.9,249.3v5.2h-2v-9.6h2v1.7c0.3-0.6,0.8-1,1.3-1.4c0.6-0.3,1.2-0.5,1.8-0.5c1.1,0,2,0.3,2.6,1c0.7,0.7,1,1.6,1,2.9v5.9
		h-2v-5.3c0-1.8-0.7-2.6-2.2-2.6c-0.7,0-1.3,0.2-1.8,0.7C683.2,247.7,682.9,248.4,682.9,249.3z"/>
	<path d="M694.9,246.5v4.9c0,0.5,0.1,0.8,0.4,1.1s0.6,0.4,1,0.4c0.4,0,0.8-0.2,1.2-0.6l0.8,1.4c-0.7,0.6-1.5,1-2.3,1
		c-0.9,0-1.6-0.3-2.2-0.9c-0.6-0.6-0.9-1.4-0.9-2.4v-4.8h-1.2v-1.6h1.2v-3h2v3h2.5v1.6H694.9z"/>
	<path d="M707.7,254.5h-1.8v-1.3c-0.8,0.9-1.9,1.4-3.2,1.4c-1,0-1.8-0.3-2.5-0.8c-0.7-0.6-1-1.3-1-2.3s0.3-1.6,1-2.1
		c0.7-0.5,1.6-0.7,2.8-0.7h2.6v-0.4c0-1.3-0.7-1.9-2.1-1.9c-0.9,0-1.8,0.3-2.8,1l-0.9-1.3c1.2-0.9,2.5-1.4,4-1.4
		c1.1,0,2,0.3,2.8,0.9c0.7,0.6,1.1,1.5,1.1,2.7V254.5z M705.7,250.9v-0.8h-2.3c-1.5,0-2.2,0.5-2.2,1.4c0,0.5,0.2,0.8,0.5,1.1
		c0.4,0.2,0.9,0.4,1.5,0.4s1.2-0.2,1.7-0.5C705.4,252,705.7,251.5,705.7,250.9z"/>
	<path d="M710.6,243c-0.3-0.3-0.4-0.6-0.4-0.9s0.1-0.6,0.4-0.9s0.6-0.4,0.9-0.4c0.3,0,0.6,0.1,0.9,0.4s0.4,0.6,0.4,0.9
		s-0.1,0.6-0.4,0.9s-0.6,0.4-0.9,0.4C711.2,243.4,710.9,243.2,710.6,243z M712.5,254.5h-2v-9.6h2V254.5z"/>
	<path d="M717.4,249.3v5.2h-2v-9.6h2v1.7c0.3-0.6,0.8-1,1.3-1.4c0.6-0.3,1.2-0.5,1.8-0.5c1.1,0,2,0.3,2.6,1c0.7,0.7,1,1.6,1,2.9v5.9
		h-2v-5.3c0-1.8-0.7-2.6-2.2-2.6c-0.7,0-1.3,0.2-1.8,0.7C717.7,247.7,717.4,248.4,717.4,249.3z"/>
	<path d="M739.7,254.5h-1.8v-1.3c-0.8,0.9-1.9,1.4-3.2,1.4c-1,0-1.8-0.3-2.5-0.8c-0.7-0.6-1-1.3-1-2.3s0.3-1.6,1-2.1
		c0.7-0.5,1.6-0.7,2.8-0.7h2.6v-0.4c0-1.3-0.7-1.9-2.1-1.9c-0.9,0-1.8,0.3-2.8,1l-0.9-1.3c1.2-0.9,2.5-1.4,4-1.4
		c1.1,0,2,0.3,2.8,0.9c0.7,0.6,1.1,1.5,1.1,2.7V254.5z M737.7,250.9v-0.8h-2.3c-1.5,0-2.2,0.5-2.2,1.4c0,0.5,0.2,0.8,0.5,1.1
		c0.4,0.2,0.9,0.4,1.5,0.4s1.2-0.2,1.7-0.5C737.5,252,737.7,251.5,737.7,250.9z"/>
	<path d="M744.6,249.3v5.2h-2v-9.6h2v1.7c0.3-0.6,0.8-1,1.3-1.4c0.6-0.3,1.2-0.5,1.8-0.5c1.1,0,2,0.3,2.6,1c0.7,0.7,1,1.6,1,2.9v5.9
		h-2v-5.3c0-1.8-0.7-2.6-2.2-2.6c-0.7,0-1.3,0.2-1.8,0.7C744.8,247.7,744.6,248.4,744.6,249.3z"/>
	<path d="M754.9,253.2c-0.9-0.9-1.4-2.1-1.4-3.6c0-1.5,0.5-2.7,1.4-3.6c0.9-0.9,2-1.3,3.3-1.3s2.3,0.5,3.1,1.6v-5.3h2v13.4h-2V253
		c-0.7,1.1-1.8,1.6-3.3,1.6C756.9,254.6,755.8,254.1,754.9,253.2z M755.6,249.7c0,0.9,0.3,1.7,0.9,2.2s1.3,0.9,2.1,0.9
		s1.5-0.3,2-0.9c0.6-0.6,0.8-1.3,0.8-2.2c0-0.9-0.3-1.7-0.8-2.3c-0.6-0.6-1.2-0.9-2-0.9s-1.5,0.3-2.1,0.9
		C755.9,248,755.6,248.8,755.6,249.7z"/>
	<path d="M779.2,253.2c-1,1-2.2,1.4-3.6,1.4c-1.4,0-2.6-0.5-3.6-1.4s-1.4-2.1-1.4-3.5c0-1.4,0.5-2.5,1.4-3.5s2.2-1.4,3.6-1.4
		c1.4,0,2.6,0.5,3.6,1.4s1.4,2.1,1.4,3.5C780.7,251,780.2,252.2,779.2,253.2z M773.4,251.9c0.6,0.6,1.3,0.9,2.2,0.9s1.6-0.3,2.2-0.9
		c0.6-0.6,0.9-1.3,0.9-2.3c0-0.9-0.3-1.7-0.9-2.3c-0.6-0.6-1.3-0.9-2.2-0.9s-1.6,0.3-2.2,0.9c-0.6,0.6-0.9,1.3-0.9,2.3
		C772.6,250.6,772.9,251.3,773.4,251.9z"/>
	<path d="M788.1,244.7c1.3,0,2.4,0.4,3.3,1.3c0.9,0.9,1.4,2.1,1.4,3.5c0,1.5-0.5,2.7-1.4,3.6c-0.9,0.9-2,1.4-3.2,1.4
		s-2.3-0.5-3.2-1.6v4.9h-2v-13.1h2v1.7C785.8,245.3,786.8,244.7,788.1,244.7z M784.9,249.7c0,0.9,0.3,1.7,0.8,2.2s1.2,0.9,2,0.9
		s1.5-0.3,2.1-0.9s0.9-1.3,0.9-2.2c0-0.9-0.3-1.7-0.9-2.3s-1.3-0.9-2.1-0.9s-1.5,0.3-2,0.9S784.9,248.8,784.9,249.7z"/>
	<path d="M797.5,246.5v4.9c0,0.5,0.1,0.8,0.4,1.1s0.6,0.4,1,0.4c0.4,0,0.8-0.2,1.2-0.6l0.8,1.4c-0.7,0.6-1.5,1-2.3,1
		c-0.9,0-1.6-0.3-2.2-0.9c-0.6-0.6-0.9-1.4-0.9-2.4v-4.8h-1.2v-1.6h1.2v-3h2v3h2.5v1.6H797.5z"/>
	<path d="M802.7,243c-0.3-0.3-0.4-0.6-0.4-0.9s0.1-0.6,0.4-0.9s0.6-0.4,0.9-0.4c0.3,0,0.6,0.1,0.9,0.4s0.4,0.6,0.4,0.9
		s-0.1,0.6-0.4,0.9s-0.6,0.4-0.9,0.4C803.2,243.4,802.9,243.2,802.7,243z M804.6,254.5h-2v-9.6h2V254.5z"/>
	<path d="M809.5,249.3v5.2h-2v-9.6h2v1.7c0.3-0.6,0.7-1,1.3-1.4s1.2-0.5,1.9-0.5c1.5,0,2.5,0.6,3.1,1.9c0.9-1.2,2.1-1.9,3.5-1.9
		c1.1,0,2,0.3,2.6,1c0.7,0.7,1,1.6,1,2.9v5.9h-2v-5.3c0-1.8-0.7-2.6-2.2-2.6c-0.7,0-1.3,0.2-1.8,0.7c-0.5,0.4-0.8,1.1-0.8,1.9v5.3
		h-2v-5.3c0-0.9-0.2-1.6-0.5-2c-0.3-0.4-0.8-0.6-1.5-0.6c-0.7,0-1.3,0.2-1.8,0.7C809.8,247.7,809.5,248.4,809.5,249.3z"/>
	<path d="M825.9,243c-0.3-0.3-0.4-0.6-0.4-0.9s0.1-0.6,0.4-0.9s0.6-0.4,0.9-0.4c0.3,0,0.6,0.1,0.9,0.4s0.4,0.6,0.4,0.9
		s-0.1,0.6-0.4,0.9s-0.6,0.4-0.9,0.4C826.4,243.4,826.1,243.2,825.9,243z M827.8,254.5h-2v-9.6h2V254.5z"/>
	<path d="M830.4,246.6v-1.7h7.5v1.8l-5.4,6h5.7v1.7H830v-2l5.2-5.9H830.4z"/>
	<path d="M849.3,250.6h-7.5c0,0.7,0.4,1.3,1,1.7c0.6,0.4,1.3,0.6,2,0.6c1.2,0,2.1-0.4,2.7-1.1l1.2,1.3c-1,1.1-2.4,1.6-4,1.6
		c-1.3,0-2.5-0.4-3.4-1.3s-1.4-2.1-1.4-3.6s0.5-2.7,1.4-3.6c1-0.9,2.1-1.3,3.4-1.3s2.4,0.4,3.3,1.2c0.9,0.8,1.4,1.9,1.4,3.2V250.6z
		 M841.8,249h5.5c0-0.8-0.3-1.4-0.8-1.9c-0.5-0.4-1.1-0.6-1.9-0.6c-0.7,0-1.4,0.2-2,0.7C842.1,247.6,841.8,248.2,841.8,249z"/>
	<path d="M864.2,254.5h-1.8v-1.3c-0.8,0.9-1.9,1.4-3.2,1.4c-1,0-1.8-0.3-2.5-0.8c-0.7-0.6-1-1.3-1-2.3s0.3-1.6,1-2.1
		c0.7-0.5,1.6-0.7,2.8-0.7h2.6v-0.4c0-1.3-0.7-1.9-2.1-1.9c-0.9,0-1.8,0.3-2.8,1l-0.9-1.3c1.2-0.9,2.5-1.4,4-1.4
		c1.1,0,2,0.3,2.8,0.9c0.7,0.6,1.1,1.5,1.1,2.7V254.5z M862.2,250.9v-0.8h-2.3c-1.5,0-2.2,0.5-2.2,1.4c0,0.5,0.2,0.8,0.5,1.1
		c0.4,0.2,0.9,0.4,1.5,0.4s1.2-0.2,1.7-0.5C862,252,862.2,251.5,862.2,250.9z"/>
	<path d="M340.2,270.7c1.3,0,2.4,0.4,3.3,1.3c0.9,0.9,1.4,2.1,1.4,3.5s-0.5,2.7-1.4,3.6c-0.9,0.9-2,1.4-3.2,1.4s-2.3-0.5-3.2-1.6
		v4.9h-2v-13.1h2v1.7C337.9,271.3,338.9,270.7,340.2,270.7z M337,275.7c0,0.9,0.3,1.7,0.8,2.2c0.6,0.6,1.2,0.9,2,0.9
		s1.5-0.3,2.1-0.9c0.6-0.6,0.9-1.3,0.9-2.2s-0.3-1.7-0.9-2.3c-0.6-0.6-1.3-0.9-2.1-0.9c-0.8,0-1.5,0.3-2,0.9
		C337.3,274,337,274.8,337,275.7z"/>
	<path d="M352.2,272.8c-1,0-1.7,0.3-2.2,1s-0.8,1.5-0.8,2.6v4.1h-2v-9.6h2v1.9c0.3-0.6,0.8-1.1,1.3-1.5c0.6-0.4,1.1-0.6,1.8-0.6l0,2
		C352.2,272.8,352.2,272.8,352.2,272.8z"/>
	<path d="M362.1,279.2c-1,1-2.2,1.4-3.6,1.4s-2.6-0.5-3.6-1.4c-1-1-1.4-2.1-1.4-3.5c0-1.4,0.5-2.5,1.4-3.5c1-1,2.2-1.4,3.6-1.4
		s2.6,0.5,3.6,1.4s1.4,2.1,1.4,3.5C363.6,277,363.1,278.2,362.1,279.2z M356.4,277.9c0.6,0.6,1.3,0.9,2.2,0.9c0.9,0,1.6-0.3,2.2-0.9
		c0.6-0.6,0.9-1.3,0.9-2.3s-0.3-1.7-0.9-2.3c-0.6-0.6-1.3-0.9-2.2-0.9c-0.9,0-1.6,0.3-2.2,0.9c-0.6,0.6-0.9,1.3-0.9,2.3
		S355.8,277.3,356.4,277.9z"/>
	<path d="M366.6,279.2c-0.9-0.9-1.3-2.1-1.3-3.6c0-1.5,0.5-2.7,1.4-3.6c0.9-0.9,2-1.3,3.3-1.3c1.3,0,2.3,0.5,3.1,1.6v-5.3h2v13.4h-2
		V279c-0.7,1.1-1.8,1.6-3.3,1.6C368.5,280.6,367.5,280.1,366.6,279.2z M367.3,275.7c0,0.9,0.3,1.7,0.9,2.2c0.6,0.6,1.3,0.9,2.1,0.9
		s1.5-0.3,2-0.9c0.6-0.6,0.8-1.3,0.8-2.2c0-0.9-0.3-1.7-0.8-2.3c-0.6-0.6-1.2-0.9-2-0.9c-0.8,0-1.5,0.3-2.1,0.9
		C367.5,274,367.3,274.8,367.3,275.7z"/>
	<path d="M384.6,276.1v-5.2h2v9.6h-2v-1.7c-0.3,0.6-0.8,1-1.3,1.4c-0.6,0.3-1.2,0.5-1.8,0.5c-1.1,0-2-0.3-2.6-1
		c-0.7-0.7-1-1.6-1-2.9v-5.9h2v5.3c0,1.8,0.7,2.6,2.2,2.6c0.7,0,1.3-0.2,1.8-0.7S384.6,277,384.6,276.1z"/>
	<path d="M393.8,280.6c-1.3,0-2.5-0.5-3.4-1.4c-1-0.9-1.4-2.1-1.4-3.6c0-1.5,0.5-2.7,1.5-3.6s2.2-1.4,3.7-1.4s2.7,0.5,3.7,1.5
		l-1.2,1.5c-0.8-0.7-1.7-1.1-2.5-1.1c-0.8,0-1.6,0.3-2.2,0.8c-0.6,0.6-0.9,1.3-0.9,2.2c0,0.9,0.3,1.6,0.9,2.2
		c0.6,0.6,1.4,0.9,2.3,0.9s1.7-0.4,2.5-1.2l1.2,1.3C396.7,280,395.3,280.6,393.8,280.6z"/>
	<path d="M402.4,272.5v4.9c0,0.5,0.1,0.8,0.4,1.1c0.2,0.3,0.6,0.4,1,0.4s0.8-0.2,1.2-0.6l0.8,1.4c-0.7,0.6-1.5,1-2.3,1
		s-1.6-0.3-2.2-0.9s-0.9-1.4-0.9-2.4v-4.8h-1.2v-1.6h1.2v-3h2v3h2.5v1.6H402.4z"/>
	<path d="M420.4,279.2c-1,1-2.2,1.4-3.6,1.4s-2.6-0.5-3.6-1.4c-1-1-1.4-2.1-1.4-3.5c0-1.4,0.5-2.5,1.4-3.5c1-1,2.2-1.4,3.6-1.4
		s2.6,0.5,3.6,1.4s1.4,2.1,1.4,3.5C421.9,277,421.4,278.2,420.4,279.2z M414.6,277.9c0.6,0.6,1.3,0.9,2.2,0.9c0.9,0,1.6-0.3,2.2-0.9
		c0.6-0.6,0.9-1.3,0.9-2.3s-0.3-1.7-0.9-2.3c-0.6-0.6-1.3-0.9-2.2-0.9c-0.9,0-1.6,0.3-2.2,0.9c-0.6,0.6-0.9,1.3-0.9,2.3
		S414.1,277.3,414.6,277.9z"/>
	<path d="M426.2,275.3v5.2h-2v-9.6h2v1.7c0.3-0.6,0.8-1,1.3-1.4s1.2-0.5,1.8-0.5c1.1,0,2,0.3,2.6,1s1,1.6,1,2.9v5.9h-2v-5.3
		c0-1.8-0.7-2.6-2.2-2.6c-0.7,0-1.3,0.2-1.8,0.7C426.4,273.7,426.2,274.4,426.2,275.3z"/>
	<path d="M440,280.6c-1.3,0-2.5-0.5-3.4-1.4c-1-0.9-1.4-2.1-1.4-3.6c0-1.5,0.5-2.7,1.5-3.6s2.2-1.4,3.7-1.4s2.7,0.5,3.7,1.5
		l-1.2,1.5c-0.8-0.7-1.7-1.1-2.5-1.1c-0.8,0-1.6,0.3-2.2,0.8c-0.6,0.6-0.9,1.3-0.9,2.2c0,0.9,0.3,1.6,0.9,2.2
		c0.6,0.6,1.4,0.9,2.3,0.9s1.7-0.4,2.5-1.2l1.2,1.3C442.9,280,441.5,280.6,440,280.6z"/>
	<path d="M455,276.6h-7.5c0,0.7,0.4,1.3,1,1.7c0.6,0.4,1.3,0.6,2,0.6c1.2,0,2.1-0.4,2.7-1.1l1.2,1.3c-1,1.1-2.4,1.6-4,1.6
		c-1.3,0-2.5-0.4-3.4-1.3c-0.9-0.9-1.4-2.1-1.4-3.6s0.5-2.7,1.4-3.6c1-0.9,2.1-1.3,3.4-1.3c1.3,0,2.4,0.4,3.3,1.2
		c0.9,0.8,1.4,1.9,1.4,3.2V276.6z M447.5,275h5.5c0-0.8-0.3-1.4-0.8-1.9c-0.5-0.4-1.1-0.6-1.9-0.6c-0.7,0-1.4,0.2-2,0.7
		C447.8,273.6,447.5,274.2,447.5,275z"/>
	<path d="M463.4,284.3c-0.9,0-1.7-0.3-2.4-1l0.9-1.6c0.4,0.4,0.9,0.6,1.3,0.6c0.4,0,0.8-0.2,1.1-0.5c0.3-0.3,0.4-0.7,0.4-1.1
		c0-0.2-1.3-3.5-3.9-9.8h2.2l2.9,7.1l2.9-7.1h2.2l-4.6,11.4c-0.3,0.6-0.7,1.1-1.2,1.5C464.6,284.1,464,284.3,463.4,284.3z"/>
	<path d="M480.4,279.2c-1,1-2.2,1.4-3.6,1.4c-1.4,0-2.6-0.5-3.6-1.4s-1.4-2.1-1.4-3.5c0-1.4,0.5-2.5,1.4-3.5s2.2-1.4,3.6-1.4
		c1.4,0,2.6,0.5,3.6,1.4s1.4,2.1,1.4,3.5C481.8,277,481.3,278.2,480.4,279.2z M474.6,277.9c0.6,0.6,1.3,0.9,2.2,0.9s1.6-0.3,2.2-0.9
		c0.6-0.6,0.9-1.3,0.9-2.3s-0.3-1.7-0.9-2.3c-0.6-0.6-1.3-0.9-2.2-0.9s-1.6,0.3-2.2,0.9c-0.6,0.6-0.9,1.3-0.9,2.3
		S474,277.3,474.6,277.9z"/>
	<path d="M490.8,276.1v-5.2h2v9.6h-2v-1.7c-0.3,0.6-0.8,1-1.3,1.4c-0.6,0.3-1.2,0.5-1.8,0.5c-1.1,0-2-0.3-2.6-1
		c-0.7-0.7-1-1.6-1-2.9v-5.9h2v5.3c0,1.8,0.7,2.6,2.2,2.6c0.7,0,1.3-0.2,1.8-0.7S490.8,277,490.8,276.1z"/>
	<path d="M502.7,275.3v5.2h-2v-13.3h2v5.5c0.3-0.6,0.7-1,1.3-1.4s1.2-0.5,1.9-0.5c1.1,0,2,0.3,2.6,1s1,1.6,1,2.9v5.9h-2v-5.3
		c0-1.8-0.7-2.6-2.2-2.6c-0.7,0-1.3,0.2-1.8,0.7C502.9,273.7,502.7,274.4,502.7,275.3z"/>
	<path d="M520,280.5h-1.8v-1.3c-0.8,0.9-1.9,1.4-3.2,1.4c-1,0-1.8-0.3-2.5-0.8s-1-1.3-1-2.3s0.3-1.6,1-2.1c0.7-0.5,1.6-0.7,2.8-0.7
		h2.6v-0.4c0-1.3-0.7-1.9-2.1-1.9c-0.9,0-1.8,0.3-2.8,1l-0.9-1.3c1.2-0.9,2.5-1.4,4-1.4c1.1,0,2,0.3,2.8,0.9
		c0.7,0.6,1.1,1.5,1.1,2.7V280.5z M518,276.9v-0.8h-2.3c-1.5,0-2.2,0.5-2.2,1.4c0,0.5,0.2,0.8,0.5,1.1s0.9,0.4,1.5,0.4
		s1.2-0.2,1.7-0.5C517.8,278,518,277.5,518,276.9z"/>
	<path d="M525.3,280.5l-3.9-9.6h2.1l2.9,7.2l2.9-7.2h2.1l-3.9,9.6H525.3z"/>
	<path d="M541.9,276.6h-7.5c0,0.7,0.4,1.3,1,1.7c0.6,0.4,1.3,0.6,2,0.6c1.2,0,2.1-0.4,2.7-1.1l1.2,1.3c-1,1.1-2.4,1.6-4,1.6
		c-1.3,0-2.5-0.4-3.4-1.3c-0.9-0.9-1.4-2.1-1.4-3.6s0.5-2.7,1.4-3.6c1-0.9,2.1-1.3,3.4-1.3s2.4,0.4,3.3,1.2s1.4,1.9,1.4,3.2V276.6z
		 M534.4,275h5.5c0-0.8-0.3-1.4-0.8-1.9c-0.5-0.4-1.1-0.6-1.9-0.6c-0.7,0-1.4,0.2-2,0.7C534.7,273.6,534.4,274.2,534.4,275z"/>
	<path d="M549.2,269c-0.3-0.3-0.4-0.6-0.4-0.9s0.1-0.6,0.4-0.9s0.6-0.4,0.9-0.4c0.3,0,0.6,0.1,0.9,0.4s0.4,0.6,0.4,0.9
		s-0.1,0.6-0.4,0.9s-0.6,0.4-0.9,0.4C549.8,269.3,549.5,269.2,549.2,269z M551.1,280.5h-2v-9.6h2V280.5z"/>
	<path d="M556.5,272.5v4.9c0,0.5,0.1,0.8,0.4,1.1s0.6,0.4,1,0.4c0.4,0,0.8-0.2,1.2-0.6l0.8,1.4c-0.7,0.6-1.5,1-2.3,1
		c-0.9,0-1.6-0.3-2.2-0.9c-0.6-0.6-0.9-1.4-0.9-2.4v-4.8h-1.2v-1.6h1.2v-3h2v3h2.5v1.6H556.5z"/>
	<path d="M574.5,279.2c-1,1-2.2,1.4-3.6,1.4c-1.4,0-2.6-0.5-3.6-1.4s-1.4-2.1-1.4-3.5c0-1.4,0.5-2.5,1.4-3.5s2.2-1.4,3.6-1.4
		c1.4,0,2.6,0.5,3.6,1.4s1.4,2.1,1.4,3.5C575.9,277,575.4,278.2,574.5,279.2z M568.7,277.9c0.6,0.6,1.3,0.9,2.2,0.9s1.6-0.3,2.2-0.9
		c0.6-0.6,0.9-1.3,0.9-2.3s-0.3-1.7-0.9-2.3c-0.6-0.6-1.3-0.9-2.2-0.9s-1.6,0.3-2.2,0.9c-0.6,0.6-0.9,1.3-0.9,2.3
		S568.1,277.3,568.7,277.9z"/>
	<path d="M584.9,276.1v-5.2h2v9.6h-2v-1.7c-0.3,0.6-0.8,1-1.3,1.4c-0.6,0.3-1.2,0.5-1.8,0.5c-1.1,0-2-0.3-2.6-1
		c-0.7-0.7-1-1.6-1-2.9v-5.9h2v5.3c0,1.8,0.7,2.6,2.2,2.6c0.7,0,1.3-0.2,1.8-0.7S584.9,277,584.9,276.1z"/>
	<path d="M592.3,272.5v4.9c0,0.5,0.1,0.8,0.4,1.1s0.6,0.4,1,0.4c0.4,0,0.8-0.2,1.2-0.6l0.8,1.4c-0.7,0.6-1.5,1-2.3,1
		c-0.9,0-1.6-0.3-2.2-0.9c-0.6-0.6-0.9-1.4-0.9-2.4v-4.8h-1.2v-1.6h1.2v-3h2v3h2.5v1.6H592.3z"/>
	<path d="M604.8,272.5v4.9c0,0.5,0.1,0.8,0.4,1.1s0.6,0.4,1,0.4c0.4,0,0.8-0.2,1.2-0.6l0.8,1.4c-0.7,0.6-1.5,1-2.3,1
		c-0.9,0-1.6-0.3-2.2-0.9c-0.6-0.6-0.9-1.4-0.9-2.4v-4.8h-1.2v-1.6h1.2v-3h2v3h2.5v1.6H604.8z"/>
	<path d="M611.8,275.3v5.2h-2v-13.3h2v5.5c0.3-0.6,0.7-1,1.3-1.4s1.2-0.5,1.9-0.5c1.1,0,2,0.3,2.6,1s1,1.6,1,2.9v5.9h-2v-5.3
		c0-1.8-0.7-2.6-2.2-2.6c-0.7,0-1.3,0.2-1.8,0.7C612.1,273.7,611.8,274.4,611.8,275.3z"/>
	<path d="M630.4,276.6h-7.5c0,0.7,0.4,1.3,1,1.7c0.6,0.4,1.3,0.6,2,0.6c1.2,0,2.1-0.4,2.7-1.1l1.2,1.3c-1,1.1-2.4,1.6-4,1.6
		c-1.3,0-2.5-0.4-3.4-1.3c-0.9-0.9-1.4-2.1-1.4-3.6s0.5-2.7,1.4-3.6c1-0.9,2.1-1.3,3.4-1.3s2.4,0.4,3.3,1.2s1.4,1.9,1.4,3.2V276.6z
		 M622.9,275h5.5c0-0.8-0.3-1.4-0.8-1.9c-0.5-0.4-1.1-0.6-1.9-0.6c-0.7,0-1.4,0.2-2,0.7C623.1,273.6,622.9,274.2,622.9,275z"/>
	<path d="M637.6,272.8c-1,0-1.7,0.3-2.2,1c-0.5,0.6-0.8,1.5-0.8,2.6v4.1h-2v-9.6h2v1.9c0.3-0.6,0.8-1.1,1.3-1.5
		c0.6-0.4,1.1-0.6,1.8-0.6l0,2C637.7,272.8,637.6,272.8,637.6,272.8z"/>
	<path d="M648.6,276.6h-7.5c0,0.7,0.4,1.3,1,1.7c0.6,0.4,1.3,0.6,2,0.6c1.2,0,2.1-0.4,2.7-1.1l1.2,1.3c-1,1.1-2.4,1.6-4,1.6
		c-1.3,0-2.5-0.4-3.4-1.3c-0.9-0.9-1.4-2.1-1.4-3.6s0.5-2.7,1.4-3.6c1-0.9,2.1-1.3,3.4-1.3s2.4,0.4,3.3,1.2s1.4,1.9,1.4,3.2V276.6z
		 M641.1,275h5.5c0-0.8-0.3-1.4-0.8-1.9c-0.5-0.4-1.1-0.6-1.9-0.6c-0.7,0-1.4,0.2-2,0.7C641.4,273.6,641.1,274.2,641.1,275z"/>
	<path d="M655.9,269c-0.3-0.3-0.4-0.6-0.4-0.9s0.1-0.6,0.4-0.9s0.6-0.4,0.9-0.4c0.3,0,0.6,0.1,0.9,0.4s0.4,0.6,0.4,0.9
		s-0.1,0.6-0.4,0.9s-0.6,0.4-0.9,0.4C656.5,269.3,656.2,269.2,655.9,269z M657.8,280.5h-2v-9.6h2V280.5z"/>
	<path d="M662.7,275.3v5.2h-2v-9.6h2v1.7c0.3-0.6,0.8-1,1.3-1.4c0.6-0.3,1.2-0.5,1.8-0.5c1.1,0,2,0.3,2.6,1s1,1.6,1,2.9v5.9h-2v-5.3
		c0-1.8-0.7-2.6-2.2-2.6c-0.7,0-1.3,0.2-1.8,0.7C663,273.7,662.7,274.4,662.7,275.3z"/>
	<path d="M679.8,272.5v4.9c0,0.5,0.1,0.8,0.4,1.1s0.6,0.4,1,0.4c0.4,0,0.8-0.2,1.2-0.6l0.8,1.4c-0.7,0.6-1.5,1-2.3,1
		c-0.9,0-1.6-0.3-2.2-0.9c-0.6-0.6-0.9-1.4-0.9-2.4v-4.8h-1.2v-1.6h1.2v-3h2v3h2.5v1.6H679.8z"/>
	<path d="M686.8,275.3v5.2h-2v-13.3h2v5.5c0.3-0.6,0.7-1,1.3-1.4s1.2-0.5,1.9-0.5c1.1,0,2,0.3,2.6,1s1,1.6,1,2.9v5.9h-2v-5.3
		c0-1.8-0.7-2.6-2.2-2.6c-0.7,0-1.3,0.2-1.8,0.7C687.1,273.7,686.8,274.4,686.8,275.3z"/>
	<path d="M705.3,276.6h-7.5c0,0.7,0.4,1.3,1,1.7c0.6,0.4,1.3,0.6,2,0.6c1.2,0,2.1-0.4,2.7-1.1l1.2,1.3c-1,1.1-2.4,1.6-4,1.6
		c-1.3,0-2.5-0.4-3.4-1.3c-0.9-0.9-1.4-2.1-1.4-3.6s0.5-2.7,1.4-3.6c1-0.9,2.1-1.3,3.4-1.3s2.4,0.4,3.3,1.2s1.4,1.9,1.4,3.2V276.6z
		 M697.8,275h5.5c0-0.8-0.3-1.4-0.8-1.9c-0.5-0.4-1.1-0.6-1.9-0.6c-0.7,0-1.4,0.2-2,0.7C698.1,273.6,697.8,274.2,697.8,275z"/>
	<path d="M714.5,275.3v5.2h-2v-9.6h2v1.7c0.3-0.6,0.7-1,1.3-1.4s1.2-0.5,1.9-0.5c1.5,0,2.5,0.6,3.1,1.9c0.9-1.2,2.1-1.9,3.5-1.9
		c1.1,0,2,0.3,2.6,1s1,1.6,1,2.9v5.9h-2v-5.3c0-1.8-0.7-2.6-2.2-2.6c-0.7,0-1.3,0.2-1.8,0.7c-0.5,0.4-0.8,1.1-0.8,1.9v5.3h-2v-5.3
		c0-0.9-0.2-1.6-0.5-2c-0.3-0.4-0.8-0.6-1.5-0.6c-0.7,0-1.3,0.2-1.8,0.7C714.7,273.7,714.5,274.4,714.5,275.3z"/>
	<path d="M738.5,280.5h-1.8v-1.3c-0.8,0.9-1.9,1.4-3.2,1.4c-1,0-1.8-0.3-2.5-0.8s-1-1.3-1-2.3s0.3-1.6,1-2.1
		c0.7-0.5,1.6-0.7,2.8-0.7h2.6v-0.4c0-1.3-0.7-1.9-2.1-1.9c-0.9,0-1.8,0.3-2.8,1l-0.9-1.3c1.2-0.9,2.5-1.4,4-1.4
		c1.1,0,2,0.3,2.8,0.9c0.7,0.6,1.1,1.5,1.1,2.7V280.5z M736.5,276.9v-0.8h-2.3c-1.5,0-2.2,0.5-2.2,1.4c0,0.5,0.2,0.8,0.5,1.1
		s0.9,0.4,1.5,0.4s1.2-0.2,1.7-0.5C736.2,278,736.5,277.5,736.5,276.9z"/>
	<path d="M746.3,272.8c-1,0-1.7,0.3-2.2,1c-0.5,0.6-0.8,1.5-0.8,2.6v4.1h-2v-9.6h2v1.9c0.3-0.6,0.8-1.1,1.3-1.5
		c0.6-0.4,1.1-0.6,1.8-0.6l0,2C746.4,272.8,746.4,272.8,746.3,272.8z"/>
	<path d="M750.5,280.5h-2v-13.4h2v7.8l3.9-4.1h2.6l-3.6,3.8l3.9,5.8h-2.4l-2.8-4.2l-1.5,1.5V280.5z"/>
	<path d="M767.8,276.6h-7.5c0,0.7,0.4,1.3,1,1.7c0.6,0.4,1.3,0.6,2,0.6c1.2,0,2.1-0.4,2.7-1.1l1.2,1.3c-1,1.1-2.4,1.6-4,1.6
		c-1.3,0-2.5-0.4-3.4-1.3c-0.9-0.9-1.4-2.1-1.4-3.6s0.5-2.7,1.4-3.6c1-0.9,2.1-1.3,3.4-1.3s2.4,0.4,3.3,1.2s1.4,1.9,1.4,3.2V276.6z
		 M760.3,275h5.5c0-0.8-0.3-1.4-0.8-1.9c-0.5-0.4-1.1-0.6-1.9-0.6c-0.7,0-1.4,0.2-2,0.7C760.6,273.6,760.3,274.2,760.3,275z"/>
	<path d="M772.4,272.5v4.9c0,0.5,0.1,0.8,0.4,1.1s0.6,0.4,1,0.4c0.4,0,0.8-0.2,1.2-0.6l0.8,1.4c-0.7,0.6-1.5,1-2.3,1
		c-0.9,0-1.6-0.3-2.2-0.9c-0.6-0.6-0.9-1.4-0.9-2.4v-4.8h-1.2v-1.6h1.2v-3h2v3h2.5v1.6H772.4z"/>
	<path d="M777.6,280.2c-0.3-0.3-0.4-0.6-0.4-1c0-0.4,0.1-0.7,0.4-0.9c0.3-0.3,0.6-0.4,0.9-0.4s0.7,0.1,1,0.4
		c0.3,0.3,0.4,0.6,0.4,0.9c0,0.4-0.1,0.7-0.4,1c-0.3,0.3-0.6,0.4-1,0.4S777.8,280.5,777.6,280.2z"/>
</g>
<g>
	<path fill="#39B588" d="M339.4,77.1l-1.5,3.5h-2.8l6.8-15.4h2.8l6.8,15.4h-2.8l-1.5-3.5H339.4z M346,74.7l-2.8-6.3l-2.8,6.3H346z"
		/>
	<path fill="#39B588" d="M359.5,68.7c1.6,0,2.9,0.5,4,1.6c1.1,1.1,1.7,2.5,1.7,4.3s-0.6,3.3-1.7,4.4s-2.4,1.7-3.9,1.7
		c-1.5,0-2.8-0.6-4-1.9v1.8h-2.5V64.3h2.5V71C356.6,69.5,357.9,68.7,359.5,68.7z M355.6,74.8c0,1.1,0.3,2,1,2.7s1.5,1.1,2.5,1.1
		c1,0,1.8-0.4,2.5-1.1s1.1-1.6,1.1-2.7s-0.4-2.1-1.1-2.8c-0.7-0.7-1.5-1.1-2.5-1.1c-1,0-1.8,0.4-2.5,1.1S355.6,73.7,355.6,74.8z"/>
	<path fill="#39B588" d="M377.8,79c-1.2,1.2-2.6,1.7-4.4,1.7s-3.2-0.6-4.4-1.7c-1.2-1.2-1.8-2.6-1.8-4.3c0-1.7,0.6-3.1,1.8-4.3
		c1.2-1.2,2.6-1.7,4.4-1.7s3.2,0.6,4.4,1.7c1.2,1.2,1.8,2.6,1.8,4.3C379.5,76.4,378.9,77.9,377.8,79z M370.7,77.5
		c0.7,0.7,1.6,1.1,2.7,1.1s2-0.4,2.7-1.1c0.7-0.7,1-1.6,1-2.8s-0.3-2-1-2.8c-0.7-0.7-1.6-1.1-2.7-1.1s-2,0.4-2.7,1.1
		c-0.7,0.7-1,1.6-1,2.8S370,76.8,370.7,77.5z"/>
	<path fill="#39B588" d="M390.5,75.2v-6.3h2.5v11.7h-2.5v-2.1c-0.4,0.7-0.9,1.3-1.6,1.7c-0.7,0.4-1.4,0.6-2.3,0.6
		c-1.3,0-2.4-0.4-3.2-1.2c-0.8-0.8-1.2-2-1.2-3.5v-7.2h2.5v6.4c0,2.2,0.9,3.2,2.7,3.2c0.9,0,1.6-0.3,2.2-0.8
		C390.2,77.2,390.5,76.3,390.5,75.2z"/>
	<path fill="#39B588" d="M399.6,70.9v5.9c0,0.6,0.1,1,0.4,1.3s0.7,0.5,1.2,0.5c0.5,0,1-0.3,1.5-0.8l1,1.7c-0.9,0.8-1.8,1.2-2.9,1.2
		c-1,0-1.9-0.4-2.7-1.1s-1.1-1.7-1.1-2.9v-5.9h-1.5v-2h1.5v-3.7h2.5v3.7h3.1v2H399.6z"/>
</g>
</svg>
