<?xml version="1.0" encoding="utf-8"?>
<!-- Generator: Adobe Illustrator 20.1.0, SVG Export Plug-In . SVG Version: 6.00 Build 0)  -->
<svg version="1.1" id="Layer_1" xmlns="http://www.w3.org/2000/svg" xmlns:xlink="http://www.w3.org/1999/xlink" x="0px" y="0px"
	 viewBox="0 0 433.6 88.8" style="enable-background:new 0 0 433.6 88.8;" xml:space="preserve">
<style type="text/css">
	.st0{fill:#FFFFFF;}
	.st1{fill:none;stroke:#39B588;stroke-miterlimit:10;}
	.st2{fill:#39B588;}
	.st3{fill:#FCFCFC;}
</style>
<g>
	<path class="st0" d="M57.2,54.9h-8v-0.8c0.2,0,0.5-0.1,0.9-0.1c0.3,0,0.6-0.1,0.7-0.2c0.3-0.1,0.4-0.2,0.6-0.4s0.2-0.4,0.2-0.7v-11
		l-5.1,13h-1.3c-0.1-0.2-0.2-0.7-0.5-1.4c-0.2-0.7-0.4-1.2-0.6-1.6l-3.7-10.1v9c0,0.9,0.1,1.5,0.2,2c0.1,0.4,0.3,0.8,0.6,1
		c0.2,0.1,0.5,0.3,0.9,0.4c0.4,0.1,0.8,0.2,0.9,0.2v0.8h-6.3v-0.8c0.2,0,0.5-0.1,0.8-0.1s0.7-0.2,1-0.4c0.3-0.2,0.5-0.5,0.6-1
		c0.1-0.5,0.1-1.1,0.1-2v-7.3c0-0.4-0.1-0.8-0.2-1.1c-0.1-0.3-0.3-0.5-0.5-0.7c-0.3-0.2-0.6-0.4-0.9-0.4C37.2,41,36.9,41,36.6,41
		v-0.8h6.8l3.6,9.7l3.1-7.9c0.1-0.3,0.2-0.6,0.3-1c0.1-0.4,0.1-0.7,0.2-0.8h6.5V41c-0.2,0-0.5,0-0.7,0.1s-0.5,0.1-0.7,0.2
		c-0.3,0.1-0.4,0.2-0.5,0.4c-0.1,0.2-0.1,0.4-0.1,0.6v10.5c0,0.2,0,0.5,0.1,0.6s0.3,0.3,0.5,0.4c0.1,0.1,0.4,0.1,0.7,0.2
		c0.3,0.1,0.6,0.1,0.7,0.1V54.9z"/>
	<path class="st0" d="M69.2,45.8c0.5,0.5,0.9,1.1,1.2,1.7s0.4,1.4,0.4,2.2c0,0.8-0.1,1.5-0.4,2.2c-0.3,0.7-0.7,1.3-1.2,1.8
		c-0.5,0.5-1.2,0.9-2,1.2c-0.8,0.3-1.6,0.4-2.6,0.4c-0.8,0-1.6-0.1-2.3-0.4c-0.7-0.2-1.3-0.6-1.9-1.1c-0.5-0.5-0.9-1-1.2-1.7
		s-0.5-1.4-0.5-2.3c0-0.8,0.1-1.6,0.4-2.2c0.3-0.6,0.7-1.2,1.2-1.7c0.5-0.5,1.1-0.9,1.9-1.1c0.8-0.3,1.6-0.4,2.5-0.4
		c1,0,1.8,0.1,2.6,0.4C68,45,68.7,45.3,69.2,45.8z M66.5,53c0.2-0.4,0.3-0.9,0.3-1.4c0.1-0.6,0.1-1.2,0.1-1.9c0-0.5,0-1-0.1-1.7
		s-0.2-1.1-0.3-1.5c-0.2-0.4-0.4-0.8-0.7-1c-0.3-0.2-0.7-0.4-1.1-0.4c-0.5,0-0.9,0.1-1.2,0.4c-0.3,0.3-0.5,0.6-0.7,1.1
		c-0.1,0.4-0.2,0.9-0.3,1.4c-0.1,0.5-0.1,1.1-0.1,1.7c0,0.8,0,1.4,0.1,1.9s0.2,1,0.4,1.5c0.2,0.4,0.4,0.8,0.7,1
		c0.3,0.2,0.7,0.4,1.1,0.4c0.4,0,0.8-0.1,1.1-0.3C66.1,53.8,66.3,53.5,66.5,53z"/>
	<path class="st0" d="M82.5,46.5c0,0.5-0.2,1-0.5,1.4c-0.3,0.4-0.8,0.6-1.3,0.6c-0.5,0-0.9-0.1-1.3-0.4s-0.5-0.6-0.5-1.1
		c0-0.2,0-0.4,0.1-0.6c0-0.1,0.1-0.3,0.1-0.4c-0.3,0-0.7,0.1-1,0.3s-0.7,0.5-0.9,0.8v5.7c0,0.2,0,0.4,0.1,0.6
		c0.1,0.2,0.2,0.3,0.4,0.4c0.2,0.1,0.4,0.1,0.7,0.2c0.3,0.1,0.6,0.1,0.7,0.1v0.8h-7v-0.8c0.2,0,0.3,0,0.5-0.1S73,54,73.1,54
		c0.2-0.1,0.4-0.2,0.5-0.4c0.1-0.2,0.1-0.4,0.1-0.6V47c0-0.2-0.1-0.5-0.2-0.7c-0.1-0.2-0.3-0.4-0.4-0.5c-0.1-0.1-0.3-0.2-0.5-0.2
		c-0.2-0.1-0.4-0.1-0.6-0.1v-0.8l5-0.3l0.2,0.2v1.5h0c0.5-0.6,1-1,1.5-1.3c0.5-0.3,1.1-0.5,1.7-0.5c0.6,0,1.2,0.2,1.6,0.6
		C82.3,45.3,82.5,45.9,82.5,46.5z"/>
	<path class="st0" d="M90.9,54.4c-0.4,0.2-0.9,0.4-1.4,0.5c-0.5,0.2-1.1,0.2-1.9,0.2c-1.1,0-1.9-0.3-2.4-0.8s-0.8-1.3-0.8-2.3v-6.4
		h-1.9v-1.1h1.9v-3.2h3.4v3.2h2.9v1.1h-2.9v5.7c0,0.8,0.1,1.4,0.3,1.7s0.6,0.5,1.2,0.5c0.2,0,0.4,0,0.8,0s0.6-0.1,0.7-0.1V54.4z"/>
	<path class="st0" d="M103.3,45.8H101c0.3,0.3,0.5,0.6,0.6,1s0.2,0.7,0.2,1.1c0,0.5-0.1,0.9-0.4,1.3c-0.3,0.4-0.6,0.8-1,1
		c-0.4,0.3-0.9,0.5-1.5,0.6c-0.6,0.2-1.2,0.2-1.9,0.2h-1.7c-0.1,0.1-0.2,0.2-0.3,0.3C95,51.4,95,51.6,95,51.7c0,0.3,0.1,0.5,0.4,0.6
		s0.7,0.2,1.3,0.2c0.6,0,1.3,0,1.9,0.1c0.6,0,1.1,0.1,1.4,0.1c0.4,0,0.8,0.1,1.2,0.2c0.4,0.1,0.7,0.3,1,0.6c0.3,0.2,0.6,0.6,0.8,0.9
		c0.2,0.4,0.3,0.8,0.3,1.3c0,0.5-0.1,1-0.4,1.5c-0.3,0.5-0.6,0.9-1.2,1.2c-0.5,0.4-1.2,0.6-2,0.8s-1.7,0.3-2.8,0.3
		c-1.8,0-3.2-0.2-4.2-0.7c-0.9-0.4-1.4-1.1-1.4-2c0-0.5,0.3-1,0.8-1.4s1.3-0.5,2.4-0.6v-0.1c-0.6-0.2-1.1-0.5-1.5-0.9
		c-0.4-0.4-0.5-0.8-0.5-1.2c0-0.3,0.1-0.5,0.2-0.7c0.1-0.2,0.3-0.4,0.5-0.5c0.2-0.1,0.4-0.2,0.7-0.3c0.3-0.1,0.5-0.2,0.7-0.2v-0.1
		c-0.9-0.3-1.6-0.8-2.1-1.3c-0.4-0.5-0.7-1.1-0.7-1.8c0-1,0.5-1.8,1.4-2.4c0.9-0.6,2.1-0.9,3.6-0.9c0.5,0,0.9,0,1.4,0.1
		c0.4,0.1,0.8,0.2,1,0.2h4V45.8z M100.1,56.5c0-0.2-0.1-0.5-0.2-0.7c-0.1-0.2-0.4-0.4-0.9-0.6c-0.2,0-0.7-0.1-1.2-0.1
		c-0.6,0-1.4,0-2.4,0c-0.2,0.2-0.4,0.5-0.6,0.7c-0.2,0.3-0.2,0.6-0.2,1c0,0.2,0,0.4,0.1,0.6c0.1,0.2,0.2,0.4,0.5,0.6
		c0.2,0.2,0.5,0.4,0.8,0.5c0.3,0.1,0.7,0.2,1.3,0.2c0.9,0,1.6-0.2,2-0.5S100.1,57.2,100.1,56.5z M98.4,47.7c0-0.8-0.1-1.5-0.4-1.9
		s-0.7-0.7-1.2-0.7c-0.3,0-0.5,0.1-0.7,0.2c-0.2,0.1-0.4,0.3-0.5,0.6c-0.1,0.2-0.2,0.5-0.2,0.8c0,0.3-0.1,0.6-0.1,1
		c0,0.8,0.1,1.4,0.4,1.9s0.6,0.7,1.1,0.7c0.5,0,0.9-0.2,1.2-0.7C98.3,49.1,98.4,48.5,98.4,47.7z"/>
	<path class="st0" d="M115.8,54.7c-0.3,0.1-0.7,0.3-1.1,0.4c-0.4,0.1-0.9,0.2-1.3,0.2c-0.9,0-1.5-0.1-1.9-0.4
		c-0.4-0.3-0.7-0.6-0.8-1.1h-0.1c-0.2,0.2-0.5,0.4-0.7,0.6s-0.5,0.3-0.7,0.4c-0.3,0.2-0.6,0.3-0.9,0.3c-0.3,0.1-0.7,0.1-1.3,0.1
		c-0.8,0-1.5-0.2-2.1-0.7c-0.6-0.5-0.9-1.1-0.9-1.9c0-0.5,0.1-0.8,0.2-1.2c0.1-0.3,0.3-0.6,0.5-0.8c0.2-0.2,0.4-0.4,0.7-0.6
		c0.3-0.1,0.6-0.3,0.9-0.4c0.6-0.2,1.4-0.5,2.2-0.7c0.9-0.2,1.5-0.5,1.9-0.7v-1c0-0.2,0-0.4,0-0.7c0-0.3-0.1-0.5-0.2-0.7
		c-0.1-0.2-0.2-0.4-0.5-0.6s-0.5-0.2-0.8-0.2c-0.3,0-0.6,0-0.8,0.1c-0.2,0.1-0.4,0.2-0.5,0.3c0,0.1,0.1,0.4,0.2,0.6
		c0.1,0.3,0.1,0.6,0.1,0.8c0,0.1,0,0.3-0.1,0.4c-0.1,0.2-0.2,0.3-0.3,0.4c-0.2,0.1-0.3,0.2-0.5,0.3c-0.2,0.1-0.5,0.1-0.9,0.1
		c-0.6,0-1-0.1-1.3-0.4s-0.4-0.6-0.4-1.1c0-0.4,0.2-0.7,0.5-1c0.3-0.3,0.7-0.6,1.1-0.8c0.4-0.2,0.9-0.4,1.5-0.5
		c0.6-0.1,1.1-0.2,1.6-0.2c0.7,0,1.3,0,1.9,0.1c0.6,0.1,1.1,0.2,1.5,0.5c0.4,0.2,0.8,0.6,1,1.1c0.3,0.5,0.4,1.1,0.4,1.8
		c0,0.8,0,1.7,0,2.8s0,1.8,0,2.1c0,0.3,0,0.6,0.1,0.7c0.1,0.2,0.2,0.3,0.4,0.4c0.1,0.1,0.3,0.1,0.6,0.1s0.5,0,0.7,0V54.7z
		 M110.7,49.3c-0.4,0.1-0.8,0.3-1.2,0.5c-0.4,0.2-0.7,0.3-0.9,0.5c-0.3,0.2-0.5,0.4-0.6,0.7c-0.1,0.3-0.2,0.7-0.2,1.1
		c0,0.5,0.1,0.9,0.4,1.2s0.6,0.4,0.9,0.4c0.4,0,0.7-0.1,0.9-0.2s0.5-0.3,0.7-0.6L110.7,49.3z"/>
	<path class="st0" d="M128.3,45.8H126c0.3,0.3,0.5,0.6,0.6,1s0.2,0.7,0.2,1.1c0,0.5-0.1,0.9-0.4,1.3c-0.3,0.4-0.6,0.8-1,1
		c-0.4,0.3-0.9,0.5-1.5,0.6c-0.6,0.2-1.2,0.2-1.9,0.2h-1.7c-0.1,0.1-0.2,0.2-0.3,0.3c-0.1,0.1-0.2,0.3-0.2,0.4
		c0,0.3,0.1,0.5,0.4,0.6s0.7,0.2,1.3,0.2c0.6,0,1.3,0,1.9,0.1c0.6,0,1.1,0.1,1.4,0.1c0.4,0,0.8,0.1,1.2,0.2c0.4,0.1,0.7,0.3,1,0.6
		c0.3,0.2,0.6,0.6,0.8,0.9c0.2,0.4,0.3,0.8,0.3,1.3c0,0.5-0.1,1-0.4,1.5c-0.3,0.5-0.6,0.9-1.2,1.2c-0.5,0.4-1.2,0.6-2,0.8
		s-1.7,0.3-2.8,0.3c-1.8,0-3.2-0.2-4.2-0.7c-0.9-0.4-1.4-1.1-1.4-2c0-0.5,0.3-1,0.8-1.4s1.3-0.5,2.4-0.6v-0.1
		c-0.6-0.2-1.1-0.5-1.5-0.9c-0.4-0.4-0.5-0.8-0.5-1.2c0-0.3,0.1-0.5,0.2-0.7c0.1-0.2,0.3-0.4,0.5-0.5c0.2-0.1,0.4-0.2,0.7-0.3
		c0.3-0.1,0.5-0.2,0.7-0.2v-0.1c-0.9-0.3-1.6-0.8-2.1-1.3c-0.4-0.5-0.7-1.1-0.7-1.8c0-1,0.5-1.8,1.4-2.4c0.9-0.6,2.1-0.9,3.6-0.9
		c0.5,0,0.9,0,1.4,0.1c0.4,0.1,0.8,0.2,1,0.2h4V45.8z M125.1,56.5c0-0.2-0.1-0.5-0.2-0.7c-0.1-0.2-0.4-0.4-0.9-0.6
		c-0.2,0-0.7-0.1-1.2-0.1c-0.6,0-1.4,0-2.4,0c-0.2,0.2-0.4,0.5-0.6,0.7c-0.2,0.3-0.2,0.6-0.2,1c0,0.2,0,0.4,0.1,0.6
		c0.1,0.2,0.2,0.4,0.5,0.6c0.2,0.2,0.5,0.4,0.8,0.5c0.3,0.1,0.7,0.2,1.3,0.2c0.9,0,1.6-0.2,2-0.5S125.1,57.2,125.1,56.5z
		 M123.4,47.7c0-0.8-0.1-1.5-0.4-1.9s-0.7-0.7-1.2-0.7c-0.3,0-0.5,0.1-0.7,0.2c-0.2,0.1-0.4,0.3-0.5,0.6c-0.1,0.2-0.2,0.5-0.2,0.8
		c0,0.3-0.1,0.6-0.1,1c0,0.8,0.1,1.4,0.4,1.9s0.6,0.7,1.1,0.7c0.5,0,0.9-0.2,1.2-0.7C123.2,49.1,123.4,48.5,123.4,47.7z"/>
	<path class="st0" d="M140.1,52.4c-0.2,0.4-0.5,0.8-0.9,1.1c-0.3,0.4-0.7,0.6-1.2,0.9c-0.5,0.3-0.9,0.5-1.4,0.6
		c-0.5,0.1-1,0.2-1.6,0.2c-1,0-1.9-0.1-2.7-0.4s-1.4-0.7-1.8-1.2c-0.5-0.5-0.8-1.1-1.1-1.7s-0.4-1.4-0.4-2.2c0-0.7,0.1-1.4,0.4-2
		c0.3-0.6,0.6-1.2,1.1-1.7c0.5-0.5,1.1-0.9,1.8-1.2c0.7-0.3,1.5-0.5,2.4-0.5c1,0,1.8,0.1,2.4,0.4c0.6,0.2,1.1,0.6,1.5,1
		c0.4,0.4,0.7,0.9,0.9,1.4c0.2,0.5,0.3,1.1,0.3,1.7v0.7h-7c0,1.4,0.3,2.5,0.8,3.2c0.5,0.7,1.4,1.1,2.6,1.1c0.7,0,1.2-0.2,1.8-0.5
		s1-0.8,1.3-1.4L140.1,52.4z M136.1,48.5c0-0.4,0-0.8-0.1-1.3c0-0.4-0.1-0.8-0.2-1.1c-0.1-0.3-0.3-0.6-0.5-0.7
		c-0.2-0.2-0.5-0.2-0.8-0.2c-0.5,0-1,0.3-1.3,0.8c-0.3,0.5-0.5,1.4-0.5,2.6L136.1,48.5z"/>
	<path class="st0" d="M160.5,50.2l-0.3,4.7h-13.6v-0.8c0.2,0,0.5-0.1,0.9-0.1c0.3,0,0.5-0.1,0.6-0.1c0.2-0.1,0.4-0.2,0.5-0.4
		s0.1-0.4,0.1-0.7V42.4c0-0.2,0-0.5-0.1-0.6c-0.1-0.2-0.3-0.3-0.6-0.4c-0.2-0.1-0.5-0.2-0.8-0.2c-0.3-0.1-0.5-0.1-0.7-0.1v-0.8h8.1
		V41c-0.2,0-0.5,0.1-0.8,0.1s-0.6,0.1-0.8,0.2c-0.3,0.1-0.5,0.2-0.5,0.4c-0.1,0.2-0.1,0.4-0.1,0.6V52c0,0.5,0,0.8,0.1,1.1
		c0.1,0.3,0.2,0.5,0.4,0.6c0.2,0.1,0.4,0.2,0.8,0.3s0.8,0.1,1.3,0.1c0.6,0,1.1,0,1.6-0.1c0.5-0.1,0.9-0.2,1.1-0.4
		c0.4-0.4,0.7-0.9,1.1-1.5c0.4-0.6,0.7-1.2,0.9-1.8H160.5z"/>
	<path class="st0" d="M172.3,52.4c-0.2,0.4-0.5,0.8-0.9,1.1c-0.3,0.4-0.7,0.6-1.2,0.9c-0.5,0.3-0.9,0.5-1.4,0.6
		c-0.5,0.1-1,0.2-1.6,0.2c-1,0-1.9-0.1-2.7-0.4s-1.4-0.7-1.8-1.2c-0.5-0.5-0.8-1.1-1.1-1.7s-0.4-1.4-0.4-2.2c0-0.7,0.1-1.4,0.4-2
		c0.3-0.6,0.6-1.2,1.1-1.7c0.5-0.5,1.1-0.9,1.8-1.2c0.7-0.3,1.5-0.5,2.4-0.5c1,0,1.8,0.1,2.4,0.4c0.6,0.2,1.1,0.6,1.5,1
		c0.4,0.4,0.7,0.9,0.9,1.4c0.2,0.5,0.3,1.1,0.3,1.7v0.7h-7c0,1.4,0.3,2.5,0.8,3.2c0.5,0.7,1.4,1.1,2.6,1.1c0.7,0,1.2-0.2,1.8-0.5
		s1-0.8,1.3-1.4L172.3,52.4z M168.3,48.5c0-0.4,0-0.8-0.1-1.3c0-0.4-0.1-0.8-0.2-1.1c-0.1-0.3-0.3-0.6-0.5-0.7
		c-0.2-0.2-0.5-0.2-0.8-0.2c-0.5,0-1,0.3-1.3,0.8c-0.3,0.5-0.5,1.4-0.5,2.6L168.3,48.5z"/>
	<path class="st0" d="M185.1,54.7c-0.3,0.1-0.7,0.3-1.1,0.4c-0.4,0.1-0.9,0.2-1.3,0.2c-0.9,0-1.5-0.1-1.9-0.4
		c-0.4-0.3-0.7-0.6-0.8-1.1H180c-0.2,0.2-0.5,0.4-0.7,0.6s-0.5,0.3-0.7,0.4c-0.3,0.2-0.6,0.3-0.9,0.3c-0.3,0.1-0.7,0.1-1.3,0.1
		c-0.8,0-1.5-0.2-2.1-0.7c-0.6-0.5-0.9-1.1-0.9-1.9c0-0.5,0.1-0.8,0.2-1.2c0.1-0.3,0.3-0.6,0.5-0.8c0.2-0.2,0.4-0.4,0.7-0.6
		c0.3-0.1,0.6-0.3,0.9-0.4c0.6-0.2,1.4-0.5,2.2-0.7c0.9-0.2,1.5-0.5,1.9-0.7v-1c0-0.2,0-0.4,0-0.7c0-0.3-0.1-0.5-0.2-0.7
		c-0.1-0.2-0.2-0.4-0.5-0.6s-0.5-0.2-0.8-0.2c-0.3,0-0.6,0-0.8,0.1c-0.2,0.1-0.4,0.2-0.5,0.3c0,0.1,0.1,0.4,0.2,0.6
		c0.1,0.3,0.1,0.6,0.1,0.8c0,0.1,0,0.3-0.1,0.4c-0.1,0.2-0.2,0.3-0.3,0.4c-0.2,0.1-0.3,0.2-0.5,0.3c-0.2,0.1-0.5,0.1-0.9,0.1
		c-0.6,0-1-0.1-1.3-0.4s-0.4-0.6-0.4-1.1c0-0.4,0.2-0.7,0.5-1c0.3-0.3,0.7-0.6,1.1-0.8c0.4-0.2,0.9-0.4,1.5-0.5
		c0.6-0.1,1.1-0.2,1.6-0.2c0.7,0,1.3,0,1.9,0.1c0.6,0.1,1.1,0.2,1.5,0.5c0.4,0.2,0.8,0.6,1,1.1c0.3,0.5,0.4,1.1,0.4,1.8
		c0,0.8,0,1.7,0,2.8s0,1.8,0,2.1c0,0.3,0,0.6,0.1,0.7c0.1,0.2,0.2,0.3,0.4,0.4c0.1,0.1,0.3,0.1,0.6,0.1s0.5,0,0.7,0V54.7z M180,49.3
		c-0.4,0.1-0.8,0.3-1.2,0.5c-0.4,0.2-0.7,0.3-0.9,0.5c-0.3,0.2-0.5,0.4-0.6,0.7c-0.1,0.3-0.2,0.7-0.2,1.1c0,0.5,0.1,0.9,0.4,1.2
		s0.6,0.4,0.9,0.4c0.4,0,0.7-0.1,0.9-0.2s0.5-0.3,0.7-0.6L180,49.3z"/>
	<path class="st0" d="M199.4,54.7l-5.1,0.3l-0.2-0.1v-1l-0.1,0c-0.3,0.4-0.8,0.7-1.4,1c-0.6,0.3-1.2,0.4-1.8,0.4
		c-1.4,0-2.6-0.5-3.5-1.6c-0.9-1-1.4-2.4-1.4-4c0-1.5,0.5-2.7,1.5-3.8c1-1,2.2-1.6,3.7-1.6c0.6,0,1.1,0.1,1.6,0.2s0.9,0.3,1.2,0.5
		v-3.4c0-0.3-0.1-0.5-0.2-0.7c-0.1-0.2-0.2-0.4-0.4-0.5c-0.2-0.2-0.5-0.3-0.8-0.3c-0.3-0.1-0.6-0.1-1-0.1v-0.8l5.6-0.3l0.2,0.2v13.6
		c0,0.3,0,0.5,0.1,0.7c0.1,0.2,0.2,0.3,0.4,0.4c0.1,0.1,0.4,0.1,0.6,0.2s0.5,0.1,0.7,0.1V54.7z M194.1,52.8V47
		c0-0.2-0.1-0.3-0.2-0.5c-0.1-0.2-0.2-0.4-0.4-0.6c-0.1-0.1-0.3-0.3-0.6-0.4c-0.2-0.1-0.5-0.2-0.8-0.2c-0.7,0-1.3,0.4-1.7,1.2
		c-0.4,0.8-0.7,1.9-0.7,3.3c0,0.6,0,1.1,0.1,1.5c0.1,0.4,0.2,0.9,0.4,1.2c0.2,0.4,0.5,0.7,0.8,0.9c0.3,0.2,0.7,0.3,1.1,0.3
		c0.4,0,0.8-0.1,1-0.2C193.6,53.3,193.8,53.1,194.1,52.8z"/>
	<path class="st0" d="M204.9,55.3c-0.7,0-1.3-0.1-2-0.3c-0.6-0.2-1.1-0.4-1.5-0.6l-0.3,0.7h-0.8l-0.1-3.9h0.8
		c0.1,0.3,0.3,0.7,0.5,1.1c0.2,0.4,0.5,0.7,0.8,1.1c0.3,0.3,0.7,0.6,1.1,0.8s0.9,0.3,1.3,0.3c0.6,0,1.1-0.1,1.4-0.4s0.5-0.6,0.5-1.1
		c0-0.3-0.1-0.5-0.2-0.7s-0.3-0.3-0.6-0.5c-0.3-0.1-0.6-0.3-0.9-0.4c-0.3-0.1-0.7-0.2-1.2-0.4c-0.5-0.1-0.9-0.3-1.2-0.4
		c-0.3-0.1-0.7-0.4-1-0.7c-0.3-0.3-0.6-0.6-0.7-1c-0.2-0.4-0.3-0.8-0.3-1.4c0-1,0.4-1.8,1.2-2.4c0.8-0.6,1.9-0.9,3.2-0.9
		c0.6,0,1.2,0.1,1.7,0.2s1,0.3,1.3,0.4l0.2-0.6h0.8l0.2,3.5h-0.7c-0.2-0.7-0.7-1.3-1.2-1.9s-1.2-0.8-1.9-0.8c-0.5,0-1,0.1-1.3,0.3
		c-0.3,0.2-0.5,0.5-0.5,0.9c0,0.5,0.2,0.9,0.7,1.1c0.4,0.2,1.1,0.5,1.9,0.7c1.2,0.3,2.1,0.8,2.7,1.3c0.6,0.6,0.9,1.3,0.9,2.1
		c0,1.1-0.4,2-1.3,2.6C207.5,54.9,206.3,55.3,204.9,55.3z"/>
	<path class="st0" d="M229.8,44.1H229c-0.2-0.6-0.6-1.2-1.1-1.8c-0.5-0.6-1-1-1.4-1.1c-0.2,0-0.5-0.1-0.8-0.1c-0.3,0-0.7,0-1,0h-2.3
		v5.8h1.5c0.4,0,0.8,0,1.1-0.1c0.3-0.1,0.6-0.3,0.8-0.5c0.2-0.2,0.3-0.5,0.5-0.9c0.2-0.4,0.3-0.8,0.3-1h0.8v6.2h-0.8
		c0-0.3-0.1-0.7-0.3-1.1c-0.2-0.4-0.3-0.7-0.5-0.9c-0.2-0.2-0.5-0.4-0.8-0.5c-0.3-0.1-0.7-0.2-1.1-0.2h-1.5v4.9c0,0.2,0,0.5,0.1,0.6
		c0.1,0.2,0.3,0.3,0.5,0.4c0.2,0.1,0.4,0.1,0.6,0.2c0.3,0.1,0.5,0.1,0.8,0.1v0.8h-8v-0.8c0.2,0,0.5-0.1,0.8-0.1
		c0.3,0,0.6-0.1,0.7-0.1c0.2-0.1,0.4-0.2,0.5-0.4s0.1-0.4,0.1-0.7V42.4c0-0.2,0-0.4-0.1-0.6c-0.1-0.2-0.3-0.3-0.5-0.4
		c-0.2-0.1-0.5-0.2-0.8-0.2s-0.6-0.1-0.7-0.1v-0.8h13.3V44.1z"/>
	<path class="st0" d="M241.3,45.8c0.5,0.5,0.9,1.1,1.2,1.7s0.4,1.4,0.4,2.2c0,0.8-0.1,1.5-0.4,2.2c-0.3,0.7-0.7,1.3-1.2,1.8
		c-0.5,0.5-1.2,0.9-2,1.2c-0.8,0.3-1.6,0.4-2.6,0.4c-0.8,0-1.6-0.1-2.3-0.4c-0.7-0.2-1.3-0.6-1.9-1.1c-0.5-0.5-0.9-1-1.2-1.7
		s-0.5-1.4-0.5-2.3c0-0.8,0.1-1.6,0.4-2.2c0.3-0.6,0.7-1.2,1.2-1.7c0.5-0.5,1.1-0.9,1.9-1.1c0.8-0.3,1.6-0.4,2.5-0.4
		c1,0,1.8,0.1,2.6,0.4C240.2,45,240.8,45.3,241.3,45.8z M238.6,53c0.2-0.4,0.3-0.9,0.3-1.4c0.1-0.6,0.1-1.2,0.1-1.9
		c0-0.5,0-1-0.1-1.7s-0.2-1.1-0.3-1.5c-0.2-0.4-0.4-0.8-0.7-1c-0.3-0.2-0.7-0.4-1.1-0.4c-0.5,0-0.9,0.1-1.2,0.4
		c-0.3,0.3-0.5,0.6-0.7,1.1c-0.1,0.4-0.2,0.9-0.3,1.4c-0.1,0.5-0.1,1.1-0.1,1.7c0,0.8,0,1.4,0.1,1.9s0.2,1,0.4,1.5
		c0.2,0.4,0.4,0.8,0.7,1c0.3,0.2,0.7,0.4,1.1,0.4c0.4,0,0.8-0.1,1.1-0.3C238.2,53.8,238.5,53.5,238.6,53z"/>
	<path class="st0" d="M254.6,46.5c0,0.5-0.2,1-0.5,1.4c-0.3,0.4-0.8,0.6-1.3,0.6c-0.5,0-0.9-0.1-1.3-0.4S251,47.5,251,47
		c0-0.2,0-0.4,0.1-0.6c0-0.1,0.1-0.3,0.1-0.4c-0.3,0-0.7,0.1-1,0.3s-0.7,0.5-0.9,0.8v5.7c0,0.2,0,0.4,0.1,0.6
		c0.1,0.2,0.2,0.3,0.4,0.4c0.2,0.1,0.4,0.1,0.7,0.2c0.3,0.1,0.6,0.1,0.7,0.1v0.8h-7v-0.8c0.2,0,0.3,0,0.5-0.1s0.3-0.1,0.5-0.1
		c0.2-0.1,0.4-0.2,0.5-0.4c0.1-0.2,0.1-0.4,0.1-0.6V47c0-0.2-0.1-0.5-0.2-0.7c-0.1-0.2-0.3-0.4-0.4-0.5c-0.1-0.1-0.3-0.2-0.5-0.2
		c-0.2-0.1-0.4-0.1-0.6-0.1v-0.8l5-0.3l0.2,0.2v1.5h0c0.5-0.6,1-1,1.5-1.3c0.5-0.3,1.1-0.5,1.7-0.5c0.6,0,1.2,0.2,1.6,0.6
		C254.4,45.3,254.6,45.9,254.6,46.5z"/>
	<path class="st0" d="M276,54.9h-6.2v-0.8c0.2,0,0.3,0,0.5-0.1c0.2,0,0.3,0,0.4-0.1c0.2-0.1,0.2-0.2,0.3-0.3c0-0.2,0.1-0.4,0.1-0.6
		v-4.9c0-0.7-0.1-1.2-0.4-1.6c-0.3-0.4-0.6-0.5-1.1-0.5c-0.3,0-0.6,0-0.8,0.1c-0.2,0.1-0.4,0.2-0.6,0.3c-0.2,0.1-0.4,0.3-0.5,0.4
		c-0.1,0.1-0.2,0.3-0.3,0.4v5.6c0,0.2,0,0.5,0.1,0.6c0.1,0.2,0.2,0.3,0.3,0.4c0.1,0.1,0.2,0.1,0.4,0.2c0.1,0,0.3,0.1,0.4,0.1v0.8
		h-5.9v-0.8c0.1,0,0.3,0,0.5-0.1c0.2,0,0.3-0.1,0.4-0.1c0.1-0.1,0.2-0.2,0.3-0.3c0-0.1,0.1-0.4,0.1-0.6v-4.9c0-0.7-0.1-1.2-0.4-1.6
		s-0.6-0.5-1.1-0.5c-0.3,0-0.6,0-0.8,0.1c-0.2,0.1-0.4,0.2-0.6,0.3c-0.2,0.1-0.4,0.3-0.5,0.4c-0.1,0.1-0.2,0.3-0.3,0.4v5.6
		c0,0.2,0,0.4,0.1,0.6c0.1,0.2,0.2,0.3,0.3,0.4c0.1,0.1,0.2,0.1,0.4,0.2c0.1,0,0.3,0.1,0.5,0.1v0.8h-6.2v-0.8c0.2,0,0.4,0,0.5-0.1
		c0.2,0,0.3-0.1,0.4-0.1c0.2-0.1,0.4-0.2,0.5-0.4c0.1-0.2,0.1-0.4,0.1-0.6V47c0-0.2-0.1-0.4-0.2-0.6c-0.1-0.2-0.3-0.4-0.4-0.5
		c-0.1-0.1-0.3-0.2-0.5-0.2c-0.2-0.1-0.4-0.1-0.6-0.1v-0.8l5-0.3l0.2,0.2v1.5h0c0.2-0.2,0.4-0.4,0.7-0.6s0.5-0.4,0.8-0.6
		c0.3-0.2,0.6-0.3,1-0.4c0.4-0.1,0.8-0.2,1.3-0.2c0.8,0,1.5,0.2,2,0.5s0.9,0.8,1.1,1.4h0.1c0.2-0.2,0.4-0.4,0.7-0.7
		c0.3-0.3,0.6-0.5,0.8-0.6c0.3-0.2,0.6-0.3,1-0.4c0.4-0.1,0.9-0.2,1.3-0.2c1,0,1.9,0.3,2.4,0.9c0.6,0.6,0.8,1.5,0.8,2.6v5.1
		c0,0.3,0,0.5,0.1,0.6c0.1,0.2,0.2,0.3,0.4,0.4c0.1,0,0.2,0.1,0.4,0.1c0.2,0,0.4,0.1,0.6,0.1V54.9z"/>
	<path class="st0" d="M298.9,48.9c-0.2,0-0.4,0-0.6,0.1s-0.4,0.1-0.6,0.2c-0.3,0.1-0.5,0.2-0.6,0.4c-0.1,0.2-0.1,0.4-0.1,0.7V52
		c0,0.3,0,0.6,0,0.8s0,0.5,0,0.8c-0.7,0.4-1.7,0.8-3.1,1.2c-1.4,0.4-2.6,0.6-3.7,0.6c-1.1,0-2.1-0.2-3-0.5s-1.8-0.8-2.5-1.5
		c-0.7-0.6-1.3-1.4-1.7-2.4c-0.4-1-0.6-2.1-0.6-3.3c0-1.2,0.2-2.2,0.6-3.2c0.4-1,0.9-1.8,1.7-2.5c0.7-0.7,1.6-1.2,2.6-1.6
		c1-0.4,2.1-0.6,3.4-0.6c0.8,0,1.6,0.1,2.3,0.3c0.7,0.2,1.3,0.4,1.8,0.7l0.6-0.6h0.9l0.1,5.4h-0.9c-0.5-1.6-1.2-2.8-1.9-3.6
		s-1.7-1.2-2.8-1.2c-1.3,0-2.4,0.6-3.1,1.7s-1.1,2.8-1.1,4.8c0,2.2,0.4,3.9,1.1,5.1c0.7,1.2,1.7,1.8,3,1.8c0.6,0,1.2-0.1,1.6-0.3
		c0.5-0.2,0.8-0.4,1.1-0.6v-3c0-0.2,0-0.5-0.1-0.6c-0.1-0.2-0.3-0.3-0.5-0.4c-0.2-0.1-0.5-0.2-0.8-0.2c-0.3-0.1-0.6-0.1-0.8-0.1
		v-0.8h7.7V48.9z"/>
	<path class="st0" d="M310.7,52.4c-0.2,0.4-0.5,0.8-0.9,1.1c-0.3,0.4-0.7,0.6-1.2,0.9c-0.5,0.3-0.9,0.5-1.4,0.6
		c-0.5,0.1-1,0.2-1.6,0.2c-1,0-1.9-0.1-2.7-0.4s-1.4-0.7-1.8-1.2c-0.5-0.5-0.8-1.1-1.1-1.7s-0.4-1.4-0.4-2.2c0-0.7,0.1-1.4,0.4-2
		c0.3-0.6,0.6-1.2,1.1-1.7c0.5-0.5,1.1-0.9,1.8-1.2c0.7-0.3,1.5-0.5,2.4-0.5c1,0,1.8,0.1,2.4,0.4c0.6,0.2,1.1,0.6,1.5,1
		c0.4,0.4,0.7,0.9,0.9,1.4c0.2,0.5,0.3,1.1,0.3,1.7v0.7h-7c0,1.4,0.3,2.5,0.8,3.2c0.5,0.7,1.4,1.1,2.6,1.1c0.7,0,1.2-0.2,1.8-0.5
		s1-0.8,1.3-1.4L310.7,52.4z M306.7,48.5c0-0.4,0-0.8-0.1-1.3c0-0.4-0.1-0.8-0.2-1.1c-0.1-0.3-0.3-0.6-0.5-0.7
		c-0.2-0.2-0.5-0.2-0.8-0.2c-0.5,0-1,0.3-1.3,0.8c-0.3,0.5-0.5,1.4-0.5,2.6L306.7,48.5z"/>
	<path class="st0" d="M325.4,54.9h-6.2v-0.8c0.1,0,0.3,0,0.5-0.1c0.2,0,0.3-0.1,0.4-0.1c0.1-0.1,0.2-0.2,0.3-0.3s0.1-0.4,0.1-0.6
		v-4.9c0-0.7-0.1-1.2-0.4-1.6c-0.3-0.4-0.6-0.5-1.2-0.5c-0.3,0-0.5,0-0.8,0.1c-0.2,0.1-0.5,0.2-0.7,0.4c-0.2,0.1-0.4,0.3-0.5,0.4
		s-0.2,0.3-0.3,0.4v5.6c0,0.2,0,0.4,0.1,0.6c0.1,0.2,0.2,0.3,0.3,0.4c0.1,0.1,0.2,0.1,0.4,0.2c0.2,0,0.3,0.1,0.5,0.1v0.8h-6.3v-0.8
		c0.2,0,0.3,0,0.5-0.1s0.3-0.1,0.5-0.1c0.2-0.1,0.4-0.2,0.5-0.4c0.1-0.2,0.1-0.4,0.1-0.6V47c0-0.2-0.1-0.4-0.2-0.6s-0.3-0.4-0.4-0.5
		c-0.1-0.1-0.3-0.2-0.5-0.2c-0.2-0.1-0.4-0.1-0.6-0.1v-0.8l5-0.3l0.2,0.2v1.5h0c0.2-0.2,0.4-0.4,0.7-0.6s0.5-0.4,0.8-0.6
		c0.3-0.2,0.6-0.3,1-0.4c0.4-0.1,0.9-0.2,1.3-0.2c1.1,0,2,0.3,2.5,1s0.8,1.5,0.8,2.6v5.1c0,0.3,0,0.5,0.1,0.6
		c0.1,0.2,0.2,0.3,0.4,0.4c0.1,0,0.2,0.1,0.4,0.1c0.2,0,0.3,0.1,0.6,0.1V54.9z"/>
	<path class="st0" d="M337.6,52.4c-0.2,0.4-0.5,0.8-0.9,1.1c-0.3,0.4-0.7,0.6-1.2,0.9c-0.5,0.3-0.9,0.5-1.4,0.6
		c-0.5,0.1-1,0.2-1.6,0.2c-1,0-1.9-0.1-2.7-0.4s-1.4-0.7-1.8-1.2c-0.5-0.5-0.8-1.1-1.1-1.7s-0.4-1.4-0.4-2.2c0-0.7,0.1-1.4,0.4-2
		c0.3-0.6,0.6-1.2,1.1-1.7c0.5-0.5,1.1-0.9,1.8-1.2c0.7-0.3,1.5-0.5,2.4-0.5c1,0,1.8,0.1,2.4,0.4c0.6,0.2,1.1,0.6,1.5,1
		c0.4,0.4,0.7,0.9,0.9,1.4c0.2,0.5,0.3,1.1,0.3,1.7v0.7h-7c0,1.4,0.3,2.5,0.8,3.2c0.5,0.7,1.4,1.1,2.6,1.1c0.7,0,1.2-0.2,1.8-0.5
		s1-0.8,1.3-1.4L337.6,52.4z M333.6,48.5c0-0.4,0-0.8-0.1-1.3c0-0.4-0.1-0.8-0.2-1.1c-0.1-0.3-0.3-0.6-0.5-0.7
		c-0.2-0.2-0.5-0.2-0.8-0.2c-0.5,0-1,0.3-1.3,0.8c-0.3,0.5-0.5,1.4-0.5,2.6L333.6,48.5z"/>
	<path class="st0" d="M348.9,46.5c0,0.5-0.2,1-0.5,1.4c-0.3,0.4-0.8,0.6-1.3,0.6c-0.5,0-0.9-0.1-1.3-0.4s-0.5-0.6-0.5-1.1
		c0-0.2,0-0.4,0.1-0.6c0-0.1,0.1-0.3,0.1-0.4c-0.3,0-0.7,0.1-1,0.3s-0.7,0.5-0.9,0.8v5.7c0,0.2,0,0.4,0.1,0.6
		c0.1,0.2,0.2,0.3,0.4,0.4c0.2,0.1,0.4,0.1,0.7,0.2c0.3,0.1,0.6,0.1,0.7,0.1v0.8h-7v-0.8c0.2,0,0.3,0,0.5-0.1s0.3-0.1,0.5-0.1
		c0.2-0.1,0.4-0.2,0.5-0.4c0.1-0.2,0.1-0.4,0.1-0.6V47c0-0.2-0.1-0.5-0.2-0.7c-0.1-0.2-0.3-0.4-0.4-0.5c-0.1-0.1-0.3-0.2-0.5-0.2
		c-0.2-0.1-0.4-0.1-0.6-0.1v-0.8l5-0.3l0.2,0.2v1.5h0c0.5-0.6,1-1,1.5-1.3c0.5-0.3,1.1-0.5,1.7-0.5c0.6,0,1.2,0.2,1.6,0.6
		C348.8,45.3,348.9,45.9,348.9,46.5z"/>
	<path class="st0" d="M361.6,54.7c-0.3,0.1-0.7,0.3-1.1,0.4c-0.4,0.1-0.9,0.2-1.3,0.2c-0.9,0-1.5-0.1-1.9-0.4
		c-0.4-0.3-0.7-0.6-0.8-1.1h-0.1c-0.2,0.2-0.5,0.4-0.7,0.6s-0.5,0.3-0.7,0.4c-0.3,0.2-0.6,0.3-0.9,0.3c-0.3,0.1-0.7,0.1-1.3,0.1
		c-0.8,0-1.5-0.2-2.1-0.7c-0.6-0.5-0.9-1.1-0.9-1.9c0-0.5,0.1-0.8,0.2-1.2c0.1-0.3,0.3-0.6,0.5-0.8c0.2-0.2,0.4-0.4,0.7-0.6
		c0.3-0.1,0.6-0.3,0.9-0.4c0.6-0.2,1.4-0.5,2.2-0.7c0.9-0.2,1.5-0.5,1.9-0.7v-1c0-0.2,0-0.4,0-0.7c0-0.3-0.1-0.5-0.2-0.7
		c-0.1-0.2-0.2-0.4-0.5-0.6s-0.5-0.2-0.8-0.2c-0.3,0-0.6,0-0.8,0.1c-0.2,0.1-0.4,0.2-0.5,0.3c0,0.1,0.1,0.4,0.2,0.6
		c0.1,0.3,0.1,0.6,0.1,0.8c0,0.1,0,0.3-0.1,0.4c-0.1,0.2-0.2,0.3-0.3,0.4c-0.2,0.1-0.3,0.2-0.5,0.3c-0.2,0.1-0.5,0.1-0.9,0.1
		c-0.6,0-1-0.1-1.3-0.4s-0.4-0.6-0.4-1.1c0-0.4,0.2-0.7,0.5-1c0.3-0.3,0.7-0.6,1.1-0.8c0.4-0.2,0.9-0.4,1.5-0.5
		c0.6-0.1,1.1-0.2,1.6-0.2c0.7,0,1.3,0,1.9,0.1c0.6,0.1,1.1,0.2,1.5,0.5c0.4,0.2,0.8,0.6,1,1.1c0.3,0.5,0.4,1.1,0.4,1.8
		c0,0.8,0,1.7,0,2.8s0,1.8,0,2.1c0,0.3,0,0.6,0.1,0.7c0.1,0.2,0.2,0.3,0.4,0.4c0.1,0.1,0.3,0.1,0.6,0.1s0.5,0,0.7,0V54.7z
		 M356.4,49.3c-0.4,0.1-0.8,0.3-1.2,0.5c-0.4,0.2-0.7,0.3-0.9,0.5c-0.3,0.2-0.5,0.4-0.6,0.7c-0.1,0.3-0.2,0.7-0.2,1.1
		c0,0.5,0.1,0.9,0.4,1.2s0.6,0.4,0.9,0.4c0.4,0,0.7-0.1,0.9-0.2s0.5-0.3,0.7-0.6L356.4,49.3z"/>
	<path class="st0" d="M370.1,54.4c-0.4,0.2-0.9,0.4-1.4,0.5c-0.5,0.2-1.1,0.2-1.9,0.2c-1.1,0-1.9-0.3-2.4-0.8s-0.8-1.3-0.8-2.3v-6.4
		h-1.9v-1.1h1.9v-3.2h3.4v3.2h2.9v1.1h-2.9v5.7c0,0.8,0.1,1.4,0.3,1.7s0.6,0.5,1.2,0.5c0.2,0,0.4,0,0.8,0s0.6-0.1,0.7-0.1V54.4z"/>
	<path class="st0" d="M381.4,45.8c0.5,0.5,0.9,1.1,1.2,1.7s0.4,1.4,0.4,2.2c0,0.8-0.1,1.5-0.4,2.2c-0.3,0.7-0.7,1.3-1.2,1.8
		c-0.5,0.5-1.2,0.9-2,1.2c-0.8,0.3-1.6,0.4-2.6,0.4c-0.8,0-1.6-0.1-2.3-0.4c-0.7-0.2-1.3-0.6-1.9-1.1c-0.5-0.5-0.9-1-1.2-1.7
		s-0.5-1.4-0.5-2.3c0-0.8,0.1-1.6,0.4-2.2c0.3-0.6,0.7-1.2,1.2-1.7c0.5-0.5,1.1-0.9,1.9-1.1c0.8-0.3,1.6-0.4,2.5-0.4
		c1,0,1.8,0.1,2.6,0.4C380.3,45,380.9,45.3,381.4,45.8z M378.8,53c0.2-0.4,0.3-0.9,0.3-1.4c0.1-0.6,0.1-1.2,0.1-1.9
		c0-0.5,0-1-0.1-1.7s-0.2-1.1-0.3-1.5c-0.2-0.4-0.4-0.8-0.7-1c-0.3-0.2-0.7-0.4-1.1-0.4c-0.5,0-0.9,0.1-1.2,0.4
		c-0.3,0.3-0.5,0.6-0.7,1.1c-0.1,0.4-0.2,0.9-0.3,1.4c-0.1,0.5-0.1,1.1-0.1,1.7c0,0.8,0,1.4,0.1,1.9s0.2,1,0.4,1.5
		c0.2,0.4,0.4,0.8,0.7,1c0.3,0.2,0.7,0.4,1.1,0.4c0.4,0,0.8-0.1,1.1-0.3C378.4,53.8,378.6,53.5,378.8,53z"/>
	<path class="st0" d="M394.7,46.5c0,0.5-0.2,1-0.5,1.4c-0.3,0.4-0.8,0.6-1.3,0.6c-0.5,0-0.9-0.1-1.3-0.4s-0.5-0.6-0.5-1.1
		c0-0.2,0-0.4,0.1-0.6c0-0.1,0.1-0.3,0.1-0.4c-0.3,0-0.7,0.1-1,0.3s-0.7,0.5-0.9,0.8v5.7c0,0.2,0,0.4,0.1,0.6
		c0.1,0.2,0.2,0.3,0.4,0.4c0.2,0.1,0.4,0.1,0.7,0.2c0.3,0.1,0.6,0.1,0.7,0.1v0.8h-7v-0.8c0.2,0,0.3,0,0.5-0.1s0.3-0.1,0.5-0.1
		c0.2-0.1,0.4-0.2,0.5-0.4c0.1-0.2,0.1-0.4,0.1-0.6V47c0-0.2-0.1-0.5-0.2-0.7c-0.1-0.2-0.3-0.4-0.4-0.5c-0.1-0.1-0.3-0.2-0.5-0.2
		c-0.2-0.1-0.4-0.1-0.6-0.1v-0.8l5-0.3l0.2,0.2v1.5h0c0.5-0.6,1-1,1.5-1.3c0.5-0.3,1.1-0.5,1.7-0.5c0.6,0,1.2,0.2,1.6,0.6
		C394.5,45.3,394.7,45.9,394.7,46.5z"/>
</g>
<rect x="0.5" y="0.5" class="st1" width="432.6" height="87.8"/>
<rect x="0.5" y="0.5" class="st2" width="59" height="17.8"/>
<g>
	<path class="st3" d="M9.3,7.2c0.4,0,0.8,0,1.1,0.1c0.3,0.1,0.6,0.2,0.8,0.4c0.2,0.2,0.4,0.4,0.4,0.6c0.1,0.2,0.1,0.5,0.1,0.8
		c0,0.3-0.1,0.6-0.2,0.8s-0.3,0.5-0.5,0.7s-0.5,0.3-0.8,0.4s-0.7,0.2-1.1,0.2h-1v2.4h-1V7.2H9.3z M9.3,10.5c0.2,0,0.5,0,0.6-0.1
		c0.2-0.1,0.3-0.2,0.5-0.3c0.1-0.1,0.2-0.3,0.3-0.4c0.1-0.2,0.1-0.3,0.1-0.5c0-0.4-0.1-0.7-0.4-0.9S9.8,8,9.3,8h-1v2.6H9.3z"/>
	<path class="st3" d="M18.6,13.7h-0.9c-0.2,0-0.3-0.1-0.4-0.2l-1.6-2.2c-0.1-0.1-0.1-0.1-0.2-0.2c-0.1,0-0.1,0-0.3,0h-0.6v2.7h-1
		V7.2h1.9c0.4,0,0.8,0,1.1,0.1c0.3,0.1,0.6,0.2,0.7,0.4c0.2,0.2,0.3,0.3,0.4,0.6C18,8.5,18,8.7,18,9c0,0.2,0,0.4-0.1,0.6
		c-0.1,0.2-0.2,0.4-0.3,0.5c-0.1,0.2-0.3,0.3-0.5,0.4c-0.2,0.1-0.4,0.2-0.7,0.3c0.1,0.1,0.2,0.2,0.3,0.3L18.6,13.7z M15.6,10.3
		c0.2,0,0.5,0,0.7-0.1s0.3-0.1,0.5-0.3c0.1-0.1,0.2-0.2,0.3-0.4c0.1-0.2,0.1-0.3,0.1-0.5c0-0.4-0.1-0.7-0.4-0.8
		C16.5,8.1,16.1,8,15.6,8h-0.9v2.4H15.6z"/>
	<path class="st3" d="M26.3,10.4c0,0.5-0.1,0.9-0.2,1.3c-0.2,0.4-0.4,0.8-0.7,1c-0.3,0.3-0.6,0.5-1,0.7c-0.4,0.2-0.8,0.2-1.3,0.2
		c-0.5,0-0.9-0.1-1.3-0.2c-0.4-0.2-0.7-0.4-1-0.7c-0.3-0.3-0.5-0.6-0.7-1c-0.2-0.4-0.2-0.8-0.2-1.3c0-0.5,0.1-0.9,0.2-1.3
		c0.2-0.4,0.4-0.8,0.7-1c0.3-0.3,0.6-0.5,1-0.7s0.8-0.2,1.3-0.2c0.5,0,0.9,0.1,1.3,0.2s0.7,0.4,1,0.7c0.3,0.3,0.5,0.6,0.7,1
		C26.3,9.5,26.3,10,26.3,10.4z M25.3,10.4c0-0.4-0.1-0.7-0.2-1c-0.1-0.3-0.3-0.6-0.4-0.8c-0.2-0.2-0.4-0.4-0.7-0.5
		C23.8,8,23.5,8,23.1,8S22.5,8,22.2,8.1c-0.3,0.1-0.5,0.3-0.7,0.5c-0.2,0.2-0.3,0.5-0.4,0.8c-0.1,0.3-0.2,0.7-0.2,1
		c0,0.4,0.1,0.7,0.2,1c0.1,0.3,0.3,0.6,0.4,0.8c0.2,0.2,0.4,0.4,0.7,0.5c0.3,0.1,0.6,0.2,0.9,0.2s0.6-0.1,0.9-0.2
		c0.3-0.1,0.5-0.3,0.7-0.5c0.2-0.2,0.3-0.5,0.4-0.8C25.3,11.2,25.3,10.8,25.3,10.4z"/>
	<path class="st3" d="M30.5,11.4c0,0.4,0,0.7-0.1,1c-0.1,0.3-0.2,0.5-0.4,0.7c-0.2,0.2-0.4,0.4-0.6,0.5c-0.3,0.1-0.6,0.2-0.9,0.2
		c-0.3,0-0.6,0-0.9-0.1l0.1-0.6c0-0.1,0-0.1,0.1-0.1c0,0,0.1-0.1,0.2-0.1c0.1,0,0.1,0,0.2,0c0.1,0,0.2,0,0.3,0c0.2,0,0.4,0,0.5-0.1
		s0.3-0.1,0.4-0.3c0.1-0.1,0.2-0.3,0.2-0.5c0.1-0.2,0.1-0.4,0.1-0.7V7.2h1V11.4z"/>
	<path class="st3" d="M37,12.9l0,0.8h-4V7.2h4V8h-3v2h2.4v0.8h-2.4v2.1H37z"/>
	<path class="st3" d="M43.5,12.3c0.1,0,0.1,0,0.1,0.1l0.4,0.4c-0.3,0.3-0.6,0.6-1,0.7s-0.8,0.3-1.4,0.3c-0.5,0-0.9-0.1-1.3-0.2
		s-0.7-0.4-1-0.7c-0.3-0.3-0.5-0.6-0.6-1c-0.1-0.4-0.2-0.9-0.2-1.3s0.1-0.9,0.2-1.3c0.2-0.4,0.4-0.8,0.7-1c0.3-0.3,0.6-0.5,1-0.7
		c0.4-0.2,0.8-0.2,1.3-0.2c0.5,0,0.9,0.1,1.2,0.2c0.4,0.1,0.7,0.3,0.9,0.6l-0.3,0.4c0,0,0,0.1-0.1,0.1c0,0-0.1,0-0.1,0
		c-0.1,0-0.1,0-0.2-0.1c-0.1-0.1-0.2-0.1-0.3-0.2s-0.3-0.1-0.5-0.2C42.2,8,42,8,41.7,8c-0.3,0-0.6,0.1-0.9,0.2
		c-0.3,0.1-0.5,0.3-0.7,0.5c-0.2,0.2-0.3,0.5-0.4,0.8c-0.1,0.3-0.2,0.7-0.2,1c0,0.4,0.1,0.7,0.2,1c0.1,0.3,0.3,0.6,0.5,0.8
		c0.2,0.2,0.4,0.4,0.7,0.5c0.3,0.1,0.5,0.2,0.9,0.2c0.2,0,0.4,0,0.5,0s0.3-0.1,0.4-0.1c0.1,0,0.2-0.1,0.4-0.2
		c0.1-0.1,0.2-0.2,0.3-0.3C43.3,12.3,43.4,12.3,43.5,12.3C43.4,12.3,43.4,12.3,43.5,12.3z"/>
	<path class="st3" d="M50.3,8h-2.1v5.7h-1V8h-2.1V7.2h5.1V8z"/>
</g>
</svg>
